<mxfile host="65bd71144e">
    <diagram id="nRMsls9ea6XlhCiuqbUI" name="Page-1">
        <mxGraphModel dx="1720" dy="352" grid="1" gridSize="10" guides="1" tooltips="1" connect="1" arrows="1" fold="1" page="1" pageScale="1" pageWidth="1100" pageHeight="850" math="0" shadow="0">
            <root>
                <mxCell id="0"/>
                <mxCell id="1" parent="0"/>
                <mxCell id="9" value="" style="edgeStyle=none;orthogonalLoop=1;jettySize=auto;html=1;" edge="1" parent="1">
                    <mxGeometry width="100" relative="1" as="geometry">
                        <mxPoint x="30" y="49.5" as="sourcePoint"/>
                        <mxPoint x="80" y="49.5" as="targetPoint"/>
                        <Array as="points"/>
                    </mxGeometry>
                </mxCell>
                <mxCell id="10" value="&lt;b&gt;&lt;font style=&quot;font-size: 20px;&quot;&gt;JavaScript&lt;/font&gt;&lt;/b&gt;" style="text;html=1;align=center;verticalAlign=middle;resizable=0;points=[];autosize=1;strokeColor=none;fillColor=none;" vertex="1" parent="1">
                    <mxGeometry x="75" y="30" width="120" height="40" as="geometry"/>
                </mxCell>
                <mxCell id="15" value="" style="edgeStyle=segmentEdgeStyle;endArrow=classic;html=1;curved=0;rounded=0;endSize=8;startSize=8;sourcePerimeterSpacing=0;targetPerimeterSpacing=0;fontSize=17;" edge="1" parent="1" source="10">
                    <mxGeometry width="100" relative="1" as="geometry">
                        <mxPoint x="100" y="60" as="sourcePoint"/>
                        <mxPoint x="200" y="100" as="targetPoint"/>
                        <Array as="points">
                            <mxPoint x="130" y="100"/>
                        </Array>
                    </mxGeometry>
                </mxCell>
                <mxCell id="16" value="&lt;b&gt;Synchronous&lt;/b&gt;" style="text;html=1;align=center;verticalAlign=middle;resizable=0;points=[];autosize=1;strokeColor=none;fillColor=none;fontSize=17;" vertex="1" parent="1">
                    <mxGeometry x="190" y="85" width="130" height="30" as="geometry"/>
                </mxCell>
                <mxCell id="17" value="" style="edgeStyle=segmentEdgeStyle;endArrow=classic;html=1;curved=0;rounded=0;endSize=8;startSize=8;sourcePerimeterSpacing=0;targetPerimeterSpacing=0;fontSize=17;" edge="1" parent="1">
                    <mxGeometry width="100" relative="1" as="geometry">
                        <mxPoint x="130" y="100" as="sourcePoint"/>
                        <mxPoint x="200" y="130" as="targetPoint"/>
                        <Array as="points">
                            <mxPoint x="130" y="130"/>
                            <mxPoint x="200" y="130"/>
                        </Array>
                    </mxGeometry>
                </mxCell>
                <mxCell id="18" value="&lt;b&gt;Single Threaded&lt;/b&gt;" style="text;html=1;align=center;verticalAlign=middle;resizable=0;points=[];autosize=1;strokeColor=none;fillColor=none;fontSize=17;" vertex="1" parent="1">
                    <mxGeometry x="185" y="115" width="160" height="30" as="geometry"/>
                </mxCell>
                <mxCell id="37" value="" style="shape=image;verticalLabelPosition=bottom;labelBackgroundColor=default;verticalAlign=top;aspect=fixed;imageAspect=0;image=data:image/png,iVBORw0KGgoAAAANSUhEUgAAAggAAAE7CAYAAAC4+nn9AAAAAXNSR0IArs4c6QAAIABJREFUeF7sXQV0lEcXvbtxNyBEcHenxd3d3bUtRQv0L06LF5cWd4fiBHdpixd3lxAjLmv/eW+zYeO7m03YhJlTTmF3vpE7s9+782wkpYqXUiG2qFRxf9V8lEn+L0linJl1LpkE8iSHKdX6VKnjRLSf0fERrqZr+/q0mVnqGoqZPvPTD19D3h0SSVK/W33GmB51dcVWP3zSOlIJJKD/EuNMGCb3/ssa70DaJ4bsL8Mx194DhGHWwNEQPCRlS5VPRAu0f7i6L4w2iLRh1f+mjR0fXvpX/A2t/a/PdVWIPw5dpqdpKS0Lqnk24ai029RlA+n6otFlXqJO2hFIy57Qp3d9+zHVfZKUAGQxlWRRGfQS1Z0gaHrWvD0SvlOSG1nCX3PSq6Pi9xQV3VcvqZq6z0eXHaXhT+oXdOz7VKuLzy9u3frVvE+Te6fr//ZMSngm3M8J95Hm+9SQ/ixD9FkVNa7JkSZdUE8on1IaZ9KSS5dedK+TnNzRtJBwDXTbC5/7T74+SW5JmZLl6NcRVyQS7QXUozOV6jPLS3AySO2kkHDDcq8pnC50Jy26L0NqNSUSzfzUm08zRpWKfgCJN5FEYpbky1Rpklqa5F8Nqa1darjp8r0h62nIuPTYzboMO0vXUSWpoTFVMmPMpUhNcKXUV1p2WMJ+ddWKSqBSfhbCEmkmWaOE50ljLmGKbX2xjjNshskw+KQVTamMSlKudLkEO1NbWBhjsyV1ItdmPxrGl/AzXfFMy4+S+qAfV1Kq8YTtprSxknqpGAO7hBhos2pd8UlrvbS8MNPSd8r9qiDVImD6jDGt+yX5OSUiutqnvWQUwcm3ltT+S+mUSzw/ORwMmbO6rfgtapFjvU7bSc9S9/FqxqJ9GpUmf7CUaAlMrd92PNKjSu73SZpLQ/et5sGkCHfCk6l2H5rvUjrD63qS1W43dr+oEmpjk25Lf9Kt6+n1SwplXXHTYE/7Qnteye8T/TUb+rynDN2DhjyXghah6jdVE4yaAMlY+5ohUzL9Z9KDIHyJWWfEXtDl9PQl5m6qfSa3tzJirUwVEzGuxAik9zsoIUH4mtbAEDNG5vt9ShIThK9pkdNzrgYfQ9JzUAa0baqs14CpZLpH9N1DYq0y3RKn64D13T+GDOZr3XOGYGsKWOnnSC4IgiG/CaM9o4/JQHtD6rPR9OnDaBPTaig5pp352HR6oCPaFAgIBAQCpoqAIAimujJZalzaJOVLE5YsBayYjEBAICAQSDcEBEFIN2hFwwIBgYBAQCAgEMi8CAiCkHnXToxcICAQEAgIBAQC6YaAIAjpBq1oWCAgEBAICAQEApkXAUEQMu/aiZELBAQCAgGBgEAg3RAQBCHdoBUNCwQEAgIBgYBAIPMiIAhC5l07MXKBgEBAICAQEAikGwKCIKQbtKJhgYBAQCAgEBAIZF4EBEHIvGsnRi4QEAgIBAQCAoF0Q0AQhHSDVjQsEBAICAQEAgKBzIuAIAiZd+3EyAUCAgGBgEBAIJBuCAiCkG7QioYFAgIBgYBAQCCQeREQBCHzrp0YuUBAICAQEAgIBNINAUEQ0g1a0bBAQCAgEBAICAQyLwKCIGTetRMjFwgIBAQCAgGBQLohIAhCukErGhYICAQEAgIBgUDmRUAQhMy7dmLkAgGBgEBAICAQSDcEBEFIN2hFwwIBgYBAQCAgEMi8CAiCkHnXToxcICAQEAgIBAQC6YaAIAjpBq1oWCAgEBAICAQEApkXAUEQMu/aiZELBAQCAgGBgEAg3RAQBCHdoI3fsEql4g8kEkm8L+jfmu8yaCiiG4GAQEAgIBAQCKSKgCAIqUKkXwUS9hoSoFSpIJfJEB4RjtCQUG4oT548sLGxgbu7O3LnzgNPTw9Y21hj48aNkMvk+nUmagsEBAICAYGAQCCdEBAEwYjAEjkgAlCnTh3Y2tnC3Mwc9vb2cHFxgYOjAxydHJE9W3b4fvBFcHAw3rx5g8DAQLRq3QqdOnZCWFiYEUcjmhIICAQEAgIBgYDhCAiCYDh2iZ6UyWXYuGEjjh07Bj9/P0RHRSMqOgqREZGIjo6Gv78//tqzC1WqVEVoSBikZlJYW1nD08sTgQGBMDc3N+JoMk9TGq2Lg4MDQkJCEplhMs9MxEgFAgIBgUDWQUAQBCOvpUQqYWJgZmamblkigZlUyn4G796/x4P799CocSPIZQoj92x6zSkUCuTPnx/379+Hra1tsgMMCw/DzBkzQfWnTZsGqVRqepMRIxIICAQEAl8ZAoIgGHnBtX0QEjZNJoVHjx6hYcOGkMuztr8B4WBtbY3du3ejadOmKQp90pwcOXIECxYswP79+wVBMPKeFM0JBAQCAgFDEBAEwRDUDHwmKxMEpUoJqST+yZ9MBitXrUKtWjXhkdMjSdSUSiVKlS6FwYMGo0ePHnB0dIwzMSSM+DAQdvGYQEAgIBAQCBiAgCAIBoBm6CNv377FgwcP0KhRoyylQZDJZGjStCnWrF6N3Llzx8FDwn7RokWsMfH09EwEG/lpkNPmzFkzcffOXezZu4cjOchXQ65QwNnJyVCoxXMCAYGAQEAgkEYEvhqCQCGHT5884fBCOtl+idNpSgSBVPL0x/fjR+R0d091fMmZMlIycaRxryT7OBGEXbt34/69e5g8eTKbCGgcrq6umDV7Npo2aQJvb+94zwcEBLC/QY2aNeHq5oIXz1/wnM2kZrCytsK4cePw4P6DVHFIrzmJdgUCAgGBwNeOwFdBEEhYkQPcmjVrQJEGW7Zswd69+5AtWzaolMoMs3kzQXj4AA0bNOTxaJeoqCgMHjwYNWvVwvx583D9+nVYWFiwoNUkU9KQmpiYGJQuXRq379yBuZkZf08Cl5z9SJVvaWmZaF8zAQEgTZCoKWHFpBI6pUY6iCDMmTMHgwYN4pBOjZNhzpw5MX78BLRo0Zw1C0kliSpUuDB++mkUGjRoCA8PD7VDJ1RMFOIcPb/2X6mYv0BAICAQ+AIIZGqCoBH82kJNI5xIyGhs4pzDUKViwVWrdm1MnjIZH3192XP+6tWrGSaIyAfhwcOHaFC/Psj2rhGYFAI5fOQIVKpQEVOmTsHChYsw7pdfcOvWLd4StWvXxoEDB1j40lwjIiNw5swZttu/ev0atjY2mDt3LrLnyIEfhwzBu3fv4oQ014+I4Hbq1qsLEuaXLl6ClZVVIoFNKv+aNWrGEQ96JkYWw+YQW5vkoxA02g/6v7ZQz5UrF4YNG4627drwWuTIkSNeNEOMTIaGDRqgRIkSWLJkiU4E5gv8RkSXAgGBgEDgq0QgUxOE8PBwtG3XDgXy5+dTZ3R0DOcb4AiBWJU9Oc9RkUDCAog+b9qsKQoXLox//vkHvXr2Yk2CsQqZMiIiwmFlacUaAO3y8tVLPH70GFWrVYONtTV/RdoAmkOrli3RvXt31gRcv3Edz549R7++fbmNY8ePo2/fvgjw92di0bhxYwwaPAjDhw1ngT933jy2/1esWBEFChRAz149Ob+ChkANHDgQDRs1wuvXr+Hs7IRt27Zj//59sLO1ixseJWma8/sc1K1TF/Xr1+d2aSzrN2yAo6MD2rZpyxkflQolkwDKBkmFxuPm5oaPfh9hYf55vtR3kaJF0K9ff9y9ewdtWrfBwoULcer0KSYLtF5+fn7YsGEDdu3chcuXL8eN5UuYf4y1/qIdgYBAQCCQVRDI1ASBshHO+f13uLm64vjx45BIpbC0sIA5/TFXq6hJGGnH1dNpmhzq3N1z4KdRP+H27dtG1SCQoJ01exb279vPQo8EqUbgURKg8xfOo1q1anBydGIB7uXlhfnz56Nr165sdqA5HTl6BH///TdmzJjBTntkElm+fDmuXruG4OBPHAo4aeIkPH78GNt37MCypUvZwW/t2nX49ttvUbFCBc7gGBIagqlTprLmYezPYxEUGMSfW1hasipf22TRomULtGvXDlGRURg7dixrHRRKBXr26ImOnTph0cKFKFCwALy9c+Hdu7dYumQpJ3ai+W7fsR1//fUXDh44GC8CoWzZsvh97u+4d+8+Nm7YgMZNGmPyxMmcIIoK5YW4dOkiBgwYiMCAADWRS8UEklV+eGIeAgGBgEDA1BHI1ASBBCxpEUhQkcqc/k0neLoOSWNzV5sf1HZ8Enojho/gEzLZ+8lbPil7fVoWjTQWxYsVZ1PBjes3MHfeXISGhsLSwpI1G4cOH0LTJk25X/p827ZtWL9hPc6dPcdExtfXF/9e+RdDhgzB82fPecwTJkzgE/rmTZu5ztZt21C3Th1Wy79+8wZLly7lOx/27NkDC0sLPu0THmT3n79gPmrXqs1aEsKATvyaovk3aQBIU1C7di3WtZDJgsgVfU+EZfac2ahVqxZWrliJ58+fgzQhlC6axhIZGYm+/fqhUKFCmDRxYhzZome/rVIF48ePY7zz5cuHIT8MYfKhaTs6JhqHDh5iwkT+B+SHkVDrkpa1EM8KBAQCAgGBgOEIZGqCoC3oUroRUXNpEnnYk6Dq2LEjn6TTywmOxkICfeSIkejQsQOePX2GmTNn4u69e9i5cycWL1qEGzdvIm/evJg1eyaaNG6CbG7ZmLCsWrUKVapUQeXKldleT1qFvPnyYdDAgRj100/swEjahadPn+KXX35Bq1at1FEZUinOnT+LMaPH4OKFiyy8SZvQvkN7Nl1QOGFS8yWSQs6bh30O4+iRowyptmNk+Qrl8evUXxEZFYlmTZslyohI4yMi8tPon/Djjz/y/RNUQkJDMWH8eCYsUyZPQaHChfD99z/gl//9L06jQ88ePHgQ9RrUw+lTp1GpUiXkdM9p+G4WTwoEBAICAYGA0RDIEgQhNTTIL4Gy+Q0YOBDNmjWDo4NDhlyxTAIw6FMQC9afRo9mQR4TE83ZBf9Y9ger/vcf2M+ndBKkTg5OfI9D9Ro1UL9ePc5ESILe0sqSVfoNGjbEgwf3UbFCRSxespi1DidOnGASQep/0ijQd3Qa10Q+7Ny1EyHBIdizdy+bAQIDA+KEMBEB8ln49bff0KBBfeTIngOhYaEIDwtHDnd3jnjo2asXOxdWr14NJYqXYE2BdiHy5ezsjF+nTsX3P3zPfgjUrlwhx5kzZ7F/3z42lVStWhVt27XF+HHjWePDJOrjRx6Xl6cnfI74YMniJRkWUZLanhHfCwQEAgKBrx2Br4IgkCPgwkWL0KN7d86DkFF2bs1JnEwL5JRHRICEd1hoGJsY6Hs6mctkciiVCtjY2LIt/uatG2jcqAkLSxormQvIzr961WrUrFUTXbt05aiGWbNmYe++vRg+fAQmTpyAGzdusOOi9vzIROGdyxs/DvkRZcqW4e86tO8AmVyOqMhIDBsxDP4f/bFs2TIUKFgQixcvxosXzzF27M9saihfvjx69uwJZxcXDBw4ADHRMfGEOM2BtDFkhhjQf0CcyYb8GYaPHI4tm7Zg+owZ6N+vH2tMZs+eHafJoGfpMitaH3KY1BCHjFqfr/3HL+YvEBAICARSQsBoBCGpl3pKav+MXBYSzuR9TyW9zAopzUcbB/IBICc9iqrQFE3II2FI2o4mTRqzWYG0DEQO6DS+adMm5Mzpgdq1arGTYbu2bdl0oDFn+Bz2Qb/+/dg5khwaqS2q/+PQH/Hu7Vv8/PPPHD2xevVqjoj48OED/P38sHzFciZNdPInQkJOnzeuX4/zEyAisXPHDh4qaSB27NiR6JRPV1vPmzcPvXv1Zq0HOWNu3LQRTk7OsLa2wonjJ1C9RnXWEFy6dCnR84xJ7AVNSeV9yMi9IvoSCAgEBAICATUCRiEIGnW2rqBqHAgT1uckPhJt0Zlyixy2SGdzpfpv2iWlGwHj1WYnxlQKy/LPAj216praLOw0gk/jHKjtpU99a/6tNQ469ZuZm8HSUp2rQKlQwMbWhh0NX718xQ6PpHmws7Pj78m5j9opXrwY/D76ISAwEN5eXli9ZjVIeL968UptcoAK69atA5EJTsIEwNrKCrly50JISCgoTwPhSf2SRoNDQ1Uq7nfrtq24dfMWRo0aFafZ0JBCaqdu3bo4duwo+yB8+vSJo0oePnqE169f8VXW5F9x+PBhzpKoDnNUr11cYSjUTpSMmRYeSRFNbUKq+V6quUEzyQVKep/ospY61eGtK2Xc4qal35bRqZuMqETz0IQJp7W/5LRBGaIloj2vVOplTtRlXPq+79KKoXheIJBuCMTKH/qdJFWMQhDIts4n84QvRBWLb/3mpmd1/RqPrZ0RL+5k55HSBFMemCaPQzzhSPjGCtc4/FVqTQlpIYh0hUeEczhi8KdgjvJQa1HiC2e1uKYIkPhj4MgQpRJ58uZB586dObkUmQLiiE1s/xS9we2qwN8vWrwI/gH+2LdnHztVEmHjFMyxESUGrZv2Q0nAmBFbJ6Vx82/tSw8izcBq/UaSmYuxtIV6vxuMNbcU2kn1eCKJdeLV/E4SHB5UsXlXjD1UXYiLsfsU7QkEjEIQTMWUkDmWM/6Nh/GO0DpIl5ROLwm/S3jK5hN6bBiovlhR4iTyFSBNRsJbGxPKbcr9MG/eXDg6OmH06J/w/t17rsLjiT3V6du/qddX0ElVGUuS9MjnkN4vfkN/mwnHpTH9aNbB0HZNfR3F+AQCAoHPCBiFIAhAEyOQ3As0vQWCKawF+SGwecPWlnMg2NvZZ5hj6JeYP0WRkOmE8k9s3rw5zn8jjhR9iUGJPgUCAgGBQBoREAQhjQCKxxMjQKaG4yfUPgjt2rRF9uzZsyxBII0MOWKScyglkLp79x5mz5rFzpqiCAQEAgKBzIyAIAiZefVMdOxBQUE4eeok1q1dx5EPac1WmVC9bSrTpnFRlAklv5owcSKH0VLSqTt37mRotExq+BhiDvgaNF2mso/EOAQCpoqAIAimujKZeFwkkOimRrrvgR0a01AoIyP5gdnZ26Xo+5CGLgx+9FPwJ05z/ejRIyxetBj//vsvZ8DkzJYZdKcEmTcoQoSSWWl8UDKqb4OBEw8KBAQCmQIBQRAyxTJ9nYOkBFONGjfiDI+bt2w2KYJAkR3VqldnrQGl7m7ZqiV6dO+BHj17ws7WNsMIAiWpoiRX1atXR/78+b/OjSJmLRAQCKQLAoIgpAusolFjIEAJojp06ICyZcpi2LBhnNLZVAqFjZL5ZPr06bh//z7fptmtazcOKaVQufQ+xZOWhpJqUbKs5i2ao07tOnwnRnr3ayr4i3EIBAQC6Y+AIAjpj7HowUAE6JROF1e1bduW79FwdXExsCXjPkYhjQ0bNkD9evXRq1cvTJw0EW6ubnzrJp3oM6rQvRl0r8f06TPw8MEDQQ4yCnjRj0DgK0FAEISvZKEz4zTplFy2XFk+mffr3x9urq4mMQ3fj77Yvn07Vq5cCYVcwQSBLuQicpCRJ3hy/tyxcwdq1KjBt4Ea4oxoEoCKQQgEBAImiYAgCCa5LGJQhICaIJRDt25d+f4IEoKmUD74fsCVK1fQo0dPLFm8mG+rvHv3rkFDSy0CIblG6bkSJUpg0ODB6NmjB98MaqxCCRQzItmoscYr2hEICATSBwFBENIHV9GqERAgIViOCUI39OnbxyQIAl+oFRODw4cO4dr1a3jy+AnWrF0DaytrvbUHlJ2S/CxsrG2SRYt8GuhaCitLS74/Q1OiY6LRvVt3vidjwYIFHG6ZsNB9HVZW1pxuO2FJiZjQraOUBtlMasb3fSS814TGTThQvou0aEzIhEQlpXtTjLCNRBMCAYGAgQgIgmAgcOKx9EdAQxC6kgahT18WhqZQIiIj+FZKIgcdO3WCi7NzIkFJERjaN4cqlAoWuBqBShdsEfFp1rwZWrduDVeX+OYTmjuFL5IZo2r1avh16q84eeJE3PSDPgVh7dq12LhxI2sPNm7YyFeJa9p3cnbG+HHj0KNHD/6cilyhgK/vB+TyzgVbOzu+nMvJ0ZGfIYfH4JBgvnfj5ImTcHV1BWlK2rRpAydHp7gQyoCAAL5mPDIyEkuWLEFkVBRf+EVtUEgqpdm2MDePM3cQ0UiYmpvm5ufvh359++HZ8+e4c/t2moiGKewJMQaBQFZEQBCErLiqWWROJKwqVKzAYYSDBg5iofWlC2VOLFKkCFatXonvBn+Hu3fuJhJu4eHh6NevH44dP8Y3WRIZIEFLCZXIT4FO4HXr1cX333/PJGDv3r18Jbb2aZyiJChyI3ee3Dh06BAeP36MoMCguOn7fvyIkydP4OKFi2jVqhVOnT6FWTNnsYAnAVy1alWOcGjVuhU7UJLgdnR05Gu46apvunWTSMbgQYN5TAULFsSIkSOYbGzauAkrVqzAqVOnMHHSJLx4/pzHRqRn8pTJfHPnhvUb0LRZU8ybNx/nz5+HuZkZ5s+fj3Xr1+H6tet8pXnBAgXh5eWFM6fP8O2kmkK3fW7ZuhXR0VHw9PBkR1SKwBBFICAQMC0EBEEwrfUQo9FCQJ1roBoaNWyEkaNGwtFBfdqlkpxDHp2E6XQbd8OoERHV9Ll3/15c+ecKXN1cmSTQnRPawv3ly5dsfqAQSEqe9M0332DSpEkoWbIU8uTOjfwF8vO125MmTuLn6tarhxEjhsPOVn19N/WTL18+TJs2Dd17dIcsRhZ3G6ZmOlTv0OHDkMliMHfuPHTr2hV9+vSJy1pJbVasUIFv0ixQsCD+WLYMxUuUwO+//47mzZqBNAHHjh3DlKlT8eTxY+TJkwcbNm7A0ydP0a17N76VcsrUKaxNuHz5Mvf/6vVr3Lt3F3PmzMH+/QdQsmRJTJ40CS1atmBtydUrV1G1WlXY2tjyxV5TpkzBm7dvsWb16riEWfT50KFD4ebmxuSjUMGCeP78eYZmnjTilhBNCQSyNAKCIGTp5c3ckyOC0KhRIxQtWhSTJ0+Gja1t3ITkMhlkcjk705GwNLew4DsRfvppNArkz8/qdzIDkG3eGDZuGgu1Q1EDixYtxu5duzB37lw+mY8bP57V6lRoLHQyp5TLFOlw6uQp7Nq9C+fOnsMff/zBApyE6Pjx49GyZSu4uDhj4aKFqFOrDjw9PbmNwMBAzrFAp3iaQ1LZKPPlz4/169fxHRDLly/HipUrUKN6DXh7ezPBaNS4McaOGYMrV69g7u9zWQjv2bOHIy4eP3rM5oNDBw/xHB4+fMhmiB27dqJpkyYICQ5hH4QRw0fg3v17OHLkCPtBRISH83jq1avH/hBR0VHwOeyDWrVqwdbOFidOnOTniSwQBj4+R/hWTyIOmkIZNn18DqN16zZQKhRxmGXunSpGLxDImggIgpA11zVLzIpU2uocCAMQ4B/AV0Wrb8RWsSqd/kTLYhD86RN//+LlS7x+9YpJRc2aNfH27VuMGzcOr1+/ThNJIJOAl7cX/lj2B1atXo19e/eyoCcHwp9//hn58+XHjz/+GCfIKf3xmDFjcP36dVatD+g/AE2aNmENCI152PBhUCqUmDlrFmQxMTh9+jQLdHs7OxbuJHA7d+mCPr17MwFJWKhOy5Yt2SRAN0hGRUdj3bq1KF++AgoXKsRprrdu3QLSZAwcMBDuOXNCFh2DC5cuoEzpMnBxdYFMJsfhw4fQsUNHPu2XLFUKCxcuQOnSZZAje3bQHAYNGoT3799j3/59PN4xY8eAzCdLlyxlgkB19u3bhxo1a3Cq523btqFnz16IiY7mPv/88080atiQNSxUiND98r//ge7qoBTVSTlWZomNKyYhEMgiCAiCkEUWMitOgzMF9ujOqZYpIVCMLIazFFKxsLRkjQGp5enmxBzuOZAzZ07kzOmBXN7eyJU7F0cWXLl2FaNGjDRIGGmyFVaqXBm/Tp3KqvWzZ8/GEQH6/qOfH1auWIGrV6+yLwEVhUKJGjWrY+iPQ5E9R3Zs37adBSIJ1U/Bwdi/fx8mTpiIJ0+egO5zOHHiBAt6Ih10et93YD+GDPmB/Rc0jo50oidTA9UhXCZOnAgXV1cMHDgABQoUxKJFC9GokZpkzJw1EyVLlMS1a9dYU0HmFtIsTJs+De3atoO1jTU7CBJRmDx5CjsZklmhebPm6NKlC+NJwr9nz56giAYiAUQizp47hxo1qrMJgQr5DnTu3Bnde/RA48aN0aVzZ4wYMYKf/f6HH+Dk5Igpk6dwJASV8IgIjv6g+kQSaP0SOjBmxX0s5iQQyKwICIKQWVfuKxk3aRFIEGuH+GlPnZwGKYxPItVoF4A3b9+gf//+GPLDEIwePRq3b9/W28ZNQo5O+6PHjEaFChVYQ/Ap6BNkcgrxkyImJhoqpYqdETt07Ii+ffqwMKVCYyFh/tHvI6vnp06Zyip+Mj+Q+eDGrRssjCPCI1jw+vj4sOMfCXLqk8wL5Jip8XmgUEgiRg0bNoTPER+Eh4Vj565dWLRwIRMTioIgXw0iHdTnyZMncfDgIRQvVgx9+vaFo4MDE63cuXIzefDw8GSNA4VJhoaG8rg3bNyImzduYMXKlexwSBEPAwb0h99HPyY+ZF45fvI4qlerDmtrG4SFheLggYOYOnUq7ty9w2SCoiPIb4JIDzkmkhaF5q0pEZGR2L5tG/z8/XH+3DkmRiEhIcmu7VeyxcU0BQImi4AgCCa7NGJghiBAwm7Lli0s0Mhpj07g2uGGurRJQrtY8eJYuGABTpw8idE//cTaiRIlSzIZ8fX1ZYFIF0lduniJSYgmX4C28yTZ9ZcsXYLatevEpYmmkzY56TVo2JAdDNdvWI/79+5jzuw5fHIfP2E8Xjx/gdWrV6vt/FFRKF26NJb9sSzWpj+PdSjmFuaIiIiAs5Mz+0U0btSYNRukXZg9ezYkUim8vb34cxrbwoULcfjwYVy4eIGdEwcNGoyXL14wHEGfPuHixYvo2qULEwYqfn5+2LptK5b/uRy3bt3ii6DmzpuHenXrsnMmaXQo2mHTpk2s1Rjy4xAmRfPmz8PSpctQuVIljqSgvgkT+kPkhyIoyGxU+Ztv0KxZUzZjvHr5Kt65Dj5RAAAgAElEQVSyaDBMS44FXdZZ1BEICARSRsAoBIFy05NdmE45bCIWRSDwBRBQKORYs2Ytzp45i5UrV7BTo0ql5BO/roWEUps2rTFy5EgOPST/B2/vXJDLZRg3bjyKFinCJ+5Lly+x6YCSEVGiIzIBxC8StumXKlkKnTp14rh/Uqd/9/13iIiIxPI//4SZuTmKFS2KGzdvwN5efUX0xo0bOPzxzes3aNioIUaOGMkq+yFDhuDtu7es3ietCRcVULBgAfZfWDB/PpMGyoFIxINO9w6ODqhWtRo/TyaJOnXrwMrSipNOvX79BlKpBFKpGSdhIkJSq3YtDkskvMivg4T+unXrWaNAbR04cACPHz9Bnjy5MWH8BJw7dw6WVpbsz/DLuF/w9s1bvH3zBqN+GsVjbNyoEWNDWqCixYqhdu1a8PPzR2RkBAoUKIAWLVoyiSPSYCqF9ksqr0z+Wh1toq6rz/4ylXmKcQgEdEHAKASBbKF02lHFZkbTpeNMVSeJTHSZavxf0WBJnU72bdYaGLhutjY2cMvmhuBPwawuJyHKp2ClkoUdFXI+pMRHCQsJY7oGunfvXmwymDd3HpsB6ESvPvlbsGOi5nRM5JoEtca3ol79+mjfvj3XffnqFbZt3Yqnz55x/2ZSaSIaQmOi7+IiNcjSolKx6YKiJqZMmYqgoEBunzQapP0gM4nG9q99SueTOz//OdUyC8LYsFIiD0QmyPmTzAWcEAkqyGVyNrOUL1cOBQoWYO3KgAED2TeD8CKy4O3lhUqVKsHJyYnfFbRG586fYxNGwiiTpA4ZhIepHD6IGBB+GToeDSlM6rds4D7/il4LYqoGImAUgqBRHwqVoIGrIB4zGgKG3m2QcACGtENCmUwHQ4f+yCdjym7YsVNHREZGsdTV/D40uQ4S9kmfk0mBIheIaFDEAJEMbbNFcs8mNX5S75NjYMJUy5oUx8mCHidwVJ+lMvuGqq+xTpyDQl2PEjPt37+fhT9lWKToBXNKkKQCmxeILBA5obmRWYKcSJPCILkcF1Q3pe+MsYl0eYclXA/tfrXNIwyZRtmTINu1vvNIOC7tdUiuLV3mYgzMRBtZFwGjEISsC4+YmUAgdQQ0NnbvXN6ck6BN6zYoVboUn6I7duigd4poQ8hJ6qNM3xo0ZgoHJc0NaQSEcEpfvEXrAoGMQEAQhIxAWfSRpRFg4SiXccQC+Qzc+u8WZ0mkMMPjJ06wDV8UgYBAQCCQ2RAQBCGzrZgYr8khQLc79ujRHYULFebQPv8Af/z77xX8EHvXgjhNm9ySiQEJBAQCOiAgCIIOIIkqAoGUEKDQwsM+PmjRvDmkZmbInTsXZs6YyZcokQ+BKAIBgYBAIDMiIAhCZlw1MWaTQYDMC3QN9dJlSzlFsnsOdw4ppEuaDh48GHd5kskMWAxEICAQEAjoiIAgCDoCJaoJBJJDgK5IXr5iBapXqwa6pvnJsydo27otRySIIhAQCAgEMisCgiBk1pUT4zYZBChBEV1//O0332DM2LFwd8+Bn8f+LMwLJrNCYiACAYGAIQgIgmAIauIZgYAWApGRkejduzff2Ojs7IzWrVpzvL5wThTbRCAgEMjMCAiCkJlXT4zdZBCglMuUVvn1m9eIjIhM0/XSJjMpMRCBgEDgq0ZAEISvevnF5AUCAgGBgEBAIJA0AoIgiJ0hEBAICAQEAgIBgUAiBARBEJtCICAQEAgIBAQCAgFBEMQeEAgIBAQCAgGBgEAgdQSEBiF1jEQNgYBAQCAgEBAIfHUICILw1S25mLBAQCAgEBAICARSR0AQhNQxEjUEAgKBTIoA5aPQt4j8FfoiJupnVQQEQciqK5tF5pXcC168xLPIAotpCAQEAiaLgFEIgvZLXLy4TXatxcAEAiaFgETP0eivC9CzA1FdICAQiIeAUQiCwFQgkF4IfEkNgiHqaX1xyAhCndZ5ZMQY9cVN1/ppnbuu/Yh6AoGsiIBRCIK9vT2kZmYghq/vqSArgmqKczLl01dKe0aSzJcGmJZNcVmyzJi+LIkw7u5Obm8ltxezzCKKiQgEEiBgFIKgUCr4cholAKlWB+qXRuI3PH+axX9tShOTYMZ9hRr/d6QvsZRmwP7JiDU01XmY6rj03XkqFb2VdC8Sel/pubfSAyt6n2r/ZtOjD91RETW/VgSMQhA0arysLvS/1k3yJedNr8mIiAjY2thmKlIpl8vh5+cHWztbODk6fUkIRd8CAYGAQMAgBIxKEGgEgiQYtA7ioSQQIOIplUrx62+/4Yfvv4eLi0umwInIQZmyZTF1yhTcunULI0eO5Gugs0pRKpVxv3Pxe88qqyrmIRBIjIBRCIIAViCQXgi4ZXPDnr/2oE3bNgjwD0ivbozSLmvSJBK4urpg1cpV8Dnig4qVKqFDu/Zwc3MzSh/ajURHR4OumXZ2yhjyQSpvc3MzyGJkan8jiQSk+lYoFDAzMzP6/ESDAgGBwJdFQBCEL4u/6D0FBEjg5suXD9NnTEfjxk3gauIaBBpvQEAAfI76YM6sOShcpAiyZ8uG2bNnw8HBwahrTX3lyZMH/Qf0x6iRo2BnZ2fU9pNqjPqkuSxatAgvXryAubk5YmQxaNSoEQ7sP2D0Oab7hEQHAgGBQIoICIIgNojJIkACqWDBgqyi79ChA3LkyGGyY6WByWQy9B8wAHnz5kH//gOwb99e/PHHH7hz+47RTW9yhQLNmjVDpUoVMXHCRFhaWqY7NmFhYTh2/Bi6de2G8PBwnhNpMU6dOoWBAwfizZs36T6GlDpgx75Ys9QXHYjoXCCQRRAQBCGLLGRWnAY5KJYvVx5dOndBv/790kVNb0zcwiMicPHSRdSrUxdkGlmzZg2aNG4Ca2troxOEwKBArF+/Hj6HfXD06FGjt58QFxK8r1+/xoOHD1G/Xr24/jQEoWvXrvj06ZMx4dS7LRojYR0ZFcWmD1EEAgKBtCEgCELa8BNPpyMCZNuuV68eqlSpgkmTJvHL31QLCcoxY8cgJkaGWbNmYtLESXj58iW2btsGSwsLowtwiuw4cuQIatasiWzZsqU7LOR4Wa1aNfTu3Rt9+vSJ01iQw+Jhn8P4pvI3cHd3T/dxJNcBaW+++/57eHl6Ytz48Yy5voXaIFwdHR2Nvl76jkXUFwiYAgKCIJjCKogxJIkAEYSmzZohT+7cWLJkSYao0Q1ZCjq5krPgpUuXUKtmLfgH+OPKlSvo2aMnn6ppHqSed3IyXrhjkSJFMHToULRp0waenp6GDFuvZ6KiorBy1UqsW7sO//zzD0eXUClUuBCWLluKkiVKwsvT64sJ1sjISOzcuZNNOufOnYOFngSBCBD5u1DETI/u3YXTpV67Q1TOqggIgpBVVzYLzIsEa6vWrZE9e3asWrUKZrFCydSmRrZ4chicNn06mjZpgukzZiAkJBhzZs9hxz0XVxf8+uuv6NmzF5wcHdM8/OiYaIz+aTR8fX2xZcuWDBFm5HNw4eIF1hTQCZuiNYKCgjBh/HiULV8OnTt24rlqhz2SdoFO5eQfkd7hkGTeOXnyJBo0qA9rK/1NOjRO0lT17dcPA/r315tgpHlRRQMCARNEQBAEE1wUMSQ1AnSqI+dEB0cHbNy4ESqlaeaDDA0Lw7hxv+DVq9c4e/YM1q1bh9atWoMyMZIl3M7ejgV5uXLlkDtX7kTLSxoIfQRoQGAA9u/bjwkTJ+L1q1fxntW3LV32Ggl6ilggU0LFChVhaWWJqlWqcgRFmTJl0LJFSwQHB/M4NPOguZNmo3u3bpg6dSpsbW25K5lcBgtz/dX/KY2TcZYAx44ew7dVqsQjYUQyFUolk0vSeiSHc0xMDAZ/9x1sbW0wf958QRB02RiiTpZHQBCELL/EmXeCdKrr1r0brCytsHnLZigVSafNJaEYGhrKL3UbG5sMnzCZEfbs2cOC8Pe5v7P/wc2bN1moMtFRyDnJU2BAYDzBQ2p7Sysr2NnZIjAwCDYJfCzoe4pWoM+1hRsRhLNnz6JRo8aws7XlUzphQCd1woGyN5pJjZOXQINtx04d0aFDR/x9+TKq16iByMgInD93Hi1atOBoCs1cNfhHRUdjwIAB6N+vHzp06gg/348ICw9Hz549sHXL1jhzkdo8E4WY6GjWhFC4psZ8QdiRb4fG+VB7YUnwk78AzZmeq1S5MgYPGsQ+ElZWVurU70olGjZqBC8vT7x+/QZHjxxh/JMiCURGly1bhpUrV+LGjRtx88nwzSQ6FAiYEAKCIJjQYoihxEeABCSdUuUyOXbs2MEv/KQKCcj58+fj7r27+GPZH7CxtQHn1M+g8ik4GEd8fNj34MGDB5g9a3bciTm5IdDcOnbsiG7du7Mwmz9vHi5fvhwnHOlE/uOPP6JWrVqYO28u7ty5A6lEfQJ2z+mO8ePGo0ePHiwM69Spg9FjyEGShKw5+vbtg5DgEL20Eppxam4ACA8L5zkUKFgAjRs3RvPmzfH+/XsmJj4+Prh79x5nt/zu++84pTQRkg0bNmD//v3cLwlcIg99+vTGggULOdJi7Nix3N7gQYOZCGi0HT/88AOq16iOmOgYdOnSJU6I06m+U6dOkEil2LxpUxz5o33g4emJUaNG4uTJU9i0cSPmzpuHq1ev4MiRo6wtIDMMRXlQ6CU5i5LGw8bWlv0LNASE5kp7iwiGUqXE0SNH8c2333C0TEbunwzapqIbgYDeCAiCoDdk4oGMQICEB50QSUj6+/vj4KGDUMgV3HXCEyAJ26VLl/LLfcXyFXwKJMGZEYXGGRIagpMnTrJPQPfu3UG3m2rGSEIoKWFDDnFzfp+D9u3as02fHADr1a3HEQkkGOkkTFkYw0JDUbtObfz22zQcO3qUher3P3yPyIhILF++nP0bNqzfwJoWiUSKHdu3c0joR9+PBhEEEr72Dg7o1rUr6tarx9hfu3YVnTp2Qvny5Vl4WlhawtrKCrt27cK8efOYvDm7OOPQoUNo1bIVj5EKrd+ECRPw4uVLWFiYc0RKh/Yd4tJOE0Z0an/w8AGOHz/BJKlu3bp8eqc17dy5M/oP7I8A/0C0adOa77Qgc4JcLsPu3buxbt169OrZE2N/HosF8xcwISENQURkJGZMn473H95jyZKlXKdtu7bYtGkTm2aIINAYqZ+y5cri3dt3TOz+/vtvFC9RHLm8c2XE1hF9CARMHgFBEEx+ib7OAWpU26PHjOYX+q6du/iELpPJIY9VqdPn9JInQUMnbgqFbNW6FYYPG45r167xd9rqamMjSf2S9qJ5i+agcc77fR727t0bz4xAAs3RwYEd+jSe9WQGIEJgaWGJbt26sXMfEaBixYqhSOEifFImk0qb1m0wePBgdOrciU/xcrkCIcHB2LR5ExYuXMRzbN26FQYOGIh3797Bw9ODCRIJakMSJ6nJTiguXrjAAnjtunUICgpkgblm7RrUqlWbTSXhYWGsLcjhngMtW7Zkp8DQsFCcP38BDRo0iAsxJPNAk6ZNMXTojwgMDGTy4MqncyA4JBgzZsyEp6cHayCKFS2GSZMn4f69+7xmhQsX5gyamzdtxqifRmHN6jXs20F4//y//3HGygUL5qN37z5MPHLnyoVvv/2Wk2kRMTl24hhGDBuBadOm4fad25g8eTLjTZ2TJoYIyLr16xEUGIjCRQpjyJAhWLpkKZsk7DMgK6Wx96JoTyCQHggIgpAeqIo2jYIACZWZM2eidOnSIJt29uzZ+HT+9s1bfunfvXsXz549x6uXL1moFC1aFCNHjYSnlyefCkl4REdFGXSS1mUCJKzq16+PocOHYviwEVizZjWqV6/O2gsSQiRwyYzQpEkTNGveHO6xmSDfvH2D+/cf4NLFixgxcgQc7B3w119/8Txz587NoXp79u7Btm3b2TmT7POUTZKIAxGhU6dPoUf3Hvjw4QPWb1iPx48e49z5c1y/SOHCPHQam4Y86TIXTR06df936z80b9GC+yVbP53MK1asiAkTJ8DczBzRMTG4fOkSVq9ejT+XL2c/CPqMNBztO7TnuxqoUOghCdxhw4aiQoWKyJsnD68F4UJak61bt7IJgLIzzps7jyNB6PugT59w+NAhzJ07F2/fvcWu3bvx08hRfMJ/+eoV7ty9jU4dOnHoKK356jWr+bs+vfuwdqJDx44oWrQIJoyfwBoZImdEmEg7QsSEnCTHjR/HhO1///uFoxZ69OyJ58+f4Yfvf8gw7ZM+6yLqCgS+BAKCIHwJ1EWfOiFAL3QSiqQyJmFF6m5yaKtXty57zxcrXpzvOrCytmIb+KfgT7h69RonEJo1cyaTCFIxkzrcmIWEGJ1S27Zrh359+7IqnMwCefPmxdp1a1G3Tl0WdCTAl69Yzrbtixcv8mc0pw4dO7DAHz16NM6eOQszczPs2rUbFSpU4AyAt+/cQf369dC1S1c2sVSsVBF2dvZsW793/z6ePn3KPgEqpRKHDh9Cjeo14t10GRUdhe+//569+in7oa4REuwwGBmJ4SNGYMXy5SzICXNSzZM9n26mJN+C4cOHoWPnTmjWtBmCgj5xPcKgdKlSrMXROAgWLVaUNRqPnzxG27bt4u7SoDY0yZb++ONPSM0kTDyoENEjQlK+QgWQb0KXzp3Ro2cPNKjfADndc7LDJ61vg4YNYGNtw6SCNCqUmyFf3nyswZgxYwYOHDyI69evwyJWw8R5KJydcOz4cXTq0BGr16xB82bN2GRRsGABJmLkx0KaKnHxlDF/LaKtzIyAIAiZefW+grEnFbZHQlaTd5+EjcaMQIKQ1PeUM0GuVGDMT6PTxRs9OCQEAwcMYHNG37592R/AzNwc4eFhaN6sOd/H0L59eyYIW7ZsZjX5f//9p14tCdiJkfwlOnbshA/v33MY3oEDB1CqZEk+vd67dw++H315XqS+r1qtKjxyerCgJ1v5o0eP0LRpUw6fJOFdu1ZtzhVBhfCgU/WMmTM4iRIRJ10JgmY7ka8HkRYqRHwOHDyAhg0bws7WDq/fvMaVK1eZpHz/3XdwcHSETBaDQwcP8Zg0UQIkkFeuWsVRD23atkX58uVQqGAhHgvlVFizdi0WL16E+/cecIgifU7RIBRCuWzpMo4kcHJ2Rrt2bbF3z14W3qQRIeG9Z+9e1KpVk/dA5UqVsW79OjZhUGgpaU4ogRRpIZYtXcoakHz582HixEnIlzcvk44SJUqgdp06XI8cMckfZMOG9RzCqe0/8hX8vMQUBQIpIiAIgtggWQaBkJAQLFm6hMMJp/46lbUPxvZG9w8IwG+//sqXSJHdmshKnFe8SoXHjx/jytUrGDv2ZxaOW7ZuxYb163H79u04IUgCl9z46BpoCnP09vLiSAVyUnR1dYOHR05eEzI30DwoIyMJQCokXKdMmYI5v/8OKytLbNywETVq1ICHhwdo/qVLl2HbvMZRMS0+GCRca9euzQKeiJCzkxPP79nzZ5z7gLQNHGnQuTNqVK/OWgtNvgOy8Y8aNYqFL2lWypUvhwL5C8TNYfOWLWySOX3qdJx5iOpTrgUymdD46f8UwaBUKtgJ1dLSCn4fP7JTZLbs2aFSKdl0cOH8BTZFEZakZaGslmvWrEVOd3cmTEQa1q5dy8TCwd4eI0aMwLNnzzgNNoWQEmGg5+vVrwdbG9t09Vv5kj82JtVqjqo3aUxp3BoSnx45OL4kXqJvIEMJgsa7WQO8vicbsWACAQ0C2nuJXnh06qVY/Zq1anFonaNjbFpjdqg3LMGS5ikmGRK1Vz5ddSyTy/HTqFEco08CmEgCefeTnZ6iDyhPwdgxY2M1CFuYJNy8cYNfzKTy//vKP6x637//AJtOVq1ehX379uPM6dNxNnp6lc+ZM4c1CmQXJ7s5nbQpQIDs6GTDJwFNPggPHjzEw4cP8M0337Cz3/Bhw/Dq9evUbekpYENCtWq1ahg0eBCWLFqM6zducv9ECMgRMDAggE/zVlbW2LptC9q1badGmW9UVGMeERWFObNn85pQhsmoyEjOwEj5LHLl8sZv06exgCfNQIC/P3Zs34H9Bw4wySCyY2tjw8Ri+vTprBlq0rgp40zhnESeFEoF3r17z1ENpN1g4acCmw3IV8PVzZUdJskJknJDWJiZQyWRsEamX99+bP7x++jHZopffvkF4RHhqFGtOrJlU2tjEu6buP0QexGUZg9q9kd6/joTvju1+0ruPUo40GLQ93R5WPZs2Rlv2re0PyIjIlIkCmwqUikZBm0tHY9FAibglKOEiCQRV/odZNZ3ekr4pue6mnrbRiEIdImO1Ew7MQttzMSvZVYlxsanx/24Ety6xpvaBEvGRdWb4ORNcEiJdolKxfkB3r59C/NYYao+Kxmn0Mtv4YIFLJgp8oBU1PXq1WUbPQll8u5//uI5+xucOXsWVpS0KCwMvXv1wj///svOeDQaOln37tMHO3fu4Bh8Ch3s178/JxAiZ0X2spdK2UGvUOHC+O3X39ghEFIJpJDEozrkg2BtY82hkhRm+Ob1Gz5dUxginaQTCrRESMSeKJNCSKGQo8q3VZgM7Ni5kwUsnxDVMidWEKjYJFCxYiWcPXMG5rFJiLRRp3fDH3/+wdoFIliaolRSDgIZcnrkRHh4BIeIUrRH/PeIOlES+ZlQBsaI8AhIpMSSPotv7b7i9oSaz30uzBzoExKWUoSGhKBt27aoVLkSXJxduE1KpLR1yxZ88P0Q+45K2Iia/KhpQ+LQVX0Fo1HfclrvTGqX/C7IVEJ/yORDd4DQnzghKAELdXJGpegTRitW6NP7meqRNsbJyREODo4wNzdjMxoRLfodZM+RnU1erC2KZa20Tk+ePAFp2MiPJrn5GfKLTBGrpOSFuMnTOC892hlVv6ma5r1KTmLxVLmUcjXB79NoIzZyQ9qT13XzGvKMLsPObO3qMidTqWOIWlWbrJLAHfLjEPaI/33O7/jfL/9jYfPyxQs8fPiQY/kpcoEEtvbuJ8FGJ2QSiNpXELOjY2QEJk6ciL92/8Uqb03uhw0bN3LCoTatW3M/Af4BLJR0KfyCT1RX1539uQftsWpU07r0n7AOkRg66RM25hbmGhmrFrRGPgwknGVKiJEMIYJG2R3p7/b2Dqne9fFZo/SZoKgJw+eS0hg03+m/GoB2irCEz6upj4rDOL28vDjFNZG11AppgcjxlEiZug0wsc2VOzebrEhDxGvERFJ94iOCwJ8nsx/v3L6DwKAgg6i5SmtiRERTKtp1qZ4+9ZOqq9uvK/l1Tg3rzPq9UQhCZp187HHg61v1VBYss5C7jNx39KIk9bom9wKp4EnI079TyvGf4ksOwLt3b5HNLRubA6hNitsnoTVm9GicOXuGbf36XHOtCSNMKzbxTDjpfCJLiijoeyJPbr7JkRANTgnxMla/acVf1+c1go38LSiPhj7jJ5PKpYuXmMCSwHd2cubooOSjOJSwsZYhMoq0xeqok4SFCMTZc+fitC26zkPUM00EBEEwzXURo/rKECCVLwkzSklMCX+6du2KGjVrsP8BmS9EEQgkRID2C5kQSKjzDZt6FnJ8vXr1KhME8sMgx1tNdJA20SASooQKxQrnQOMq/vhjUzjkSnWq7ISFzDVnzpxJ9t4UPYcoqn9hBARB+MILILoXCBACFOq4a+dOTuBDal9yhiR/huPHj4ubBcUWSYQACWd7B3uUL1c+mVBedrygzBIs3j///3NTFKpKESnkQ+Pt7Z0syioJ+W6YYVh3S9hJH+H39Q6QKd2gkiR9N8r9Bw84s6e2mSq1JdTkziCnSPVtnzRuTUm6n9TajP+9dntJPWmMPvQbUWaoLQhCZlglMcYsjQC9HG3t7LBv315UqliJk0FdvHiBwxspUkEUgYA2AiREc2TPweGZSYexygCVAvZ2CjjYkB+hEqHhcoSG2wFSEr7qa7n//ucfzu5JESEphcPS/vymrASlcr+CpYUEy/9yhBKxUUIJlobqUjIrCj1Nrmg0D+Tjo3ZoVCFP7jzsO0Hjev/hA54/e6E1JiG8v9QvQBCEL4W86FcgEIsApZH+eexYDhX7888/OXfAr7/9hvbt2rGnuD52ZQFq1kaAbPxe3l6cdCqRr4AqGgXzuaJ4ASCnK10VHoyYyGgoFQrYu9jj5LkIPH7vAinUEWcUCkrRDakVK0sJenW0w4uHT2Au+YAj/xSGQmKboiPi+Qvn2QlUY7JQKVWc2MvF1RU2NtbsUBl3PbmtLUfLaJc7d+/i1ZvXsLIwh4WFFUdkUJgsRQGJ30NqK2a87wVBMB6WoiWBgN4IaE5TdBcDpRf28vLkKInjJ47jiM+R1HMZ6N2jeCCzIkDkwDtXLhQqVJCjQqiwf4BKgSJ5LVGtojncHd/j6PkwvPsgRVC4BfsKKFWAd04LNKoWjNV7nCCF7qnH6ZRfvJgbSnpeg4NzUZw+fRAvguoCsSQjSSwlwOVLlzms1cramrUURADIT4ISX3EoC+VXiJ2DdhsUnaBQABVLWeDSmR1486kI8uUtxGY2+q1QtA/dDqqP+SKzrrcpjFsQBFNYBTGGrxoBUu/S7YlEENzd3fmuAbqlUcfIxq8au69l8iQcSQVPabQ5H0XspVdmZirUqGiDfB5ROPP3f2jbOC8WblRBpnTmvBkSdiRUwcYG6N8hCgvXR0MiddYZNgnk6NbGFX9fvoImDYtizab/EK4sGevfkHwzlBCMevb08EjkI2FuHoPCeYB7T8l0YB2vESWnn7BA3zbROHT4DHyja0Oiiu8/cPHSRURHRQtNgs6raHhFQRAMx048KRAwCgKUhGjD+g2oVbs2tm/bhiNHj2D37r84Jl0UgQD5HLi5unG0QkL1ukdOOzSt8hTb9vhDYVMY3Rr5Yu1+N6iUtnH8kgS1jY0U/duFYPHGGEgkrjqBSi6O3l62qFP+FR48VSC7YxAO/F0AUqSeY0HTgYbMxP0bKhQt5ojaJZ9h5U4JlMiWYCwqlCyaEwXcr+PgaRXkZl6QqNTJmxuaomcAACAASURBVDRzv/Xff5x5U5gadFrGNFUSBCFN8ImHBQJpR4BefnT74Pbt2/n66C5dOvMlTaIIBDTRCuS8SpqmhKGFbq4WaFvbFyt2haJ0xSrIrjiC0zcKQCW1iwOPCEJ2NyVa1/LDqj12gMpeJ2DJb6BFQ0f4vzqHYqWr4PCR8/gY/i1UKoVOzydVSSJRoVQZN7hbXsapf7ygkMQfi1ymxA9dHXDwxHm8+VQWEhXlaFDG5hBVO1devHSJr3EXJf0REAQh/TEWPQgEUkSAsi12794dJUuW4hsSXV1dxelI7BlGgBwR6Y4NSqSVVFGqYtC8vhOOnn2E7m0b4/jhnXgXWhiQfE5kRH4E1Stnh2XMZZy6lVdHDYAU9rZAhxbW2HfgFpo3LYN1O59DKnFP08pQREX39jlw9vQRvPErC6XEPM7ZkTQW2bOZo3nV11i33wIKlQPsbGIQE6NCtMoRUr6HJARXr1zJshdqpQncdHhYEIR0AFU0KRDQFwFyQKMXOaV0FqpTfdHLmvUpRXXxYsXZ9yClolJGwtLaHD/28MaSFecRY1YkLgE0JTiiKITebT2xdddJhMkLcxSDIu7+BbqMSX1HxecbLOjMbo4KxWzg5XIPPpdsIZOYwUxlD4XEAtLYC7k+71NNzoXU10EpMcOPXRRYt+M/RMhLx90uSWYUZYwSfXqWwpsH26C0Lou8uR1gZeGH3Qffwy80HxRyGc6dPcediN9I6lgbo4YgCMZAUbQhEBAICASMjICdnR0qVaqUijAkRz/yUXBAx3ofsGK3DAqltl1fhTyeFqhd6S3W7yOfFrXzolIZhcoVsqOAlwqv3n7EpesxUEnUzosyeRRkylD0bZcfjx+dx8ewgpDLzfHB1wJylQWkkmhUKuuMt2/e4r0/mQjIJyH12wyIhFSr5ABLxRWcupYbKtC9JYBKaoY61fOgiNcz2FuH4PWbKLx6F4o372LgF+oGudwFMpjjxrXrHJopyIGRN1oKzQmCkHFYi54EAgIBgYBOCHB4YfHi8MiZM9X6EpUS9WrYISb4Ii7dLgeFhC7FUvsJmJsr0aONO06c9MHbgPJQkKZApUSHJg6IjnyKqGgbeGQPw8Z9gELqgaqlHVC8YBiklio4WQfgvT8QLrPDh7dR+Pe2NRQqM/Rs5whryVv4fgjA/vN5ATO6rC/lQkKdrvke0tsWW3dcQWBUic8aC4kCHjnM0bJmOK5ev4UbT0pDSWGUEiI06ggGyn9w4cIFg+89SRVEUSFJBARBEBtDICAQEAiYGAJyuRzVqleDrY1topFpe/STYDYzM0fvDtbYsnkXYqSNoJDQbYtKKFRKVK3gCE/XV9hzXAWV1BVQydGsfi6Yx/yN0GhH5Pewgs+5t3gfmAcyhQWG9rHCsaPn4JG/OqTRd3HmOj1jozZLKKXo1KIE/D4chbWNF8KD7uP83WJQSm3Y7ODqBASFyKBSaaJvPt9/SX9zz2aNJlVeYPNBK8hVn+8XoVTO9lZAn/YqrNp8G9Eoy7kd6IJzKoTFzVs3ERIcIrQHGbxPBUHIYMBFdwIBgYBAIDUEyCZfs2bN2HsJUqitksArJ1D/m0Bs3CuDUvo5I2FuT1s0qPIJO/bdQbCiAklaVC6XHXUrPENIhAJv38lw4UoYgqLzASryS1ChYTWKEniC9q0q4NLlS3jiWwwSmEEiVaBSKVcU8riFHUfMkc/bHdXLyHD6RiCevPWGtZkCg7s5Y/n6m4iReEOlMoPULDZ/gUot6rt1KIYLJ7fgRWBJqLRCJen65VpV3GGhOIdT1/NBpTKHREGJlMwQLVfgzt07fOV5SumgU8NTfG8YAoIgGIabeEogIBAQCKQbAqSOr16jeqqZNIlItG/qhmf3L+P280KsPVBAgRyuUrSvb4bjZx/g+Ucvtvc72AK92ljj0ZNHePBUgje+NqxVUAtr0kVIAFUY7GzN0a2lFJt2fkCk0pudZ7O5qdC5qTnWbf0HUYrK8PJQoWNDBbYduo9X/iVQolA2lM13G3uO2qJYybyQxzzE3cd0w6QtXxXlYC9Bvw7A0nWvEKPy4sBFjVukjZUCvdraY/X227CyLoC2Da2x89B7hITb4s7d+wgMCqSUT0J7kG67LfmGBUH4AqCLLgUCAgGBQEoIUARDqZKlOLNmSiW7myVa1g7Bxp2vES3NB4nKDJ7uUjSr54xL50/g/hu6N8EGUErRpVkOPHlwANeflYVcYg0zpQoqiVqVr+LUySSEgTIl7JHX6W/su5AbkNjxZx1buuD2VR/celsB1lCgWwcPmMn/wfp9TlBJ3NGxeWGcObML7wOLoX/nIvjw7i8cvkjhlo5QKVSoX8MF4SH7cen2N+zUmDeXLT76BiMi2gwFctugcrFHOHEpG9q2KoXrl3fi6vMiuHn9IQKD1E6JCRMuJYeJdr1ESZpir6cWTo66//YEQdAdK1FTICAQEAhkCAIk3MzNzVG5cmXWIiQl1MgRsUvLHHj28BSuPijJoYjFC9uhYZVI7D1wDS+DinEqYzqpS83NMbxnDBatOAuFZXVIlBJYWChQo7IbIiICcfG6HBKJLSjctkOzXHh4ey/uvCnFz3vktEfTKs+warcCcmkOdGniifyed3D+wktcflwaNpZW6NPOEqvX34bExoMTHW3ccx8fQwtDCQvYWkrRo601Nmw4gEiLhvDOqUTrOkps2PMOYZHZ0aV1bsSEnIanZ0EcO3Edz31L4r97z/Hu/QdIpMm7P2qSRgmBn35bMksQhITZxQyFS2w0Q5ETzwkEBALpgoAEyJs3L7w8vZgoaL/rnBwt0KCmNfYdfIhIRQ40r+eKfB4fsHnXR4TFeHOuAxawfJeBObq3s0d2+wCER5izs6KVrQS3b73HhZtSyDkBkgTRMWEY1ssLOw9eRWBIIShUcjSslR9B787gn0ce6NjUC1LFJXjmdMfG3e/wKao47O3N0bVJMP466IduHQrjU+BDbNjvBIU0O1SQIKerAs1qxWDdtmAUKpwdTaubYfvBu3j/qTBf+lSvmiuszV/i7N/+iIj2wosX7/D02TNKdpAukCaUF+K9n84mhoQRsBrAVXRjV7wSf8GpHsfB0p/YS0UM2xHJb6S4xafkHjo1/jnpR8Jnk9tIxiIoOg1PVBIICAS+KAL8HtD5fZLWoar48kOplE78lqjy7bcwN1df16yCAmbSCJhZ2KNNAxdEh/+HE+eiEarMDyk5+nEdzftMCok0DC52YbCwkEOpVCAiQooImRNUnHpZXdvewQota37C9kO+UCA3lAoZmtfPg+w292FunQN+AY/x+LkryhRRYe+xMERJPGFpoUSP1hTpEIyX7z7BVvoJe856AHQplEQCTzc52jWQw9ffHs4uQTh49A18g/OoTR80N4kMUlUU5Ep7BAUF4ubNm5y4iZI8pVQ+yxnd3uwJ22Kvi1gSklwLiWWYdivx5Q7dMKndTkpEJCWZoX1T5WfZmDQSCWWSfnI0abmp3aZRNAjWNtaQStWbVp+ScHiGLHNqHJPbNAHbky5z08xFl7r64JzV6zJuWhshdrkTTTupA0lydbM6ZmJ+aUBApWKPenLey6ii2d4VK1aErZ36ng6FQgVvD2vUrSLD3f9u4r8X7pArPFjQs91ea3BxPw8eM0UIkBaBPk18r4KFWRRkCkrtTJoHysQog7vTK8hlcvh+yoZqFYtzmOTp/9yghCP/9CyklGgpBmVLFIGdag/O3S4JJWx5HJYSBVzsX8LJQYa3H5wRpszGvhLcvdZPNyQ4mMlBXEn4w04Atva7nwVjkhoHulo69kGt7zUH09TWLyX5km6rr72v0kmLktq8Nd8bhSAkAiqpCerwYzJE1ZPq6V0DsA796wpawnoRkZGIiAiHmdQM0TExyJYtG8zNKNFHAo2JTvnGDB2F6TyXGmkzxkiTY+cp7Yek2bYxRiPaEAhkDAIFCxVC7lx5YGYWjW/LWKNwvhicufgMz995QCJ1UJ+FKG4wDYW0DurfsJYYJY0JaXxVlM/ACsULhODcv+FQgG6GVGuClSqgRLEcqF32KVb9JUVMjB0ioyLx7NlzvH/3FsWKFYOXl3eSI1Molbhw/jzkCgX4JG7o+1pb8sdqeuJ1GPtO5mqG9pEGbDPbo0YhCJlt0sYaLzn0SKRS9O/XD3Xq1uGY5U/BnzBnzhzcv/8AFuafL0wxVp9ZpZ3M6GBkZW2FqMgoEW6VVTZhJpwH/W6qVKmC+nULwc36Ds5efoeQqEIcqqhSqaMQdEl7bOjUo6KjEBIUjKDANyhctCQkUvUlUtStXKnCwwd3EB76Gi7Z8kAWI8VHPz/IZDGQSqR8p0TRokWT7No/wJ+1B3TIEsV0EBAEwcC1IHLg4uKC+fPn4+69u5g3dx5Ik1C2TBn8Pvd3tG/XHtHR0Qa2nrUfi4mJgaOjI+OjoBODNDahiolOm8aYPXt2LPtjGZo1bQYHBwcTHakY1teAAB1KChbwgrOjLaTmTqypjI6K5nsKvL29OfrBmIVISWhoKB4/eYJPQUFxIYcUgpk/f37uj75/+OghoiKj2X+AIiziwgwlah2DhYUFqlWrlohg0/vg8uXLHEEhimkhIAiCnutBm57UYe45cmDlqpWYM3sOjh07xkKDbJLv3r3D9evX0LFDR84fLkp8BChtarfu3dGtRzeEfgpBnbp14eGRM1ZJaZpohYeHY+eunQgNCcWQIUOEBsE0l+mrGRW9gzR/1PoCFZ/QicjWr1/faISb+giPCMeD+w9YM0p9JHQMpHwN6jwFiLuJVK25V5s5Epr1KGyTLqHSFBrzrVu38OnTJ/G7MsEdLAiCnotCP5qwsDCcPnMa48eNx9WrV2FpaQm5Qg5/f3+cOH6CCcPy5cthY2OjZ+tZuzq9DJq3aI4+vfvwSeL8hfMYOHAg51g3RqH2zcj3w0iF1ppONXny5sG27dsw5qcxuHjpUqoX0xipe9GMQEBnBEgc01XhtWrV0vmZlCpGRETg7t27CA4JNqran35PBQoWgJtbNpBT4tNnT9n50RD/M6NMVDSSIgKCIOixQUhz4Ov7AWfOnsXSxUtw6vQpmJtbIDAgAF27dcPIUSOwdPFS7N69O9UUqXp0a3DV0LBQONibhjqchLermxu2b9uG+g3qs0q0SZMmOHr0qFGIFGlrxk+YgMmTJ8HejsK2jFNIbbt23VoUKVIUhQoWRMGCBY3TsGhFIGBEBIjMurm5oUyZMmlqNSIyAv/d+g+kNSMmTFoDYxaN75Em6kA7pM+Y/Yi2jIOAIAh64EgeubNmzWZCMG36NLb5de7UGYO/G4zAwCAMGjSQVeWkUfiShX58dFHK9OnT8d1338HJ0emLMnQyvcRER+P06dNMDuilQ34HZG4gu6QxCvkzXLh0AaVLlUGObNl0zHmRes/ZsmfD7l27cfbcOfzyv/8Z3b6b+ghEDYFA6gjQb97a2hpVq1ZNvXKCGnR6p3fZ/fv3QZoDdRRDRsQi6T1U8UAGIyAIgo6AM0PP5oaVK1eyenzM6DGoW7cu/Pz9sHjRYjx69CjZlKg6dmG0ajTWpk2bYuCggahbpy47BPJ97Eql0eyTug5Wo6Yn3Pbt24e9e/cyKTCmYyLNiwQ5+QmklSBoTEiksiXSMW3ab2jdujX69OmDx48eC4Kg68KLehmOAPkD1KldR2czG2n1AgIC8PLlSzabfon3Q4aDJDrUCwFBEHSEi5j1zFmzcPHCBfz1119o2aol7t65i1evXjExMKbtW8chJVuNTuajx4zGo4eP4gQy/fhLly6Na9evwyoDNRwUFtW1S1e+ma537z5wdnIyKjkgEGQyGbp174bWbdqgaZMmcHZyNhhC8iPZtm0bnJzUWpdcuXNBLlfgzevXqFe/Pry9vAxuWzwoEEhPBIjcurq6omTJkskSWbXjYQQ+fHgP3w++cZFWwgcgPVcm87YtCIKOaxcWHob58+YjJCQEGzdtZK9bhVzBkQpEDkxJLUeRFEeOHMGMGTNYs6HRHly4eAENGzZERHiE0YV0UjASKaGwq/kL5qMphQfa2+t8K5uOy8LVKMRq85bN+PXXX/H61es0zY2uzyWnKXIw7d69O/oN6M/OqHv37oGLs8sXNdXog4mo+3UiQL850tB5eHjA2dmZ/06fRcdE8++ECHBkRCTvY0EKvs49os+sBUHQAy0/f38sX/4newqT5/2NGzcxaPBAZHPLFi/850v+8OiE4Ovri3/+/Qcd2nfgEwKNRyaXY9KkiSzsSPil9xhpHKR1WbN2DQ4cOACfwz4suJPKZkiqToqljoubjl0T+jfFSJPQpheduVnS8d2kMfE5cgQVKpSHR04PneemMX9Qd/R3jRaIxhj0KQg+Pkc4Zz3lPqCXbXpjpsdWFFUFAkkioPkNxaWB5hTEmlyHicMOBYwCgZQQEARBh/1BDJzUciNGjEDLli2wa9duLFq4kLUGdKqkQnVIUJHtmtIsk7Bh4aZU8t9JAGoEDKnEqWh/phkGpWqWy2SwtrHhsCVDSq5cufg0TbZzjaqcXhzUr8YpMO7vWi8PQ/pK7hlqv1mzZmjQoAF69uoJ9xyJ77UnfMihk7KrPXj4gCMb6N+EE2FJL7nOnTshf7782L5jB54/e5ZIdUqRJWS2WLd+HRo2aAh7e/s4jQm1QW1pO0ISDpoEVkRYHBwdsH3bdvx75QomTZzI/RNhoTERuZk9azb27tunTp0tikBAICAQ+IoQEAQhlcXWnDLpFPzy1Su2cRcpUiRe1i8iASRUzp49ywKpS5cu7JvQvn17jP15LH7++WdcuniJhd7LVy8xZ87vrPrfv29fvKQh9D3ZDxcvWYwa1WvAytraIF/i3r17I0YWg5UrVsLWVn1hiqbQ34mw9OzZE/MXLICjg0O872keJLj5khVLS4PU9RrtAUUt9Ordm6M+NOFNmnHQv3PnyY1NGzchKCiICdGhgwexYMECte0/Vy6s37Ae589fwIP799Gvfz80btwYSoU62xqpSt+/f88krW/fvmjbpi3XoYgN8gkh8vXDkB84ycvmzZv5fgxq99HjR3j69CnjPmLESFSvVg0urq64d/cutm7bxniTR/eSpUtRsFBBVK1SBXly5/mKXgliqgIBgYBAQI1ApiUIkVFRfKrTpBXVCEE6dSrkcn7Jk4Cj/PmWFupTqb6FBD9FLqxduxbLli5jL3wKJUrYFiVJKla0GBMBcpQ7f/4c+vXthxUrV+DKlSvszLhnzx5UqVoVU6ZMZoFFJKJfv35sDlAp1ZnRiCCcOnUKZubmaNOmNcJCw/gzsh2SWYD6Tq6QUKc/VHf79u3YsWMHDh48yO0WKFAA5CxI9wg8e/4Mt/+7jeMnjqNB/QYYN34cbt28hcjISMZywsSJKFeuLP97yA9D2EygL3YyuQyDBw/mHAy//fYbn+oTFhprr1690Lx5c4wdOxbv3r/HwYMHUKpUKfTt2w/Dhg3DoIED8fzFc/YJ6NuvH5ycHLF0yVLO73782DG4uKq1N5T3gHEKC8P7d++wY+dOjBwxAtt3bEfJEiVB46GoE8Lw48ePnB570aJF2LlzJzsg1q1XFzbW1nF7yc/PD3//8zfGjRuHmzduGkSS9N1ror5AQCAgEDA1BDIlQQgIDOSXPAmv/27dwtVrV9k5jdKC2ljboF37dvhu8HcsFCmN57q16/i0qU+kARGNHDlyYNmyZZgyeTKuXbuWSECzSUGlYsFCQoivgFWq0K1rV9Ap/rCPD4fJ2dnZw8nREQcOHWCBQ457Fy9cxKxZs1hoURuU1Oj8+fNo164dwsPC+TNqr0LFipg+bRrWb9iADevXI0Ymg71WqlIStF7eXujatRsqVqzA88+eIwfnTGdThgTc/9ChQ/H40SM0bdYMo0aOZPU/JSqiU/K2bdsxevRo5MrljZ07dmLP3r0c83/48GEeE+GmD0kg+z1llOzfv3+yKVRDQkOYwEyYMBEPHqgvtvI54oNGjRrjzJnTmPbbNPj4+LB5gMM2mzVl8jBt2jQmDId9DquxCo9g4jZ82DBe4+IlSmDmrBkYOmQo3r57i0ULFzFJW716dVxbdGMcOZn+++8/OHb0GGbPmcORHRziGB6OCePHo0jRoujZo0c8DY+p/XjFeAQCAgGBQHoikCkJAglm8tKlpCDFSxRHnjx54UJOZFIJn8ZJMJLK2s3VlRMGkRBp0bw5mwF0LSR4Kb3u4sWLceb0mUSCgjQUdPolkkKnTfYniDUIkJD6Y9ky9gGgW8oo2oFMFPcf3GfCcvjQYVaRa0wI5GFMuRRu3LiBDRs2qE+sEgnCQkOxfv161jiQoKYT88iRI9nRUJOMycnZGVu2bMb6des5wyMJ8yVLlqBe3bqwsLTgGyap70aNGrFZ5MKFC+jWrRsCgwLZS9/K0gqVKlXiU377Dh14BoTZhPET+AIV1mjoSRC+rfIt2rVtp9YiJHOxEeWMr127NgYNHgQ3Vzd45/Jmez9FXixYuIBzTGhudvs/e1cBX2XZvq+T6+5mY6O7SwEBAUlRsQO7PxX9/jb2ZxcoGKCSthiolFJSBg3SC8Y2WOc5O/X/XffZGWdjcTbGGPA+P/mB2/s+7/PcT9zX3VzvyZMnyzMsisX1DQ+PkDlQq7Jo4UIMHTpUQrxyc3OxZesWpKeny7i//vprLFq4qEq2RoId0vinn5fgqslXClhgo2/C2HHjRHPw9ltviYbhTCe9cnW/Ks8pFFAooFCgqSlwVgIEBxHIKMj0qQ4nUyOTozmB9mVKngQM1157Hfr374cJ4ye4lNKXNm2GLj7wnweg1enwyssvV1GRMwVpXFwc/vt//5Vv0RmQamuHhz7t6c888wwio6Jw+223wcvbC4MvHCxMmX+8ZIwnsgdyDkOGDsX1118ngCI8LLxyjTkfmikIhCIjIivV9dQGOMwNjE4gqJh8xRUybyZI6tqtm2gA6KDIOP5XX30Vffv0xT333IOePXuKGYEajY8+/lhSHz849UFcOflKHD92XL5Nhjl//nzRcJDRVvcfqGsTEjCxDgVDQSm5O5dvJW3t/Rfgww8/xLfffINNmzYJvVkp8acffxKtTZu2bTD1oakyfr5RVFgo/gGvvvIKDhw4UEWbQfPJf//7XzHZkF7dunXDgw89hKlTp+JoBUhwdgYVB0WVCrNmzZR6MlNuZm4GfwlfHTN2LO688w75f5p/Dh8+LKDqTNXUqI/udWl16nu3cg1Pk5NqU19USn8KBRQKND8FzmqA4CCXvZqYnfmw8d9kOrfddhsGDxks9mdmDHM1e19Obg5+++133HrLLcIsHU53zHV+4003YvDgIZg3b66o48mU+X1mIiNwYKQDv3nVVVfhSNoR+TmZ38IFC7F9+3b5/6ioKPGRYL/8Q0mVKZEJLhw/I+Pv368fJkyYIFoD+lKsWrUKN95wI44cOVI5F4eDJKVlhgN+MOsDzJw5UzQVHBfV8nffczfGjx8vmoSPP/5YvvP8c89L5sGcnFxhisyPEBIcIvSjT8Xi7xZj8pVXwtbAEqwEUEuWLMH1118va1DpG2K1irbF188P6elHsGLFCvE9oMMg/TXolHnZFZeJSWDlbyuxds1a0coQAHbp2gWPP/44Ro0cJfnmndedZobgkBC8/fZbAgqpKeFc7r/vfnFWJHgkmCJduT6DBg0ScwXnOnvOHHwwaxbiWrXCnXfcgXbt22HKlJvFF4IOpt26dhOAxXVuiHmquY5xdRDQEDNQc41R+Y5CAYUCZy8FzgmAUJ38ZJoXXHAB7rjjDowcNRKhIaH2R6g/r8ARdV2mBBJ08iOTKywqEjU5GciIi0eIbZ2MLSQ0pLKQCZn3tKenibnjk08+FW3AY48+JvXRy8tNYiPn+3n5+VK98OKLR4jETubXKr4Vnnj8CUy+crLE+VMKDgkJEUmasfdUxVPtPu2ZZ9C1axeRkKMi7dn8HMlORDK3QRg//TEuvHCwXUuhUqFvnz7SBx0oCTQmTpqIjPQMSV5EP4j77r9fvvXcc8+Ksx/DBqdOfQjFxSV45+23G2yDJ0CgbwGdDAlk2MhcqQ2gQ2RMdIyYA1gAiWYidzd3ZGZm4pZbb5VESvS5oK8EJXrOj0Bq/oIFeP2110Sid270RaEmgPTdsGGjgIBOnToKPbl2/CYLOH300Yfi58BvMwPm99//gIuGDsXoS0aLvwfn//OvP2PaU9MEZPyx/g/78zExeOCBB3H82DGhZcPdXE//xeAMEuoDCAqgOP3roXxBocC5RIEmAwgn5PfmIY8Trz/pgzabFR07dETaEUrwRfYoAacCJNWzHjpU3w7wQCmf9vnxEyZImCBV3LTvz5g+XeLmaVoQSR82hIeH47333sPChYvw5ptvIDYmFhePvFjSCz/x5JNIPnxYtACU4tk/ExhRy0C7Oy90Sr+ffDJHNBWMMqDEmn4kXUIQGR44470ZwrSY/Sw1LU2c8bS6E/4OjsnTqTIgIABzZs/G6EsuEamZldLotxAYEIj9Bw5IfgVmWfT28Zbvcw70PyCwOHDwoDx/4OABKdpyxRVXyHgcTKU+5sNxUINBcDZ82HA8NPUhmExmWC0W+V5GZia++uJLMWtERUZK9AZBHGm9c+dO8R9wfIN/cz6ONWZkQlh4mJgrKpmcSiV+HKtXrZKxMg89i0CxGh19NJjauaioWBw7f/jxR4lSUKnVohHh33l5uejRvQf0bnr8/tvvso6kM31PevTogc5dOosmRipDCjI4xcxzThouZ1o2hME71tqZBq6ctrrOSvX3HSCooee5PvDk6K++5xzAtz4TSfXx1dZvQ+fhKj35HMfoyrlwpc/6njkd86jvm8rvFQo0CUAIDQsVptkczdUL1c7AWa7Ubn6o6VKubppwZlAOMwX/pgTM0EMmLnL0RQZGIMLG1MXOznhkVpIgSV2RMMlUjry8fOh02srKipUgpcI8ERERLn3s3r0bnh6elQmDKEkzpgRGkQAAIABJREFU7I6Oe5s3bcbGjRtPaA6cmA5t6zRTbNi4Abt37a7UMPAf1AqQDo752p0gUZlToJI2zLhoKhf7+5zZcyrTtLp8CVaEklIzQlDl6eUpjpucAzUj9OlgaKojeRT/ljE5wJsKsFhINzud62o0X9CZkA6Mr772qjhbOpgLf8YoCYIkRnU4N8dcapOmK8dUC0Nvjj1e3zdqm0N1plUbEKmrf8ceqWnNm5Mh1kcDV39fG8Ctb3/V1T/3t0N75/LZcHXAtTwnoLnivJxiV8rrNVBAoW/N26JJAEL1w+ZI8ymHqBm3I1mK84XgLA05j7El1iCv6yIjHZlHgbZ1+jzU1PgMQQLt9q76WtS2NKda1U3mcprXniCge/fuYlI5JXBaAWpOhWE407El7q3a1tmZ4VcHy814bJVPKRRQKNBCKdAkAKE51XstlI41D8uOWOySLUMwGzl4Mmzaw5l9sTaA0Miua3zNwTjk71q5Sx1fVDcdLKytJ7sGx54r4mxuTQVM6tMK1PV7x3orIKF2Kglodkq2VmkyaUQCtrN5vypjP78o0CQAoc7L5zTTs+lYUdMPlGM71fEJxmBkgdl8Imukk79lY0HHqc62OUBhXfSzG3eaptXEpJtLddw0M2hcL84aBP6bER/0uWEEjSNDqYDbxnWvvKVQQKHAWU6B0woQmoN5KZfXWb4DW8DwTxdAYL90emS4ZUtuDn+bhQsXIiIyApMmTaosCdySx62MTaGAQoHTS4HTChBO79CV3p0pQA0DwyJZi+F8kH5b8uo7AAfNQQzpZJ4LSuaO1tJU+fRdYaZKljH39vGRVNOMdmmJuR+aY92bwxmzNtOScnabY4WVb7hKAQUguEqpFvwcVcOsZDhmzFhJKe3r69uCR9uwoTXHZd2wEbn2NJnuww8/LEmZBg4Y2GLXRGzrGrUk0bp04qVS/2LYsGFnvW9HfavEDKbMk8EwW0dEQn3vNMXvuZ8J5p1LkDdFv0ofCgVOBwUUgHA6qNrMfRYUFmDuZ58ioXVrdOvaXTI1nguNF2l4RASOpKXVWcmyJc6VeS0ef+IJjLz4YqkrUVtNijM9djJKVrMcO3YcUlNSJByVSbk8PaqGh57pcTbl98mk23dojyeeeFIyb4ZUlAJvym/U1hdzlXTu3AXLly9r8aan5qCH8o2WTQEFILTs9XFpdLzwiksKsXr1GnTv1uOcAQiRkZGYPmMG+vfvj8iICJdo0RIecoSJ9u3XFzfccIOo7x1prFvC+JzHwBwVrDrKmhy33X4bOnfqLBEzTd24R5kHo9xoPOOmC4PRiOeff04SqDGZmZeT+aep5+3cn9VixbXXX4tOnTpJKvDqoFGJxT+d1Ff6bgwFFIDQGKq1sHd4+YaEBuGNN9/E1VddW6UYVAsbaoOGQ8mWNRqYtpmZFs+mRu0HC0alpaVJRUmGYzJhFZNAtZTGUNF27dpKXQ5GLTBBFrNqng47OMuhf/nFl3jn3XexYf36MwoSMrMysXzZcjzw4APIyc5ptuVggiWmTWetktVrVlfJ38HfMdHZO++8c8aKgzUbIZQPnTUUUADCWbNUtQ+URZBY44GVIllm+lRzA9B+zgqVZBphYWEu9efsdFUXg6FK2xX7K/0qHvnvIziw/wB+XfprZQ2Nhi6Xq+NqaL91Pc9vsg7F+g3rcd+99yEzKwtGg0FqeDz/wvOSTbO5GhkPJWZKq0x77dxoBnnxpZeQlJgoJbSvueYaSdd9Ohr3KOnRrl17RJ9BExjXpv+A/rju2uswZcqUZskr4qAnU4OvXbcOV115pSQ1c250Ll73xzpJ/80zpzSFAi2BAgpAaAmrcIpj4OVCJ7MHHnhAah440io3ptuMjAw89fRT6Ne3H0rLyrD4u+/EcU2v11dKlrxkqUZnISUyoODgYPkUiy7RW7+4pBhhoWFVYun5Dp+99dZbMeuDWZIamUCClTMD/ANOchRj3QnWWfi/R/8PR9OPimPXZZdfZme8f6x32X7LMYVHhCMpKUnKT7O2Ar9LjURqaqrE/rNCpAO0cF6s59C+fXv8u+dfsck3NJkRNQXt27eTolHjxo9HYECAhDsu+XkJhgwZCn8/v1qldOckVaTpqUjznBujKO7/z/0isT8z7Rns2rWrEvAxffiiRQtx5513SlpwpvR2pWXnZMt+8PU54QxbFxBjjQ7WA2FdEYZQMpU4m+OdU5ljTePlXmFiMudS43RGpMNoZmYWpj39tDiQbtu+De3btZe6G9QouAJcXaFPTc9wrnn5edi8eTNGDB9xkgaFIO6Rhx+WEuvOES/1OenW9/vGjld5T6GA3D8D+g5ojnQFCrVPEwV4QfgH+GP+/Ply2SUmJVZWdiQD8PXxcfnLdHZkOWhWTWRonpenF9566y1MvHQijAajXOhk/v7+AUiIj8cLL76AY1nHpGomGenrr7+OyKhIlJaW4e233pKS045QOUqorMrIQk30KeDzZKSzZ8/GlJtuqpIimt9huB2LWI25ZIykbX7rzTelOFO37t3w3XeL8fmiRXWqYtkHAc6cObOlWmNebh48vbwwauRIocdvv/2GLVu2SHQBy2jTDMB/kwZff/W1MMDcvFw8+uhjMJSVuUxDPlhmKMPTTz+Nf/75B7/8/ItI8N7eXlKXgnOhJE9wRQ0NJXtnBkmpnuM9dvw4vL28qoCshgyC82d569lzZktp7blz52L6u9Nx0bBhYnNn1U1qDHr07Im77rwT0dHR9YIRYXJ5efjfyy9LzY5XXn5FgBpBFWlFm767h4eM2zEnuwbDgDfeeANbt24TXwdquPg8M4D5+flDr9c1ZGp1PksgwOJo3Ke/rfxNmC2ldVb1vOSS0Th06LAANqryBw8ZgjZtksD8DyxvzjWvq3H+3MecL591VVMnZd2sNvTs1VNKm0+5+WZ78TBmYVRBzhkvYYaWDhgwAP/+uwfx8fFStI3rRAFA6oo4OY6y1ohOqxOAS61PU4OsJlsQpaOzmgIKQDirlw9yYTF+/ZJLLhEbptRkKDfitVdfQ1FJMWa8O90laZv9XHX1VWKHfu655+TSmTTpMhTk50u/nbt0Eaa/detWsa3P+WQOPv/8C5SWlGDturX47NPPhBEtWLgAr77yKgoKC/G/l16Si43q5RtuvAH9+/XHs88+K8yRly2lW5ZlvmLyFejerTt27NghFy+T9Vx88Uj07NlDxpLYOhEv/e8lzJg+A9dee61I4h/M+qCKpFV9Gdk/ncHefvttcb7buGEjli1bJmrlfv37SfnrDz/4ULQILEN91VVXIT8vH3PmzEFgUBD++GMdxo4di3vvvQ8pyckN2iXUWqxbtw4333yzVK2c+vDDmDVrlmhQWickCONmBUpqa1588UVhOA7w9fprr6NL1y7CGB55+JFG5yMg4yAgCwsNxTXXXoPs7ByZE+k8fvx43HjjjVJum+u0fNky8Q3wqyM8lkyuoKBQqmMePHQIffv2wdVXXS2Ah5x+4YKF0Gg1UkKcIJNMjfPi3iRgev75F6T0eEBgINq2aYMnn3xSANynn36CVb+vEsB4qq2ouAgPPfgQEhIS0LVbV9mTP//8s+y3pDZtMOnSS6VC69YtW8SEtn79evz8y89StMyZ+dY0Ds6FZ4R7lQB569Yt2Lljp4Dc2pK1cQ0IOqmtIlB5+JGHpdja5s1/CrhgQbPDycm45567Jdzy008+xaeffoqg4GCpNsqzQ00HzyT36SzueQ8PGevjTzyODu07CJjn+WwK+p0q/ZX3zz0KKADhLF9TXn6ff/65lGnOysySS58ljLt06SIljFn6+Pfff69X2iGooCTNSpBk6GReZPi80CjlhoaF4YJBg6T/9h06IDo6CuPGjhNAEhkVhRkzpgszv+OOO+Hh4Y67775btA5sISxp/eknuPCCC+XC5DtZx7KwYMFCfP31V9i5cxcWzJ+Prl27gs5sS5culTA0MmxWbaRNdv++/SLxf//99zhw4EC9tuO8/HwsWfITPl/0Ob5bvFik9gULFkjZ7S+//Ao//fSjSJEGgxHz5s0VBpdfUCClu3fu3IEVK1bi5yVLhIm51SNZOm8hMpJRo0cL+KFkznLbP/zwA0ZePBIlpaXYtHEjSspK8OTjT+KmKTfhpx9/wurVq4X5EDyRkdx2++148oknJPHVtGem2UtON6BxLa+/7nq0bt1a/B7Yp9lixqZNm9Glc2dcfvnl4rNC6f+RRx6BWqMRcOZeR8ZHrgNLeMe3isc9994Di9lSCdCowfriiy+EwVFLM3ToEMmpQA1TTEws2rZtg+zj2VIGnSW5/1j/h+zLcpNJNC3Tp7+LdWvX1btH6yIBzQr9+vUTJjxq5CgsWrRIpHAyTzJR7qvBFw7GlJunCPAj8/X383dJ8mZ1VppIPp79sf08ePtg+IjhuO3W26T6ak3SO8EBwSiBJ88TTUwMQ2Zpc9Zn8fP3Fy3MxIkTMXPWTHzz9bdYs2aN7BUCuYenPowVK1ciNDRE5sLy8V27dUNQYKCAmm+/+Va0DpdNmoRLxow5p8NSG7D1lUebmAIKQGhigjZnd5Q6KYl89NFHSE1LxZ7de8RGn5ubK9Iqkyft27sPM2fOrDOPAJ8l0+jVuxduu+02YUiUUhwZ/6Q6p1RoBI4fO44du3aKRP6f/9wv33/zzTeRlJgkTJ+mDvosBAYGiS8EJSNqGyglfvPNN/K8+CNYLVi8eLHEoT/22ONoFReHBx58UJjxzl27sGvXTpFQ9x84gL/++hNXXH5FZdlqV2hst/n/JGplN70HzBYLli1binvuvgdz583FyJGjRIKjmp/jGjV6FJYtXSY+Env27BG/BDZHaWpXVLicFx0Sly9bIVqJtLQUqTh50403CaN45dVXxAY/cOBAAQR33XkXjqQfwY8//gRPTw/8+MOP6NO3j5iKqHF4etrT2Lpla4PMDBwD575s+TJceeWVUopcmgpYvPh7DBwwQIAHzQt+/n6iafL1861ir69OX9IuLjZW1rEPtQD+dkdGu9ajBPPmzhXgRuZGRs2/N27ahLhWcbjm6qvFaz8lJVW0BhMmjBfNyLDhwxAVGYW3331HwNDu3XuqFENyZY0dzzj2E4Fw//4DxITC/fv5F1+IhopaMNJk5cqVYlIJDg4S9bwrjetPOtEMQf+AlSt/g06rxZq1a3DzlJtx8ODBGgFCenq6APOHpk7Fn5s3o1u3bnIOmRODa2E0lks/XIuffvoJo0ePBjUge/ftxcD+A8U3hxVcDx86LNougoeBgwZh/rx54utD8Md533PvvRI66sr+dGW+yjMKBZwpoACEs3w/8JLgxUKmTkZPRyte0n379sXT06ZJDD496OtqVAd//8P3Yh+l5OO4bOiMRmZAPwKHQyFV9rzk7r77Hmzftk2eX/z993jwgQfk4qK0RKlZHMWgkpwM9E3geFonJqKgIF8kT+YFmL9gPlKSU9Cpc2dhKm+8/roMkw6FdJQcNWoUYqJjRIK64IILRBNBZqXVaGqdDunBP1TL8vJ96aWX5ELm3AYMHIicnBz06dNbJHqRtK+/XrQtTz31lPgejBs3TswcZAz8Q8D09jvvIMDf36Wdwvm+8eYbGDNmjDCB6dOnY926tfju2++wavUquLu5Y8SIEUKfxx57DFu2bhEtwvQZ0wXctW/fAbExMSJ9ksk01HGOkvLUh6ai1FCK96a/J+/Tr4KhjJTY6cvBNXp/5kwsWDAfW7ZsFUZVVyOY++H7HwQ80Q/EsT9IZ/ouvPb6a7InuAc3bt6I5555TkIIScuyMgN++vFHvPnWWyIZz5o5S5h0cVGR7Fuaq6i5ap3Q2iX61vQQ9yA1BdQKkAkTLBM0U7XPdWfKa+Z2YE6NSydORNqRNHGirc+sID4HZhOW/LREwAFNEgS43L8EDJxzbVlLaSIiKOSaZ2RkYsb06fj111+xfMUKobfD0ZeaJvr43HrLrbj3vntFK0FNCLVZ1GxR00K/lKXLluKCCy7Exo0bZG/r9W5y/lpqAq5GL6byYouigAIQWtRynPpgHF7NHTt1wrGsLGHa9eXUJwPgJUjJlpcqgQZVxdPffRePPf44jh5NR0lxCb748gsUFhZJ7Px1112H8ePG44MPPpBEO3feeYdEG3zy6afyzaefekokX0pONDcw/ptmiltuuRnPPPOsSF4XXnCBMAkm5yEj46VLbcVzzz6LNWvXYumvvyIoOAhzP5sroGHM2DG45ZZbpe+6IguOZhzFsmXL8fhjj+HgoYMyryeeeEJUzLyk/927V6TWkNBQfPbZZxg+fJgkNGrdOhHPPfcsioqK8dJLL2L4sOF4b+b7+GHx9y75ceQX5Auzf+bZZ7Fnz24JZ5w7bx6GDxsmYGP79u1iPpk2bRqYoIi+G2Rg/Pe3336LGTNm4GhGhvh5CAhSqcTEL86NLjaCuuXLl4stPiUlRSTRp596GoMGDRK1eGREpACRDRs34j/33y8+DnVJn6Rzz549BShdffXVArrIkAk6QkJC0aN7d4meoaqdKZoJIhhtwvwP9Ocgc6Z2oVevXmIqmjd3nvgoUFVPJpqYmIjnXngeY0ZfImCjMY3jYSTG8OHDBVTRB4GRK8yf8fdffwsYI2ApLirG2++8LZoEaqTqa3R0nPb0NDFzvf7GG6Ldok8J39fpdfK9oEC7pqmmRi0RzwBNfgTAvXv1roz44fMEq1x3auDo0Mu/eQ54XgheqPUgQLn55lvQs0cPbNq8ScJEHWeL51ocIG1otPalPhoovz+/KaAAhHN0/Xk58eJ3Lttb01QlYsDbW5wLyaiZ2vi+e+8VlScjGBi3/eKLL6BTx054/Y3XRQ2+dNkykaKoQn3xhRcwZMgQPPrYo8IEP/tsLr75+mthqA7GQ7s/1eb0Jv/www9Fhc/LjRcgmyOsi2NOSU3Fli3/4IYbbhTVMMHKa6+9hqQ2SeJs9vFHH4sDYG3z4nz27tuHXTt3YszYsbjh+utFrU+HQTKkefPm4ZH//hc7d+wQJz6aHRixQUmO9njaq2kuoVqczL2kuLhe73bOgXMPDQvFvHnzMXTIELnob5oyBT7e3jJ+zuPvv//G6EtGyzhGjxotdLvvvvtEun333XclDI+hg2RorVq1kogNMlcPd9fTHtPPgcDO08tTIkzILMk0qSFxgEc66M2bP0/CHglO6gIIHCvBFRkYfTiYHZLSLudL6Z8OnVfTwbOgQAAdtRM33XQTRlw8AkePZog/Sts2bQUg0GwzdtxYTBg/QUwobeg4eNkkMfuQ8dYHZOvUctAMEhcHL28vHDxwULRTt992u8yPDJ6+DozwiQiPwIsvvYi1a9bWq50h8/322+8E4BHo2B0/54vDYPfuPTDsoosQGBRYJ4AjACZQoaaB5hyHRohr0bZdW9EY0B+EmgD6THBtSHNqKgiWQ0NC8P7M9yWahz4q9BX5/ocfKrUQnNu1110r564hEUvn6LWnTKuJKdCkAEGJyW3i1Wmm7sio33//fZHgGBq5Zs1qYcS8rPRubujQoQOOpqcjOydHLiZeZrzoyHioaTCbTMLkuf70indOXSs/KygQJzkJa/P3q9P+SwaT0DpBpFyJY1epxJkrPDwCqakpkn2O366NqfF7+/fvl3h/Sl/79u3DSy++JF71vHQ5H6PRgFZxrXD//ffjjjvvEKbMi7Z1Ymt5htn1yLDIFNhcse86TC1kktSqMK0wmXx29nEpnUymHxsbK1I9wQ0l8ZLSEjFDBAT4C3CiTZvRI5deeqnUR6D0SlBRX/hd9W3C8ZLZEKQx9j75cHIVwOYI1+Na15fZkaDuyqsY3XKzALxyYzlmzpqF9X/8IXNiIxMmc+e+YN+MWkiITxDnRzqHktGmpqTKPAhgLhk9GpMuuwwpKckSjSIVSNXUk7iuKanpaJChsgeCF+bmoITu8Hnh+Gi3p38OHXBdoamHpwfmzPkEU6c+hN69++D6667DgoUL8fFHH2HFyhUS3svw2Zr2B+nAPXXnXXfikkvGYML48VX8gBz+Qxyro4lWTKWq1Abwd9RSkO4Myx07bpw4JRIoFBYViamMpqjff18loFCJZGimC/M8+kyTAASx+9r9oKQ5NvqpHffzaBXO8FS5dnQmZPx9SUkxCgsKhYE5mKPJbLb7ITRynPZEG/YdYg+Ks/9/bQzBkZijcj/V8N26xsKLlRI048tpyvCtITERn5E+JEzvxN51BgSuJAhxjIO+ESOGD8c3336DgABKlRCtgTA+1Yn0ys5nxMFYyGiffOpJ0bLw7DCqgeYWMl6HJqYuk0p18si45UzaJGqgOgNztS/HOhnKDLI3yGxpvqGDn64isoOOqNX7c5x/u2PryfRlZAilZIJNVlR0NFeAmKtb0HkPnVjHqnuwvv3MNX344akCkNPSjkiI5/Yd22VfRUVHicOurDFpUMPACLzHXHKJ+JkwiuOkdaj2jvN+d5wTAk+COO4D0uyhhx4SR1ECHDoFz5k9R5IvKeDA1Z3h+nMOrlbfPnG9x7PsSZo4myJREiUHh8rX+aBU3A0nUYX3htLObwo4IiTObyoA1grWUlRo13BQ+uZ5kkyT6pqvJlUDz09t57ACR5w1S2C/sJumuaKtIN2o3SgzGKS+ia+vn6j9uXe5MuqK9XHcZw46O99v9O+pCaQ1dBa2iq1ADRtNcdwf3CsSqqmuAGnEYwJIzzxLcxWENpQOjXnemR7O43J2tuWZct5fjjWu7Yy0ABLXSIq6eGtjxtwkAMGh2nMc3+oSYGMWtaW903RXU0ubmTKemihg1y40D23sEr9dNc5PqjQVGocTAnjVWhSNGJf94qi+i2tnk5VPNuJbp0q1hgKgRn3P1duy4sZ1OAM6g4ATmRSr0bWmy+IU6SjDsHsjAtZabiP+rhHSV+UuOMUxOq9D7cNojpu0jolUaLWqP1HbqJqQJI3apmf6pSYBCGd6Esr3FQqcCxSoSepqCdJgS6FtU0qlCl1byqo2/Tiq7xNlrRtPYwUgNJ52ypvnOAWa42JpLNNr7HvOS9Yc82vKLdIUc3aM52ybe1PSUelLoYCrFFAAgquUUp5TKKBQQKGAQgGFAucJBSQqsSmcFM8TeinTVCigUEChgEIBhQLnDQUUgHAOLbVDBauoT8+hRVWmolBAoYBCgTNEAQUgnCHCn47PEiDQE16tUZ9y0pnTMT6lT4UCCgUUCigUOHsooACEs2et6hyplRFOJhMirwzDut83ICm7HaBujpCic4SAyjQUCigUUCigUKAKBRSAcI5sCCa0VZVZ0XFWDBa9/yN67u4Ls9Zej0FpCgUUCigUUCigUKChFFAAQkMp1kKft9DjtMyKdrNi8dV7P6Df7gtQ5lbaQkerDEuhgEIBhQIKBVo6BRSA0NJXyMXxESDYyoAOH8Thq/e+Rd/dA1GmMygaBBfppzymUEChgEIBhQJVKaAAhHNkR0jNvFKgw6w4fPW+AhDOkWVVpqFQQKGAQoEzRgEFIJwx0jfth+mkaC2xocOsGHz1/mL0owZBb2zajyi9KRRQKKBQQKHAeUMBBSCcI0tdCRA+iMFX732PvrsHwaAvO0dmp0xDoYBCAYUCCgWamwIKQGhuip+m71kBWEttaD8zCl/P/EF8EAznuQaBeSH0bnr4ePsgKysLOp3uNFFf6VahgEIBhQLnHgUUgHCOrKkValjKLOj8fiS+mPkj+u7uB4PefNbPjky+vLwcbm5uDZ5LcUkxvvziS4SEhGD8+PFoymI/DR6M8oJCAYUCCgXOMgooAOEsW7Dah6uCtdSKzrNjMP+d79BvX18YVRbY1IDKdnbmQiBDd3d3x/3/uR+PPvooggKDXF4tZpQcNWoULrroImg0GsyZMwd79uxx+f1TedBsNkOtVssfpSkUUCjQ8igghYiUHDH1LowCEOol0dnxgAVqaLNs6PJNDBY8/j06FHSByqoGThNAKDeVo6SkBD4+PtBqtEKkpq4FQSY/fPhwPDj1QfTt0w+hISEuL8bx48fxy6+/4Llnn8NTTz+Fe++9F0WFRS6/39gHy00mdOzQAQWFhcjKylRSXjeWkMp7CgVOEwV4TzkAggIS6iayAhBO0yZs7m4Z5uiRpUenxUFYdO9ytDF1AGw6QG2GimqEJmwFBQV47/330K9fPzz4wIPYunWr9G62mBEZEYnDycnw8vSUn9V1AI1Go/gF1CZpFxUV4Zlnn8Hhw4fx1ZdfiSbA1dard2/cfPMU3HP3Pfjq668waNAghIeFu/p6o57Ly8/D//33/3DN9dfg6slXIyMjo1H9KC8pFFAocIICjRU8HCDA3cNDhBk23jWJrVtDpVYhNTUNhrKyJtH08Vu8y6jx5L11rgCPJgEIim33zB9nKdRkBhIXuWPpdduRqG4DlU0DG8ywWKwU7+2DVKmgVqlkAzsYs5W/s9nQpWsX7N61GwQA3j7eldKv82YvLi7Gm2++CWoQFi5chGPHjqGosFD8BC688EK8+tqr2LlzJ6Y9PQ3Z2dkoKCyAXqeX33t7e1d+18fXBw89+BDmzZuHAwcO1HigcnNz8fvvv+OGG26QA+6M+uvac2aLBW+99ZYAgwsvuACGMoOMWa/XVy4UzQBlhjJ4uHtAq3XSgFSqHUkTO72EbPUscZnBgMWLv5O+SktLccXlV8CzAiS5ujsac6k059nj+BpzWdc0Rue5ujKHumhT1/sN/U59a+Xoz5Ux19dXQ37vTPuGvNdUz9ZG/4bSofo5qqtajEarRVJiomgpeRfsP3BA7i5Hq04Tx1jYp9ViQdu2bREbG2sXXsxm7N27F+3atZMz6tAi7Nq1S+4w6cuhBbXZKu9GtUYDDw8PGAwGmE321PXOc5Z7VKNGt67d4OvnC7VKDZPJhC1bt8q9WN+Zru33vJOr06q+vhx0qT4+Z7rwnue97+q6NQlA8PD0PLFwKl6m9qm5Ooim2sTnez8GjQGhM0qx+74iRJjiEBUBTOpsAAAgAElEQVQRiQ4d28Pd3Q1ubu4igVvMZpSUliLj6FEcPXpUpFxHFchLJ03CLbfegu3btuPzzz/H/n37qqwjD9DECRNw0bCLcN9998sq83A4GOl3330rdv79+/ajVXw8Hnn4Ybzy6itIiE+Qg/Lc88/hwP4DAkAWLlooG3XlipX48ssvQW2CDXafA+kPQFJSGzz40AOYPHky/P38MWDAABnrps2bq1wUVdZdBWQczcCKFSswd95cXDbpMtxyyy2C7h0HjJqOoUOGYszYMZj98Wzs3bevVgDAdywWS71SBi+g6667DgMHDcKcObPx5+Y/K4HH+b4vnS+u6gy2saDjdNFUtp4DTNeiAeM+5X+UQivbeVoXrbY7vlZm5kRbYci1LCSBQI8ePeDl7S3rwf7yC/Kxbdv2yrMq+N1pjRxjiYmNhb+/P/z9/KowdK4bGbiz/wEFjz///FPOd2BgIGJiYuSdzKwsWK0WtE5oDa1OJ/dmamoqUtNSoVZrKvcIn+3UqZN8r7og9c+WLTI+GReFsop/V9JMtg8BB2PQqjZ5ukKY8/Pzk3sxPz9fhJq6aO7gvfaPOb5t58m18uOKsdW0FE0CELQ6bcUAeGhOnurJH67jNJ1Mq9N1F7jer+xC1x8/I0/aVMi15qD1pzrsviMffvkBWPTFl9i5cwfSUtNE4uckePD8/P1E3R4bFwc/P18YjeUoLSmRzde6dWvodHpotRqRgikN82DRH4Abdc7sORg7bizc3T0cwrUg5gnjJ2DI0CG48867cOcdd8iBWb9+PR5/4nGMGjkKca3i8PZbb+Oqq69G9+7dcNNNN+F/L/1PNj4BywcfzILZZMbVV18tjJVM+dprrxXGTkb/wQcfoE2bNsjJycVll02Choe0lnb5FVfgissvh8FowP3334+83Dz0699fIiF++flnXH7F5Zg4cSKOHDkiWo177rkX3t5ewhfI6PU6HUpKS1BuLJdD/9RTT+G7777Dv//+K89XMjw7fKr8/+zj2di0eZPQrazM9RwU1U+DK1utMfzIlX6dSVrbN06SAisuwNrWw/G840JvzNjrOlMVd6FLx855LHXeVA5JtQpDqzpyxyVu3wauzYpnie9ZrRUSIt2EVGqJtNG7uyM3O1u0ZaoKB9fKS51MUs0y7icazyS1Yjq9Xs4vf9lYoaySsciOdmjPnClU2+6pfZfU9Ib0XQM7JP04F/+AAJQbjQgJDUFUVNRJCGL1mtW1z9EGdO/eXe4pVxs1Axs2bIC3jw969+5VIexUQy6yF+x+C2tWr6n8Pv8/qU0bRHOc1RrXZv2GDTCbTU6/OQESAgICEB4eDpqGMzIyRdMaFRmFkNBgWMwWHElNQ35eHrp27Qr/oED7ultt2LN/L/LzC9CqVSvRfhI0JKckIzAgAGFh4SgvN8q9RoGLe4z3p16vEw2Iykrq22Cz2rUIVpvVLsw7CfUnnYkBfQe4trProHhdm7IhnTf0AnN1E5wPz3HBjxoy0PlzX+yYkoNISzRyCwrh7qa3o/BKrmZn9txAVK1RDU61W2RUpJgCaD9bv2E9vvnmGzz33HNISzsil19pWRl+/fUXTJ06VVR1Oq0OpWWldnWV1Ya5c+fi0cceQ05ONr7//nvcduttsrkHDx6MBx54QIDA8uXL0blLZ7zwwguyed968035+chRI+W56OgYPPnkk0hPP4KjRzOwZMlPeP211zHx0ono0L4DgoKDMOyiYTLmmvwWuA/J4D/99FMEBAbg1ltulfwHEyZMwKOPP4qS4hJcMvoSvP3223JNdezYAS+88CJW/f679Gcym/DuO+8KEGGIZGlJKY5mHBXQxMuKc2TfPMBs1dXXBDaLFy/GsGH2MbqqjneoOx1L5Ioq0XGu6jozlWevgnk591vTN+ozBdj5YNUT7SyN1aeGdqZH9WfrY2y1qfar06G2fh1SnKxbBaHrG29D1qO2O4bf9fLykv3FM0RJ1KE14dj58+7duiGgQgLlz7Zs3YLcnNw6VcHsNzo6GklJSQIcyspKxReopKQUmurgwoUL0HkPOs6Ws3bHAWxc2ZsufK7KI7yPaEbo2avnSQ7Pzg9yjKtXr5b7y3H+nPcNQVbnzp0b9PmcnBxs3bYV3bp1R1BgYJ3v8lsUHPb+uxd5+fmiceDa1UQTClYECA5zrqNjmg7IzAlkHI3CEDW5MbExcpc6zhnNKsHBwZXgU0wnVqucwUp/LJVKwCH3mOMsUmCjcEZ6JLVJEpBQVmbAtm3bEBwUJIISnbhz8/Jkr9R19ppEg9CgFVEePi0U4AFON2ag/QJPpE6xws92QuVV16F2bA6+bzQYZVPNmDED27Zvwysvv1KpmqeNfe3aNRg/brxI+NQaTbp0kpgYpk+fgZkz35dn42LjMO2ZZ7Bp0yb079dPkO7cefNw6cSJGD16NO666y7ExcXh3enT8esvv+DFl17CJ5/MwZo1a3H77bfhuuuulw1PaWLR559j6tSH8Oqrr2Ha00/L2FatWiWHw5kxOQ4Uf/7GG2+gV59emDjhUmQfPy6AZ8HChfh5yRIxn9BPIjQkFGPGjMGUm2+WKAkvL89Ks1hmZqYctqjoKISFhiE4JBgREZGIiYnGyItHYty4cQJCqtOUPxs3fhx69OiJJ594QuyWSjs3KVDlQq1BPev8+w4dOoikyEYA+tdff6OkuLjC5m2Ts5CUmFRlP9Nfhxd8bRc3f057d88ePSv3IX9G5sHz4WDwzu/XeQfAhtDQUESER8BYbkRKcopowBzvEJh7enqhID9fGKMDgJyQOewmADI/Zx8Bx7l0gLPqv3O8z/H279+/ihmwpp1Dxrd9+3a5GwqLimCkVFzhE6B3c8OggQMbvOE4tty8XAQFnWDEdXVinwvwz9//oGPHjnaTaA2NZsyszCwcOnwIpnK774KAGrUKAwYMFC2lcxMTQK0GlwZPS3w2qKWozaTHn+/fvx8pqamiCaYWq6amAISG075FvmGymXFclYG4jzVQT45Fua+VhgGXx8rLhar5W2+9RYDBd4u/Q2DACURNRjt7zmyJUtDpdSKNb9i4ATPfnynmAG7IQRcMwvo/1osa3uGsRyRN7QSdBMeMGYuI8HC4ubsJY77/vvvlYnj55ZfFPJGcnIzrr7tepH9K+n369sH69RvQrm1b0TrwAMXGxIKOkvym86VHbcby5SuwYP58TL5qMq6cfKWYCHjR0URBJr9j+3Y8/PDDcsFcdvnl4p/x+GNPwMdZw1KNYqQLv3PnXXeiS+cuuP2O20V74nw58tKgnfKjjz7Cyy//D1u3bAUdrNwbkdzJ5QVTHmw2CojURmmfN6kKIu3Gt4qX7yenpKCQzmgVWmmCS6qcqaFjo/bJmVGTyfGscA+np6ejT58+ItFV0UbBhnXr/hCnOAdDonaPzrd0vuPPaJ8nA3Bu/Plvv/0mP/L08kJsTIyMNz39KIpr8azn3AjiExMTK8dpsVpE2qQqWwBOWFjlZ6i+3kefnQrGTAGBPkaUdIuKi0S7SFMhm6+vr/TNZ3m26XtUHajw+1HR0Wjfrp3L5hEHPf/+528UFhTKvdClSxeEBNcVBs0VokK/qpmmsZuI948rUVW8NzlOf/8AmMrLkZiUiAD/quvW2DGc6nsEojt27BBgRhMHgYw4rFfsda6VAhBOlcot5H2rVYXjIanweL4QSZMH43hALqwa1wACD+nIkSNFNU5Hu8jIyEr1pvOB5qWXkpIiB5kgICw8rFIlWB8ZeInSVrr011/lXV4yTIDEPukj4Ofvj9ycHJFkKI0/PW0a/li3Ti7fp6c9jU8++UR8GVontsbECROrSDj8Nn0s6LMwe/ZsfPbZZ6LJ8PTyxAvPv4D5C+bLxRQcFCzggBfZZ5/NxYwZ0/Hvnn/r9DTmpfb888/LhXvrLbdUekU75st+u3XvjnfffUeU1wZDmdgA165ZK5qYhkYy1EdH5ffNRwGHloqOa9yzVAOTMfTseUJy52h4ydJcFxwSgm5du7rM6GqSuNkfpc8NGzbK2aCE2qdP78pMoocOHUZaWppE51RvHNvKlSvFjt/LaYyUWinxci9Xb9R09e3Xt8Z8HTx7BEPVTVNr1qwRwNQ6IUF8Bdz0blXs8qvXrJF97xiDvK8CJGIg61iVIfA8Dmyk5E+QRf8Bahapsq+uVaw6Vwvgo0Zh1DF4/xsMNVwPma51x3Fe9fieOEwz1YFcfRodZ5+Q5tjxHCcdqwlgCFiTDyeLeVYBCM1B/Wb4htWigravGXtH/40u/x0Ig7cZNpXrHiBkyhY6PTl5+9c27LoPYu2TJRDhH16mQUFBlWGHDmlE1JRWK2gXnDlrppguUlNSxK540bBh2LN7tzgL8l22KlKXU/ITvk/JhVEarMVA6Yv9UptBXwLaDsm86Wwp3uh1ZFTjXKmFoLRQW7pn2pZbxcWJlmTEiBGSH4LSId+j+vR02G2bYUspnwDQt2/fSpDniHCovp7UCNCOPXTo0CZLjMULm4DEy9PrJKc7B3CoboLg/3PvE8xUV30zcRe99dkcJgICCvoJkcE2pG3dtg2dOnWsUTjgGDZv3oy27dpK5JFzIyBauXJF5Xu8cxgBEBER0ZDPVz5LCXjDxo0YUGGeqLMTDy2Cb1MjpWQf3OdEQmvTn5pC32aDRWOBQWOEp8mD7t8uzaGuu5N9WHwM8OjtjpyN+fAq9W1W3/jqY5Pw86ZwUnSJMspDp5UC1jIbOl8bhbnR36HP631h1dpgcw7DOq1fd71zV8GFcxIlXiQOQOAKw+U3HKGJDvDhH+AvoZupKamgvZLexZdffnkVM4rrszj5SQIQqo9pWpDwTwUYnAo5z/i73EMhoaHo3KlTvWPJy8vD0YwMyaDZ1M0R+WF3rbQHBtrV5K6Df47JWF6OvNxcuHu4IyPjCNKPZCIsJBSdu3Zp0JAFMBvK4OlhT4RWvfH3e/ftRZukNjU6EtMmTy0kh08g06t3r1pAlQo2lRVqyeVSsyY069gxlJQUi4mjtkZaAWa0mhyCfVF/4dCfmei4tjdsKm0DKVj1C9TYJowOx99lGxCwJoZ5bKGG3eGP425Ms7oBUTd4IMvjKI4tKYL/IQIZe44WVxuz6sueEc1Gw/eJ83fEvKoABFdJ37KfM5XaMPjOdnineC66ftsdblYtbOdxLQCHdEWAQIBBFSRDLhkFwdwMzM64cMHCWp2MWvZqK6M73RTg5UjpWrzI62lU3dP3wJFwq/rjDj+WU9IkqaywuJlhM+qgPYXaKgxtCx/uh7//2orw3GjoNA0rglaT2aH6fHneaqMFny0uKcGmjRvFNFdb5IBHuB4FJXnQF3nVSn1mbI2Lja0zR4nNZkFgP29ktjuAAD9/7Jmbitj8ti5L/LV93Kw3IvJaP/y1cjtijiSCGCaouz+OpB2Be7a3gIWGNMK+sHFeWJe9AiNaj8OWlTsQkBHZYA2CtSJEx6Qvhb7c/ZSz6CoAoSGr2IKfLS8xYfRDffDy/pno9ntP6JhmWWlCAV7Q9MSmQ+WQIUOwavUq3HjDjRIbzHZKF7dC43OOAgSXdNyiA21djM4xceYtIECoqZEh+/d3Q/KONASVhEkWhIY1JrgBdAGA51Um7P0sC+FlZBwN7QcgrjCbLIi41wP/LNmFqLTW0DSAkUmkhM1aZw4SV+bGfg4cPCg+DPZ4fBOsKhW0IoUzF4kFkVf6Y9+Bf+GzLYZZI07qlqYUrhGjOWpVBdis0Ear4DHChLysQpRqSqBfGgy9ydOehKhhSpgqY9DHqVA6IBvFXwPeJn94hKmhur4Axw4Xwm1xEDwstQOb6pPhMHRBWrhfU4iDC7MRdbk/js0zILA01BVyVnnGZDWh1YQA0UIUfq2Bp9X1cdT0MQUgNHgJWuYLpkIjJrwwFM/8/hZ6/NWzwaqpljmrphsVQcCSn5egV69eWLduXWW4ZtN9QenpXKEAASVT9DIfRnU7/0mXe4XvS231RLQeGvjdoMHfn+9Cq4KkiiwMDeFM9gx4MT3Csb3zahi+9EKEMRoNcC9yGrIKZncjPKaUI31uIUJKwiUyw+pmhcVog9ZGx73agYcj/W9TAGoHXekn5Z/ogyzvVOi3+cm9ZTNb4X+rDluX70Dckc5Qqex5RxyN7zIcmeGjdY5FZ0PgZXqkFe1BcHQUdn+egqjCBOhEbW+PZuA/y1UGuJlqDlesaU/bbCqEDQ7Av7aN8F4TBZtWg/hJ4UiL34nkJUWI2ZMAN9oLXAxdtMCE1uMisCplJfqFXYg1hmWI+qMTPK1Md9+QvQL4xnii4KI0ZG8phP/OcOispxZurQCEc+RWKy4uwMQZw/DShzPQ81BvaJrCS/ccoQ2nQYcmxoh//c03kqPglZdfPim87ByarjKVU6AAowgGDhh4yhEotAP7xvvh2MA9KPxSgxAT8yGQOZHhuXbxk4mZbTa0HxuH33f9hojDraBWNcwuXclYAXi38cD+zn8jcHEsPC1ecA9yg2p4KQ5/k4VQ88kZAU+BjPW+Kr5CsCBspD/SWx2AcbYOvtZAeKk8obo5H9s/P4SE4nYnaUuyjmWJ7xA1CGw1+TUR5EX0DURyl21wd/PCweWHkLS/H4xqIzQWKzQqNyYmRPhAXxzW7IXX2vodJWXVqEFRAYE3emLH/r8Qb+sM73Ya5Ptl4sjSbATtjYe7lVEdgFVng9pct66H66sL08E2sRRp89OReHMkdizah1bZnSrm7do+EUJYLEi4PRLLlq1A65RO9kq+jdA0OS+cAhDq3cZnxwMlxlIMndkR77/wBXpm9z7ljXF2zNq1UTqcFr//4Qf4+/vhoouGwVaR36AppCHXRqE8dTZQgHulMvROhGk1rGojWDmdDEVrYYAcFeH125jNVPeOjMTW3M3w2xoLncW10Dqqvqlyt8vyNpjVZrS6IQhrvtyA1iWdYFE5ovntqXPtT9ExzSLjpGNf9aa22WDUWNBuXDx+Tf8e4dtbwb3cH4Hh/sgbuB+FP6oRWB4Io84EdqK32J1tYVOL051KBA6HdqGqyp8jldFGW5Gdk42AsuCKd1Ww6EywWG3QWvWAyp6bRe1rRlmZBR4m2shtwiAPm/YiOj8BFljh28ELOW2SUbQECDaGAxozVF5WWAvdpN/c3Lw6sx7aaD4IssJvMnDcPRPHl+XDf08cPHy1CL3cG4WGAhxdnQ3flAgEXeyNnSV/IebP9ijRlcKr1K9Gk4bQ2R8IGO4Ga6AJJT5ZMGarUX7YDL2HGta2RgQVRCHl12PwzgxEcDdvaPsbcWB5GgIP2gtGVW+SGdFiQfAID+ywbESvoCHYmLEeMRuSRMAza6ywaW3QGu1+IuL8bLPBpDfDZrFBY9WdqHukMkHfVo+SQRkoWmpFTFIEMvceg196eJUETHbXRVfhKRQnxbPh0nJljMXlRRj0URvM+b+f0KO4pyuvnFfP0HGK6ZxvmnITrrn6GpEOFXBwXm0BlyZLgMDkQBER4ZIOXB+mQdTQIBiCS2BUlSP561z4ZNIJzZ45kLp+hqdV5MmrvHqphlZ5WhB8vQc2ff0nWmd3h01tqRW4O+Ll2aXJzQqVpxFmgwV6oxvU7lr43gKkrEyD58EgaI0aYfYalRpaK50WtdDoVECoDeb0ivz6FeUUKioEQeWmQfSYCBS0OgqTtRDexiBkby5C8W4zLGXl8NT4od2oeJTF5qIwy4iUJekIcg+Cb4InTDAib28J3Mqo8nbAkSpyptAh6lY/LFu5Au0P94Taphb6JU6Mxvat2+CTFkhogNhhoSjsdBQHVqYjaGeUgJlyWxn0KoYKaqANVEN7YxFM6hIEl8YiZVE64vvEoSghGwdnZcJ0VI3IiKgqGQKrnmMbjDYzEiZF4HDS3zi0JAtR/yZBb/NGwpQI7LVuhTmvHKWGEgQtTUBIvxAcid6Dbv59sGbrb4jZ1A02tXP9hBPMNHioDzaVrEJYcRQ0ndUo/taMUFMEoq/3xb9+f+P4unJEdgqB+hcfBE1wxzFDBkoOGeC/MRYanOwTJmuuA6KvD8LO5O0ISPTF8U9LEGgKhk2lRuyEEOT4H0HxbDfx+9AQOPqqkXh5OP788S8EZEdWLIIZnsE6qK4rQ76mCPpCN2T8mw7LFg9EFyXYoyq4H1SQPazxsogvis7objfp2As92J9R2yocG+1RM4oGwaVro+U/VFxWjH6fJGLuf35Cj/LecmCVVpUCDH1kKGL1zHUKnRQKOCjAdMhDhw6GVqWFz0APmLrm48jhDIS1CoBBX4Lcz6wIK4qD1WZG1BB/ZEVnIP3zXERaYmGWi9gGHXQi0fsmeaBsfAbUBjOSf85HxGH6INQcAqexqWG0GRA3OAb5PVNQXFoMb50vsjfnIeBQNNRT8pCbXgSjzYiO+q7I9k+HpcyM9AWFCCmLg95fC+tlOcj7EPDw9oa62ASPAC+U+eXBkqZBu+GJ2KxZjcB2fkj99DiCEIboicHYvn8boja3Q6uxYfgbm2BcqkfiLWEoNxvhqXFD+p4seFv94N7WDdkfGxBgtucgcW5qqi38LNDcaETGrAKEWiJgslmgs6rg2VeLvPaHUbRQh14jemK390b4Z4cg3Zoh9nufAD+Ej3PDnwt3IcwUDZO5HGF36vHX0h3wy/FHtE8USscWIXvbcbj9GQCdwQ0eHjU73lEytrDWQVsfoXueNgvmTR7QrQ6Cr58/Sq45gsxPC9Dnsu7YvHEDwvcnIrhdIHJH70XyD7kIS46DrzkA1hrXyAazygQrLIgaGYItOX8i/K9E+PgHQXX9Ufzz5W60sfRFydg0xBUnYG/BTkTHt8Kub3YjKbvbSQYlu3bGBrc4DTDZgMLCPKQvzENCURIMVjPirglBus9+FKaVIGB7OEqPmeFm9kPszb44mLsf+b+VI7wo2r4MNhs8YjUouuQIcj6zwtsUIGYOnU0DK/kAtUAcgcaKkDu1KHTPB0w2FO+0omy1Fn5aP/hfrEOpqgC2EAvyF6igL/VCxEAfBSCcK1djQVkhes+Px5fXLUcP916wNjIW91yhhzIPhQKNoQDBY78BfREQ7wPriCKUuBdCk6dF5uYC2FI0CDSGQmXVwq+bDnk9UuDrG4jkv1MR/XcbeN2gxabv/0S7jJ4wW60IGeuO1Da7ULZRi4BoX2i+9oFNVZuZQYPwiT44nnQYOQVFKPvWhqSAROT1yIBniR8y3Q7Bd0UMdLeXwQCjhLAVbiuBar07fIxhsHqWQXeXCR7F7tCV6bD/5zS0uywcOe65SJmdjRETL8bWPzfB2s0GfO0FT5MffEa7YWfRZnRDbxwNP4Di37Ro3TERud1S4O6rQfrGY/BfEwWdTY/Qm72w5ds9iM1vD3X18sRWIKZzBHbEbYTbklBE9ozAweJd8NrvD78gH+SPS4Npizs8uwC5i0zoMKo1duZvReDaGHi2dRMQZvsiAFBbYVSXwutWM3I/scDHGIDouAjs7rcJJd/boM/0RbB/YC2aP7JcFZhyPvQ2HQrV+TBklQEhNmTOL0aCvj28r7NIRcN9/6TAY4s/3Mq9EDHaG6ltdiPzIwPiS9tV1sioae+IgYS+Dbd64Z9fdiIqIx6hScFI7b0Vxd9oERcZj8yBBxAS7otSkxG5y03w3RsAjUkHnYYlok+svcaqhcmrFAHj3JDpkYqcH4yIzmsFiwpIHBiH7X5/IH+pGV0u6Srmlqx5hUjI7wDDzVk4NtuCYFNAZQgjHT1bjQ/B7/+uRav9iWJ6sOt5TmTRsNosCOjti9yOKcj/owzqTC2iLw/H7pW70DtmIDL77YLKYIW3WyiSZxUgzCsMpb2yFYDQmEukJb5TYC1Aj7mx+GHsGnQJ7AGLuqrnb0scszImhQItiQI0L7Tv0B7hIWEIu8kDWzfvhH9ZEMqzLPApD4DGZrfLm72NCL3MA38v3YOeozvjz72bMcJ/NA622YMd3+1G55QLYHGzIPImT/yxcw2SdvaC75XAntmpommoqYkVv6cRmguLcGh+IYKPhyJ+VCT2arehVUI8Vq/9HX2zR8J4TQZ2rdqFwKOt4JHhDy+zJ7RaPSIu98LxiFTs+fEgAtKjkDQhEen6f6ENsuLQh3mItyYhbIQP/jnyD+L/6QRzuQ3RVwdi/fYN6NupD/44sBr9tcNR0u0o0g7mILKfH/794TDi93aWtMRBN2rx13c7EF/YRiRS50a6tb0oAcuPLUXkzhgkTo5FavhOeGUEQa/TYn/eIUTrE5ERcBCxx1vD3K4Iu5ceQsyODvDto8fxsBR4LokWVbh/Kx8c6LUVnt+GwZ1zc9PDbbIJx9OOQ/2bJzzUPnaDzknBFvZoj7jesdgavhqm1VqEakOhvqIEB+dloVVZexi882FSlUNb5gF3iw80dCLtoUf28IPI+LAMrfPbwcQSyLVkViVAKNca4HWtFdlfGOBbFoDwHkHYXf4PAndGI6F3LA4M2AmrrQiZSwsQkNwKsd0iccyWBrfNIbBVRGNwrfVhOgRdrMdR9zQc2ZWB0M0JcDO7ocRWjLa3R2Ddz3+jlW883Ee6Yf/RrXBfHIp4tyQYrktH+idGBBlCKnxhbFDrAO8pavz92Q60cesISxHNBFXdE63uFgTdpMGWhQcQURgPrQUIuEmP3Zt2oOuQLkj3SkbyojRcNGkYtn26H+2T2mKrdpMCEFrSBXUqYylRF6H9ZyFYMXITOgT3FMcmpSkUUCjgOgVYpOiiwUPgG+eFY0P2o/wrT/gbQ6TanYTlCV+yIaS/H/7x3IiIlNbQDzEieUUa4kbEIOubArgV+cLH5APPTnoU981AxkIDEq2t4TnFhDWfbUGnsm61DEiFxIFRWKL/BhGbEhDRNwwFkdkwp1nh0cuKHZ8m44JRFyI3Ohk7vzqEboZ+KDpuhN7sBjcvHdyuNsI7JRA7sv9CG00P5Pc/BGb7MxSWwnBAjZANcQi4R4flX61Ar6zBKNebEXGtL7Z/vQcJnVrB0C0f1jccqZcAACAASURBVHwLspeVINgnDO4TTUiZm4vQvEho3FXwnWLDgdlHEWyMrKHgkgVJI+KxXbsBAUeC4dfPV0pW++SEQmVRwZqlgZfWG7YEA4y6fOis7ijIKETYsXgg3IRcbS4Cj4TCalMhaUgSVpR/idaHe8A9QQWb2gqDrRT6nhbs+nU/Wu/rxXyFNajsVTBpypFwSxg2f7MNobnRCIn1R8bA/cj7qhxhZru9XiXqdqfmaYPutkKkfJ6DiGMJ9qJcdVhn6UVi9i6EtsQTGmZ5tNKJtFzMSipPNYxd8uHWoRya3d7wTPDG8fIs5K80ICwvThw0iWuM5jIkXR2Ldft/QxI6oqxjMYx/WOGZ7AMDDIi80g9FvoUwGQ0oc7PCllWO0p+08PMIgOd4K5Iz9iJwVTt4oCJdtJsNfrcZkXe8DBqVDoXfmuAlGoaK/Js2G4J6BWBbxBoE/5gErV6LqIG+SA05iIJN5Wh1aST2rzwE//0RCL7LA6mzMtGhayesObxCAQiuXx8t9Um7M4lRVYLoee7YOGIv2oZ0hlnRILTUBVPG1UIpwHobgwYORtToQKwvXYrodV2htenEIu0WacWxgmz4l4YibEAAjndIhpfeCwfy9iD4aByOapIRuj4eHiFuKMk2oPXwGGzJ+BOhf8XDM9Ad+knl2P1ZOmJMNWsQyByjegbjSM898LcGIfNoFnLWlaDPqO44FLkV6h2+0Eap4HbIB+pEC2xlNmT/XAq/4iBJ5uR/nQZ7U3fB5q9Cm6yOyGuTiaOrjsMrKwjMuB5oDoXbDUYcmJuB0PI4aEMs0A4x4vhXpfCEF8rdDDCZLfCxBsCmMsMUWgptpockXAtvG4iDbXZCvcRPYvOr808yPp2fGra+Btg8rMjclQXP5DB4WBilcCJJtDi9Vbpx0rWTqYnpPEf3RXskREyvSGwL2ICgHZFAvAkWcmtPK1TeNqT/eQxRzFropDp3bCWOKaitN/Z23wbPL0PhFeiFgLE67PljL0IOxFXmhameqIo+Beo4oDAjDz7l9K+oJzCQeS8YPuiUzZKRGPYUx/ak0Nr2VthCy5CfXgxLihb+lmBo6Kchv2XaJytsASaUFZXBHZ5w62iDwbsUmvVegEqLcpsRRncDrCb6tKig8VIhdngoLAHlKDQUImtzDoL3x4jjo/hdqK3QJllR4laAwn0lCDVEATRlVdCeya2C+vkgveO/8DseAo8QD6nzUfqHFQGlQTAGlgE5HojrFoFdYevg/WsUfGK9keZ+SAEILfSuasCw7Mm3PbQ6WOfkYc+kI0j0bq/4IDSAgsqjCgWoIYiPj0dSbJKo3n/Y/QPa7uwBrU6FkO6+KO9Uii3f70Tr3C4oV5XBHF6CoBAvpEanIKw8GraEUgSVB6PIVoasX/LgqwpCcUGhAAptvAqZfqkI3h51knr+BOVVMNuMKAooRLnFCI9Sb3hqvBBwmwrZugyYD6uRv7wUoSWxKNUXiGOap8UfeptOmKwxygivkSakbMuA39YQmDQWeJvtiYcoM1tUapR4HodnqZ/kYrBpzCj3McCtwEekajI5seKLfwFDO1lWWgMtyzrrbchV58DfQKmUdvSaRGwrTOpylKtM0Nk8JLrCIas7y/t1sV9qZ8wqC4p1efAqZ6Ene4SIRWVCOcqhgRs8bDUnNLJYgFZXheCrvXMx2DAG3gO1+HvLPwjdHgMvq5+wZo681ioJjEZhevpqSZkaczIIE6jBpeMpbCfoUL0vQgXShkWoy1n0yeIuPgiimXCisVlnhjG8CAW5xXAvc4cXuO562QMEVjQmS9UFlQlqqw5mlc0+VxW1IaS4TbQr5a0KYdSXo+y4CV55fvC32mnMsFY+q/K1ILP8CEJKI1FmMSBfq/ggNGb9W9g7PKwa+BndUfJZGpLvLUGMMa5BlRxb2ISU4SgUOCMUYNlhT7UXgi/1wz/WVYjJTERIhyAcKNmDY8vKEFfcBprKgEYb/EJ9kBp6CLa9bjD4F8FiKod7kQ8CTCGwqc1g8mBJHcyUv4xsYPhcNfu9Y6K8oGkTlxwHFWWEvYN9UDTlIFJXHkPIlnh4W/3Fi77mZoXZYoJN5w4dEzbU004kF3JItrW/IL2pVeLg11zNzvpcL3pEmoVf5YvMkGQgV4UDKzIQfcye0bAho7Yz1eaapWvfcdRX4NOO/cd/15vlU9LIWyEhtwIgqKnRSg4YapVqoq5oQixWqV+Tmd2E5Z4dg62cjLXhWcddI5fyVFUK2CSWOFITgaz3tuLIA2ZEmKIkZ3qDTkYtZD2XcgXUd6BIgnNpvspJqZkC1fcB15ypkodeNFSS+qg0Jmj7q1Cmy0XunjKEHA2FGh4Vmekq+qyIK+chE+mrQuUskh+THJ1wIBdJT5ro1+0ydHUfO/vjdrlRyrTbbAiNC0HWpO04+mkpovOS6lR+M5yN0uLpas7TOV3fOJV+SWKLzQyT3gStRQOdSl+llqHDtGG11Aw6HOe+Jc+zYWNzoBzHnqjYsA5/mtruOioUbBUA4fixpjExMHUt7XeuNlcualf7Up5TMToI0d7h2PbQMpS/Foaw8tBKcHAmGF6D76kKW5nzWp6OPeIKLU7Hd5U92vIpEBgUiA7tK8o1U7pSWSWbnT2BkV2tzjS7NbWGCpz1sXF+UZiBzopjkanwOOoPPxNNA/W92fLp3CwjrCUKoc5vO0BcswywZX/EYiVAMCEjqyk1CE0hrrZsurXM0THzmsmMrv0SsO7CJXB7OxFeNo8643lb5kSqjupUc4hXn+PJfs81UaHqV11752ygpjLGuihAT3QW8fLzIxNuOU20sTZXkjq3nDErI6mdAgR9R9PTER0dXcU84Cy4UEBxFlIcv2Pl2cKiImi1GgT4B9T4EVcEIFfWh7keaGI41lQahCofra7ZcGVEyjONo4CkU7WiuLgYnR9sg/XJS5CwZCAMboYaC5jIRxoq7tQ2svNBmGkqWtW1us1Bx/P5TNa7hjaoNRpcOHhwi5PPG6ZSbtwVorzVPBQg0926dStycnOljgTLz+u0OpSUlqKwoKBSA19cUiy1QPz8/KFRq4VR837nH/6be8LPzxfxreLh6+cHtVoFZojNy8uXyAS9TiepwmurLlppSqkI2zWbzMg6dgw5OdkICgqSLLP8WXZ2No5nH28aE0PzkFj5Sm0UKC4oQrv3o/HrxysweOcoZHtk20NcGqNqU8isUOA8owBNpP369TvPZq1Mt7kowPTuu3btQk5OjtzJ/EOmTk2BWqOGWsVwTzuS5e9EiyDCnN32yt87N4INNo1WKwCBfhUEDwQFfJfmstYJraXeDH/GmhgWqxmFhYU4fvw43PRukhGSWon8ggKUG43yXem3wkeBWjUBqAP6DqgXYzcXIZXvNI4C2nI9wuZa8eO9m9G/aBAM2pLKzda4Hs+Nt5wP3bkxI2UWTU0BOmRFR0Wjbdu2Td210t9ZRgGGGGodRa6aaOxlZWXYvmMHiouKapXqm+hTld047j2tTidaCO5xi9lyAkRUeLNUN204axcIFuiLoACEpl6dZu6POC9EFQTVJ+lYNekAOvp2svtDM675PNYgcP5U43Xs2BG///a7JJNRmkKB6hRgRcauXbogODhYIU49FLBLknShbA67WPMuB5MXWQJs0OYzIsXhcN94I4/ZYsaxrGPYt3+/hBWeTY13pwIQzqYVq3Ws9nrwHoGeMP3vEFKusUr1s7MdIBQVF8HDwxPaBkTGOJOIGzw3LxdffPGFAKWbbrwJXl41V4A7nduAh8yhUjyd31H6PjUK9B8wAO5ubqfWyVn2dmPdUjTeGpSYC6A3ekpJ53OhCdxxUyHwdjfs+yAFgeVh9jgSCTetKSi17llTdb9hwwYpBy45Lc6ypgCEs2zB6h6uDeaocpjuOYjwewcgzy/XXuXrNGgQmkNln5+fj4WLFuKZZ55FFsNsGrFWHOfgIYPxwgsvYOPGjXjgPw+I409zNdoXU1JTMPjCwVi7dq14LSsajOaifsO+QzvuoIEDq6p/7cnlzlzCHCkbXZGxUP7d9IzYojXDN8ENeXuLoVd5uuS9bLKa0XlKEtbmL4PPD1Fwt3nXlZuwYQtxBp9mFkm/Xt7I7ZuOkg9U8LcEoMRcBJ3OXTJRNjSaafeePcjMyDhrNbgKQDiDm7HJP02HlvZmHLv0X3R/bBiO+GVCZbU7wjRlKyoqQr/+/bBj+w6o1FJP7bS0w8mH8c8//+Duu+9BVmZmo76RmpaK1avXiFdvVlYmXv7fy9Dp7CVQT3cTcHLhYDzy30dQUFiIkJBgPPbYY/jrr7+gUWvqzX52usen9F+VAm7ubhjQf0CVH3pEaHHMmgnPrMCKinnNSzVmvLPYTJJVUW9zOy0qfXWEBe5jrciaXQRva6BL59krzAOFE4+iRJ0H68cB8DcxVe/pugmajuY8k+V09lOroKtB28/shEE3eeHn5T+hR/pQlFoLEDslDOlfHINXmS+YhMrVxm+tWbNGnBCb+g52dQyn+pwCEE6Vgi3ofRZtiZoUiI1tV6H7S4OR41l4Mqo/USFFRt4Q/wQ+W1BYgBkz3sMFF1yAG2+4AQcOHBCJ2OFt61CjOfqtqX+HowwTatUWgsOx0ct2w8YNGDVylDD1hh4yqvXHjx+PwYMHo6SsBL//tgq/rVwpYUTO4zpd2hCT2SSai+TkZLRv1x4DLxiE55/7f/bOAkyqqo3jvzu9uzPbvTQsnRIqYTf4id2Bit2BIigottgJqCgGoYItWGCAAktId8PCdk7fe7/nnNmBBbZZcBfnfAEPc++J95z7vv/z5hP8OOvHBnRqQlMJUkBolo4//vi9Z1J4fLe9KoXft8whYV4rzBxuzZOOZlFlgR6rzx7Im697aTo4kRUblhOzKi2Q0798M4AvtRTjDpEtUMyv5gJMdCN6M7TWKey1C31KJHYc1cj5wB262fmJfL9nGh07tcf5gRWHL/awHCRdN+GPLMbn92JzOco8+zWMQt2v6KjSNUCUegowNk1R8NlL8Di92NVYuT65Th1EHYPEUyPZUryJqD/T8CgeTKKQkazyECCdEgPWS71snphNijeNYmMxiVeGkTmlgChvQo01CIJK+fn5LF2ytNZ867AQso6dhgBCHQnX0F4TNi7ydHrf0pHJ4Z/ScWIfVMUvS4BUJlhFOEyTpk1Yv249EXZ7tTYyj8fDs889R9euXSUCF4I3KjKQUMbldtOmdRvWr19PeHggOZOI123fvj3Ce1fG5Zap9oXTztChN7Fi+XLmz59fIUgQB7Nnz55cddVVDBkyRCauCQr14HqqAgziWQEwfv/jd+69517Gjh3Ltdddi8vpwul04vV6iY6JlkxBgB57hF0649S3+SEpKYnhjzzC1q1biYmJYVFGBtNnzJA+FeWToDS08/RfnY+owRA8A6VKCS1vjGHtJ9uJLU0OmKAPY1NNKmmXRrH61w3EZAbGc+rFNLkhihXfrCU1q81BGoSwJCvFJ25D/cyOCVF2WKR2FpKuokLIFU1eI7JHGJtTVhE2M4UwLaxaLYXBbCbmFlj89yKiWzowf5ZAmO4IpIfWdYxWAx7Ng8kvhK+pLG10oGiRqAVg1sW/VU9M8UxsOzveE/MoLC6idLKJcFMkkS3DcVNC8XoX6ce3YMP6tYRlx6EavKSeEEde292SBpkfOonzJQWEuq6ReHY0eemb2bZuOy2+607c6TEs/mcRqXmtJNjQdJW4YyPZ0X4V7qlW4lxJqIqKK9KJuSQMUfoizGHC6XJhUQWtAxUbZWiirG8Q8FMI0kFcbtwudwggHMZvJtR1DSkggIAx18CJ93dnQuZEWs3qiIIFV0lpoKRoMJa1XH8i+cUfv/9BUXERjz32GLk5uZWmyRbxu1deeSW9+/SmuKiY5557Tib2EELa43ZLITho0EC+nDGD555/Xn40zz3/HL179UYAgrvuvEsKSSGYTzjxBIYPf0S+N3jwYJmQQwAMwTKERkEwaAFeXnjhBSlMf/7pJ0466SROO/00qZ7//vsfpCNZVQBBqPX69+/PDTfcwN/z/yY+Lp6RI0fKvt//YCKpKSncNPQm1q1bx0svvUT3Ht15/bXXWbBgAcKEUl9NzEMApKysLGZ8OYMPP/iQf/75p1EzjfqiTUPrx2azyRwIwXNlSPHjOjUXPo3CpoXV6PZYG43cfutXNOxR4bguyGHHR/kk+1JlmV4tzI/tSj/bPs0itaQZmiIKP8l7v3w9pmsUa1v8TfQ3LbFoNllt0RdRiqHIKqsoVt90Ek6JZAWLiVgTjzHLRpg/TL4m1yKKMhnLay10zG0VinvuoO3uXszLmk3iqjZYxFgiLbWm0u7sViy3LECfGUG4z46KhqO/FTq5yFyaReTfaaJERbX01C1eIoeY2FO6C2+RD9uXybQa1ITNYauxa5EUG/NIjmzK2tkbSN7QiqjjbOT130rJLjd2ezh5H3mJ86bJolaJPaLITF9H9i9OHM5IoksTsN/vY8U/q4lZm0JYZhRJXeIpOn0b+VuLyP21mGa5nbEn28jSttPU2A7XGdloZj/FxUU4PzfSvFka2y1bsW6MxBhmwFAiwIFJ+jMKPifMC4Kf1VbzWf2eHbknQhqEI0frwzqSrNKVC+c/PoDnMl6n5d+d8ZaU8unUz7CaTDJBxv6ZswLhj3a7nfj4OHbtypTCOiJcOCnt38Rz4rY9fvx4rrj8CqkZEMw02IQQ/GL6F/Km/vbbb9OtWzeG3jSUx0Y9xh233cHxfY+X2b0+mjQJkYjm62++lmCjffsOzP3zT5mk49FHH5XAYdKHk5gyZYoU0vMXLOB//ztX5sV/6KGH+O7777n22ms45+xzJICo6sMToOf7777nrbfe4rbbbpNAIb8gX6qQ7733Xun02LlLFy675FLefOtNnnn6GV586UU+m/YZEyZMqJAG4h+DyUvEmkW2MdGPAB0VmUqExkU0YdJok57OmDFPcNFFF2Gz2ho10zisB/lf6lyc8bS0NNq3ayc9zr2Kh5YnpfGX/ivRfzbHptiwJplwFbgwlUYgCveWb1LTbYPU02JZtHApyVlpGDUTmqLiM+noml+W39XxoxsUDLqopmeVwiRwl9axt4ig5KzNRBWlsn39TqIWJBDVJI6c/hvIneGjaXwKjn4W1i7cQOyWJrLvVgNT+KlwJi3WpqOYjTQ5OQWnI5dl47fTSm1dLTX9fp2Ey8MoSN1JWHEUOWtyUeZHSoe8iPY2DMkqmctzcOTEYNYN+HSd+PMszNv+B+2XH4cnugh7swh8uHHvUNGyjXQ7vy1Lov8kOac1Bd85iWsZh/vM3RRo+ZQscJOc0Q5d6PyrUMn4dZX2A5uyosNcTLvt7PmumOTCFvhjSsn35IM3nOZ3WDGoBjZ/nklKTksSr3Kwfucq1EIzRWtKaFbUCkWzYI4zED5IZfXMDaTsaSW1F4rJiO3OAlyKm83Ld5D8S3sUm451iJf1E7fT1tVFgqMmZyawcM9fdCvsy67z/mHVtE30Pr8va9/eRr+berHRthzH4iS0GB9F3/kIVx2S5mvWrJFa08beggBBRmGFEiU13u0UWkU9V2fw8/15ZvqbdNjYBfwaRaVOwqw2mWlLCCqRLEMKOlHjUyYC0bngggsZdO4gLrn4YsLDDgYI4gYsBPj2Hdv56KOPsJj3t8WKm/o5A8/h4YcelsK/d+/erF61GovVQq+evbj11lsxmoy89dbbdO7Uifvuv59rrr5ahhuKg3fZ5ZcxcOBAPv3kUy659BJOPfU0EhMT+fPPP+jQsQN/zf2Ln376if4DBrBixXJGjhhJdLRwiqq4iTXt2b2HNevW4na5uPGGG6UfQKmzlBkzZjB61GipKVi0eBFvv/U2p552Kl/O+JJRo0cx9Mah0kxyYBM3AuGQGeDlOrl5uSxbtpxVq1bx0LBhMjOZ8MUIFioTY40aNYrk5GQef/xxqaUQ4Gf27FAehob4lYlz2L1HD+JiYolpHonSyYnWwkeuL5OYkhR0q4o3zo232MieaUUkFIrwt31NAHRHDyvefjm493jwTY/AplqIahmN5QQ/RZ4SMn8soGWnNJRYP4WeIkrmKESmWCl2lmDJCiOyuwPn6VvJnZtPfJdYSt+zkN6lPSsd8zEviKbZlTFsMqylZJOLNot6E36sEVO6So6ei8FtQonyku3JxuIJY88kPy28TavwSCiL6/epRN+us2bHaqLmNyPyfAOb38+haXwbwq5wkuPJoXBDMfE/N8esWIntEoOn3x62rNtB1PctaXKjnUzHRgp2+GiSFsO6j/M46Zx+LLL+Rul0M4n5aSRdF0m2YwvZ/+TiWJCIzR+DxWbA4/Fi0iv261ANfuJvs5Dp30zeJyrJpU1llUzFYKHF5bEsLV6JIcpHVGwEWz/MpbWhDaZzYdPUTSTHJ5PcO5mlPy4npagFSadH8rfvJxLndZJAz5RoRAn3Yx7oYueOnXh3qcT91RKHw47vsny2T8qjqacFflWj2RWx/Ll4Dn39Z7DpmGXkzfTS6aq2rJywno43J5JvKsVo0Vj/9U5ar+8qq2h6fX7mzJlzVEQr7QUIegggNES+VeM5Se9cv4f+YzvzybMzaFvQJeB/ELz1HuBjHEynKQStCCW8fsj17N69+6CbrehX3JJnz5nNddcNkWaBA9sxPXvy+OOjpVrtxx9/5NVXXyNj0ULWrF7LJZdcwuOjR7Np0yY+/vhjBg0axOWXX865/zuXxIREmXL022+/ZdTo0STEx8t/f/CBB+XtftiwYbz33rs8OeZJnG4X9959j0xT6nAEUHplTQCaoUOHMuSGIZxx+pnS58BqseByu5g1axYnn3yK/HjnzJ5Nz149+fzzz+nWvRvj3xkvtSRCy1G+5eXl8ehjj9GpY0dJn+bNm0sgIP0+DDr2cDt5uXlce+21iNBMoTkQ0QrC/+Cnn39ixIiRzJs7l5tvvlmmPj0wXWqNNzn04GGhgHSw1XUGnDBAnovOl7Tjx23TadmvCSs+20B6bDrKGW52rsumk7sPq/LXkJzRDOPeevagmTQSrrSxcM5iEjObEOGzo/tMpAxxMH/xr3Rs3Z1t9m3EN3OQlbWbFpEdUYt0PE4XtkQLOyfmkdozhdzmWzF+kUD01Rp7JmikD2rJslV/0zv8OHaesQpvvp/dn+i0NKSinaSitilh57giEuzxpFxpJ0vdQeZHJTQtbAN6VQnB/NI/IMYWheeWHayeto3mBR1xXKaw8oO1nHzOmaxNzsC8w07un8XElMYh3P5jBodTkJzL2o820HpPV2LuVVny21Ji3c1IPiOcNZO3M+CCAazWFmD8oAmOCDv6xbns/qSEOH88Jt2KN8xP+nXRzP1oJU2LmqEfEGUlnJgdTW3k9NuA8zMb0R3tGFuA6zuVmKh4Yi4zsiVnI1kzSul6Y3tWTl1PYlEr0i6Iw526h9ICF3vmFhK2JZxwXzjJ/4tlfdRKrE4H0YnReBUnu6YVYSwyY9XshOs26bsRlmKh6NTtFE+1EOOLRfcqJN1pIOPrZRxnOZ0d6WspWqCScmU4myZk0axFS6zt3BQm5ZD1iYdkTzPJb3fs3MG6teuOCi2hBAh6wEQd0iAcFvZzZDoVG1miFNP3lfZ8c9MvtAzrGChJKzQFlbTCwkKmTpvGi2PHyptwZfYycVue++dczjzrTBmeJwRuZGTk3l6Ful0UubFHRCCEqYg4+OXXXzj22GNliM+XX37FM888zepVa8jNy2HEiBFcffXV8mb/22+/yWdXrlhJv/79GfbggyxesoTHHnuU+X/P5+xzzmH6F1/w66+/Sl3sxx99zB133iGLiFTUhHAWJoXrhgzhsUcf5auvvpI+DuJ/4lYvwIjd7sBsNskQRKHZEAJbaBbE+hx2x0HOg4K2KSkpnHbaadLs8ftvv0kwJMwsd911F4PPP59JH37Id999J2ko6Drnt98YMKC/NF20adNGgoW5c+fy1FNPyXeFaSfUGhYFhInLrJhQw/24okpwDPSSNclL+yubs2TRP9iLYml3WmsWfbWMptlt9mrIZQbTNlFs776O0q814rypcmFGu4rxyhK2v5dLj8t6sC5vI46uXtZ+vp1eg3uxbfMm3J/Z6Dy0DatnrKPtgNbMz5xHN7UvOa3WY/20KfG3mVj87Sr69D6Of/LmYvonGrsrgghfNKnHxrI0dh6OH5uR0CeSrbFrMM2MI0KLlq6BZb75lRA5EO2Q1DWWzGPWsnNyCU0NbYi4yseqiRs599Izmf7Dl8SVJGH1OwjXIqQ2QhVA6IYwln62mBZ7umA8sxSluV+e6R2/5xK3ownpA1qwsd98XC9EkJbYlOwT1uOdZsOshBHfLorwk3Tm/TaP9FU9MWAsl60wMFXxvTnahOM8axfxWiKZBbvZ9VMOabltZV4Xl6EIExbMmhWXqUT6Y9j9NtyKH4/BL00hQjMhIj4EDbw2J77mpbhNLly7PXIfHT47BuEsWQZORILD5JOiWKctJ3xuMlbdhslug0G5ZE0vJsqTgN8kLkcmPMl5mHbZwKqTcnIia5xLifs9HbNuRvhq/Tp7NmbTvr4b1imv3WyC4Fn6o4RMDLUjXkN6WmxgsbmYXi+1ZM7AJTRp0QpN8VUJEMQ7IhRHqPqFAK2sBQHC008/TXp6Oqeceqp0GmzZosXeV8qHCgp1bV5+PtFRURIgnDd4sHReFNEPwx4aRkpyCr/88osUlmJcR2QkF15wAd98+y1Ze/ZInwQhyO+4805eefllKfCFpuO1116TWojJkydXGm3g9Xn57LPPJOCRtn6DIs0NTz/ztIxUEL4NAuAIVCyqpIkkJsMfGU7Llq0YPWrUQdqD4ALFmsT/BAAI+hsITcbb77zNVVdeJX0ihFZBMBy3x83kyVOkmWT58mXcesut+FWVBx98QIZsPvvcsyxetLghHZ//9FyCZ/eEE07AaLagaz7iTohhtWk+6St7kH3KWnK+nVcrJAAAIABJREFUM3HsWV3IKJmH/acUHP595aB9uo82/0tj/tb5xK5KweIPx0cprS9qza+7v6CHdQC7I3dhXRKG6XwnuV94SDzTzo5PnDQLb4F2fgH5H7hof3Ublu5ZRMsWzVn06SraZ/XAfkcBGz7Jo+tpndisr6VDRGe2525B+SGWZjfG8tUPX9B1R3+iz7Cwwr2YpIVtSTomge1/78BO5WY4seGqqtHi0lgW5P6JfXYqTbs3YXfnrRRN8dLntJ7ktNqGoips/zyXmNxk4cSP8Nf3tCvCmVBM7B/N8CoqRqNXmt0MmgUFI15LKWEXqWTNcBKlRhM5BCxYsSgmdhbsYsMv22mR1xZbmb2+osOnGzR2JmzE7XWSXNIUuz8mkNhZJK5SdKnKl2BCFhQyynn5FA3h5XGgb4MwTSD0qcHiSAGog2FvGmXRh4Ju0vDrGlYtkBBJNSqUmPOI9ETJZFVifBU/iemxGE9x4cGNJzqPNVN20mJbRwk4hCO20JYeTS0IEkIAoRHvqgQIEUV0fC6ZdafvwtE2Dr9SPwk6xO1AhByKW//mzZtl2mJhdqhpwiGBqoVwvf/++5k9Zw6LFmXI+00QlIjfxDPSR8JolH///c8/6NGtO3fedSeDzxssb/9jnhjD2rVrpRq4MgfFfTYznSuuuFyCgV9+/kX+GRTsQpj36NGDu++5h0iHg/iEBJ566klmzZxVK7uhAD+iiInI/RDMBRF0YvT5/TKUUdBOrFNGe3g8kjWJOu4mY6geREP63MQZbN2mtQS9ikEn5gYbv321gOMcfXGdsg2L4mDHqu3Y56dh84bL0urB5tY9pFwTw6Z1q4nPakZkcxvutsXokX7ceU6cxW5yZ3lJKWmJ4Vg3+RklxBKF4rOSdE40f+fNoeWmdkRfGsG27evw/GEjLi8VR6qFvP6b8X0eQViUBW+7fIqzVaw7Iol0R6OnuSnJchEpkhR1VIg40YdP9ZG9JgfDvDgc/uq1VAk3W9ht2U6410FxUSH5P3lJyGmKZlJxWUow+YxY/REYpYAMNBEVoBlULJoRjWCtgv13U1UCuQqEMNetGl6rC/wKeAxY/TZE5oLqWwAEyLDB6h8+Ak8YwKISd52NxdOXYSux0+TaCLI/9BHtjsPpckutZ50jWY7ACuo6REiDUFfKNZD3xEdUGFtC0zHh7Dw1n+j0RLwGtdrcBjWdvhDawbKkQuBVleCosj6FsBSmCHkLryS7oziIAnh88+039OndZ68qXjgICgfLoBNgVfMO3gjFeKKJKIPygEL8+08//8xtt93K1i1b+fLLL6VvRCgFck1Pw9H3nIzfL0u1rNl9OG5QyZrgJdwXiSetAK/ThyXPRrgWjSKz6e0z3flRsbUxorR3So1dSU4JxRvcRFri8MaU4N+o43DFougmmZvEKHIy6gZU3U/i6TGsWryGFsnNcR6XSe4kP9FakrwpWyIUsqIyiclMkjdYr+KSgtWiCcc+IXwDCYDkbdegoka6KVVLCSuNwKYF8hJU1sQv8jvp7CY/uwCD14DFZcXmsUswIEv9CgW98M+QJYaDfQUKNAUpUNkIMj/A3rfE7b0sHVFZnoDgvIJaufLz3C/aqkEdNSO6zY9xSBHb3i2kZ6furEqbh21mChFqJCtWrJThzAdWRqxoCY0x9LHeNQhBRl2bPa4JcQ/srzESuzY0qcmzklGk+vHfW0DJjRATE48oWRpA4IEW3I/y5oBg37WhYU0QcvkxDvz7gWNVNC8RCSFqJ8i65jIZSQ0Sq9TgGbFeoUH4dfavHHfc8Qw+7zyZX+HOO+6s1vmx/HkOagokfSsYt7qzXxt612T/Q88cOgWEsGrXtj3dT+3IqtTFxMxpjlnGtQuRKIScjiqy9kmV9f6iUQhpj+JE3JxtmgmzbkVThKpaFVZ2qW8QWof9/QJEOKVf+guIZEULon6m2R/dCVcD5gv5TcukR+K/FZ//vd/2XpEdEOzB/6+OKiKVmln6AQggUNs8jNX1XvXvQvu2ZPFibGE2IsIjUDWVgvwCYmJjpNnT5/XJ2iUN51sxQriOcm0BO8YVcuJ1xzHz51m02t6RvOw8/lm2bK9T+KFRpmG+Xe8AYb9lCvtPOSFVFUqsDCTUtupYXQ6WZPwBadowd6mSWQl7WnLrKNZcugD16ThiiJZMqUqxWkOBWi0hDgOtAjccUQFxX62H4I4cCBaCpWeDPLu88K5o7oIx/fzzT/Tr24/33n+Pie9PlAmYDCbByqsHIuVBV7W0qeaBQz1lNZvtoc3yUOd4aKMfmbfFmZERPwYDrdq3xhETjk0JlwJdhPUGcxVUdT6EGWvnrl0yY2ZcbOxewVbdeRS/r9qznFW7V3JSq9OIs8ftt2inyynnIMCyALdCIxa8we+NVApE98vIpYouBTW5CFQEaivixcF/q4q/7gX9e+ez/0kV2kghUEXUz/7hovvMCZqqcsoppwS0lRXwqgAM2nc6a/rt1v1EKShhOrZrfGyetpWWlySx+eMi4goTpWnBI0Kh90aNSdXOUdXqBSCIMK6gfXU/+uyDuvsRrbZCv/zLBx/QOmxKFULywENe12IkNbG2HXiSanu2RBhKzHEWFrT7gWaf9seiCjtf1a2yMWordKp7viJGIkMEq2tlN6dAqtR9Dx/UX1lf5c9SlcpVHT759BNOPvlkZs6cKXMfiNtLVQymBrOtbjXV/l4dHavt4DA9UOtzUl/As77XU8mZC3oTlGdRUvgoSIfali1bylS9AcEbtIjvv1sul5O1a9ch/hTDpKWmklZWubO6i4ooIrZ542bpNKcZ/aSkpMoU5uK9nJwcsrKzMRgD5jVh6mvWtClpaU3kfCRQKEfvA4XtgSSsTqjL38vMFtKfRxQaMigyzE2YYIJjBrUaB55Z8Y4Q/nm5ufLPpOSkANXKcojomirTna9evVoK1KqayMooNInWconFpMOc0MWomlTnx8bGYC7LyyJoI/x7jEahk5GE2du99BdShSOxSBqnSTPmfhrBGlWx0NENKpFnmcmK3sSWjJ20W3scq1etpbCwQF5mpHa1bNT9DVH7r7S2/KQh8IZ6AQiCDGID5J/laBJc4N4/K1HLVqY9qArJlid9dardyg5kZWrv4PNVaTzqm4/Vpb/8wnx63N2WP50/0+zzHiJHEob9duBgAVtXWtWW6VS0nsroKTUHtSRAdUCoou5++OEHpk+fTmpaqsxZEGbbl162JsPXdo416bPSs3koL9fDu7Vda03MQfUwrVp3URkoLb++/ZMKIwWzSNBlDgqdcqPuysyUglA4n4pIn+DFSJxtwQOFUGreojlt09tWOtfS0lL+FvVIyvFDKZjLwIzoS/ymlpVsF7+JOYrMpu3btZcOsGIsGXocFVUjU1zVQjnAtT1eDxs3bGRX5i5MJjN+n48+ffoQFR29L0hA1DEpKCA3N4eE+AR50xfZSjdt3ITX55PyOT29LSmpKdL3SNQl2Lp5Mzt37pT+PgfKh4qEoAinPuaYY2Q4smAMqjDleDwsWrQIn9sjNSqCBmIPRY4WkZxNhDGnpqaQlJgkwZPIiyLKLssQ7LLCcqLmhghTLs+HKpM9+9FLRDsk+Sjsuh1lXiS5qwrYtHGrXGtthHiNLkg1POFH6nurN4BQw3U1yMcqs69XZLdvSAvIzcum+9OtmPvXAtJ/P0bG/FZXmbS+AEJ1dKjuBlXd+/X9u3BSFEmLrr7mak45+ZSj0uu4vmn2X+1PmKOENqB9h/Z7NUziuxGZOUVET3Vn+8AKkeXpKKp9zps7r87lgAUAEYImKJjEbbt8hlFhmtgvM+rBrhP7basILxZ+P2JeYl0i54loQZ4ogEhCYiLJSUkyTHjL5i0y7XrQYVnMRQirAwWtBEuaKvuriZPxgWdNjC8ykpotZrKzsmUNGBEhFGyV+QZJ+mja3uio8v0KYCEKwMXGxkpwJYDNgP4D5Nyr21NJE4NGYX4BizKW1Mlhuy68tybzOpzfaYMACAdu9uFccFV918QR79+aW0Xj5uTn0O3Vpvz51VK6zu9JkUWUet5nv29Ic/235xJUg4qbRYQ9IpTZ8N/ekAY+vhB8QtDHiNszkJ+fJxN11YRhCwHVoUMHUlMDyZOCAlecvQULF0hVeU36qY5EQb4pbtzhEREy9bfQToSHhUmfCHGjz8/Lk/Um2qS3kSaD8k1oCkSK8ermU54v1oVH1uWdIM3En/VBq/LrLu8gLZKhte/QYW86evGcuExUFM5dVFjIwoyMGgOK6vavMfzeIABCYyBUQ5xjbm4+Xcel8fsnS+jyzzGUygxjh99tpyHSoiZzaugaoZqsIfTMkaNAeUFS2xBfATBEJs2kpEQJRkUZcpHWXBbAqWd/jf1uptKfoJwTn3DAFgXaHHYSE5Ok4HM5ndLPQYCJ2q7ryFH/yIwkaGO12WSCN6HpECCrpLSULl06Ex+fUBYborNr5y6Zj+VwAJYjs9K6jRICCHWjW4N4y13oofX4WGa/k0Hndd3xiuxmtbbmN4ilhCYRosBRR4H9bc5CFV8Xz5n6I0tD0dTW34oOX08CyDkiHVKL5Cx1Sp+GmpoiDt+sjnzPIYBw5GlebyNGOaOJeVfn+zHz6JzVFU0JRF6HWogCIQqEKBCiwKFR4ECNY11NJYc2i3/37RBA+Hfpf0ijN1eboryaw3f3LKSTofMh9RV6OUSBEAVCFAhRIESB8hQIAYRGeh4Emm0W3QT3fTv48/61tLO3b6QrCU07RIEQBUIUCFGgIVIgBBAa4q7UYE4yJKmtgnb6HvSnE9D3VWKuwduhR0IUCFEgRIEQBUIUqJoCIYDQSE+ITKZyjA9nh520eP0YMmNyG+lKQtMOUSBEgRAFQhRoiBQIAYSGuCvVzklHV8F0to+smM30fOcUtsTsrPat0AMhCoQoEKJAiAIhCtSUAiGAUFNKNajnNLxOneQ7bCzNWUrnKcdRFF7coGYYmkyIAiEKhCgQokDjpkAIIDTS/fPlq6SPjueX5bNJ/7k72r8bYt1IqRiadogCIQqEKBCiQGUUCAGERno2tFyVXq+0ZMqsr2izsHtZvfpGupjQtEMUCFEgRIEQBRocBUIAocFtSc0m5Mvx0O+dtkyc9DXt1nUjUJQ11EIUCFEgRIEQBUIUqB8KhABC/dDxiPYiciB4S7x0H5fM1Ffn0HF7CCAc0Q0IDRaiQIgCIQr8BygQAgiNcJM1Tcfrd9N+fCTfPrmUDrs7YqxVZfJGuOjQlBstBf6LKWob7WaFJh6iQDkKhABCIzsOim6QddkL3fl0mZTALyNX0ja7naziiFL/dRjqUsP8SJC0viviHYk5h8YIUaAhUiAE4BrirjSMOYUAQsPYh1rMQkfTDRQ6c+n4SQx/PbCF5oUtUWSlOFGsKdQqpoAAT7UFUEc+NEQrw3lKFdt4JEDb4QFgYlW6LD8s2uEZI3T+QxQIUaC+KFAvAEGWNdV18enLm2zow6+v7am4HxUdl6eQlh9GsOKWLNL8TfBL7YEuuO6+l8rVhS/jyAd3eOAzh3fq9dd7+XXWX6//ek9iG6X4rAoh/OuzPHgCmqri8XolH5DKrLIFBHjCAdgsuLbyeK3cO5Utb29fDXD9R2xKARZbOdYt95vgw1arFYMhoHUUexLizZVfH47YHjaigeoFIIi62Sbj/n70gW+/tje2hki5IKtrGHMTH7imKPhNLnhyDwX32Ug0JaOj7aX2Pv57MP3Lr6YqhtuwVr0/7eWqGiuwOeAYBRm2uFUL/Y+xEQIfsR9mk4nLr7gCQ7n5y7NadnkQwFX8tFd7gHIAd9D3goqG8aU1rFlUxkmrwgqqqjJz5g/k5oTSsDes3Ww8s6kXgFCZyjOEVuv7IASuDwIK+MwuIt5wUXiRFXu0A82g7b0dVCb4hdCv6LeDwICu4/Z6OLbPsZgt5nKLCDL5+l5Xxf1VJSuPEnywT+Gj69JMtGnjRvZkZWE0GgMQu5KFVvZt1cWeXNEYVfUf3C3xjHhXCKLzzjuPs84+m8+++ByD1IIEVSHltCFHw33hyBz9Qx5F7Mv1N1zPK6+/wZKMDAmoQ/z4kMn6n+ugXgBCZYwsdCAPz3kSd03VruN/IQv1IjuO2EjUcgDhUEfVNI3k5GTee/89lixegtli2c8HsjpVb121DwcJqirUzkfCDn+odKzJ++LerAeu1iQmJLJ962ZGjhiBxWaryesN4hmv2827747jzbfeYcWyFSgC3JTTFpQHFFWBngaxmHqcRE1A1oHD1RfPzC/IZ9y4cXz22XSWLlyAv0xfU1/91yOZGnRXtQXo//ZiquKLddn7egMI/zZh/lPjawrGVIX8YVtRb7ETZ4tFE9e2+mq6zimnnMwjj47k2muuZe3atQH/x6DPXlVDid8q8+0r9175gywPbm1t7vW43PoiW1360fXAwv1+PxdffCEDBvTnoYcfxmZtHABB14QGwc/3M7+l17HHk5SQhEloFuSqDnY2qIuGoy50/a+/k19QwPhx45g27XMWZSzcqzmsi5D4r9Pyv7z+EEBohLtv0Iwktoth7fWL8TxsJYlUdEWtt5X4vT5uuflmrr1hCLffejvLVyzfq+quiQd6XW73QXV1+UVUxcwaG7KvfHMCQtTj83HuwHPo278fw4YNw2YLqxRn1dtG10NHQtsUabfz7gfvM/isgRgj7Zj3AoOKvBGrHzTov7QPM9YWPVY/xtH+xD6AMI1FixaFIkeO9g0/TOsLAYTDRNjD2a1Zt9K1U3tmXTQd/akoEnyJYKi/EEev28nzL7zAH3Pn8e2330kHtLqx+sNJhaOrb5/PxzkDB9KvXz8efughbI3ExODzeLn0kkvo0LULTzz6GBazGVWGagrTSd3UPKq0lwtFVNBlPwQQanvahYlh/PjxTJ06lUUZi/a+HtIg1JaS/+3nQwChEe5/mGbh+J7HMrn/BGxvpuBQozHUkRkfuHzBijN37+LLL79k+CMjycvLk+AgBBAO70FprAChID+fDyZO5OMpk1m0MAODMDlUCBAUXD4vx/e088eiVdjMrTDJqNx9wl9ohZxuLyf3s/DX4nwMxDS6yAZNV8gvySLaEf+vZjcVAGHC+AlMnjxZahCCdA4BhMP7HR9tvYcAQiPcUZtmo3+f3nx8zDgi3m1KuOrAWI+XrC2bN7F40SIuu/wK3D4vhlo7CDRCov7LU26MAEGEMHo9bmbOnMUJffsSmxAvIzECYagCVQY1AMKFRSGzNJw5b+WwJ6eYe57SUUxJZQAgEKTrLC1mzMPdOKbFIi57MA+flo4R4cbZOJrQ4cVF+7nj0kLuezWJaJuYu/jXumlSgm/VZf0hgNA4zkxDn2UIIDT0HapgfhbdxonH92ZSp7exf9CccH/9AoS87Gx+/+13zrvwAjn64bp1SAc9pfEIgMN5VBojQBA3/iZN0nj6mWcYPPBcouLjyqWnkPEZe3VPIrmX15bA+HtX4fFEM/Wbbfy1rgUmxSR9Lbw+D6cM7MoV/WZj8Dq5eWQY2JqCIqBFI2giNFhVeeSB01C2j2X0lD44yiKEdV0ty3Rac6AgaOvyegizCo+OQMhrbVoQIEyZMmU/DUJt+gg9G6JACCA0wjNg0qyccmIvPmwxHsfkloT7wvZLUHNIS9J0WrdpzcPDhnH5lVdidzhq3J1wWPP43URF+PB6zaAIT/zyIQ3idunD6YXUZBdp8V6Wrjdh1KPkTfFINDGKT/WjGk2Eyax/FYkfHa8GJoNSpj059Llpmorqc2G02DAoBxfnbowAwePxcNXlV9CseTOee/YpzNYIqSmQWRAUXeZDCDYRGpvvM3NWz0y6dupAStQfjHwtGYslBk1VaNbEz+i7DMz+qxCDL5v3v26KxWgFQ6OAB9IJ0KcqEiDM++JZ5m7pBkYriu6hW2cTS5ZlYzAm1UibINJtF+RrPHRncz7+6E+ceguUWpoQ9wKEqVOkD8LhAvlH4psNjfHvUSAEEP492tdxZAP44ZQL+jDJNJ64r9Kx+W2HzACCGdlEJrzBF1xA27bpjHhkBI4aAATBHD2qnyZNzNxxTTLNE0t4+LGFZDo77AcPfEIl7S3l2kta0bdrHrG2Et6evJt5K1pjwI+oUmkxFuLXwkGx1vvNUSiyS9zF3HBZC5YuXcSKTa2xSOfO/e3gut9Fly5Glqz0YzFG1HGfyglHTQARP688mcY9w37DZ+uMRd8/6qQxAoRCEUo34V2mTv2UfxYsxGs0YdCEc2Igq+eBol3VFXJLnEx+rSPJpjlc/aBGidIGs9HFO0+05PlXpnPLLecz/r1vWbHzeMIMnkOm/ZHsoKAwl8/Gn8Bdj0ymxNcDAxqx0SbeGaXwxNi5LNnVD4vuLdOyVJ64SJhuCpwGPn4ljuEPzaHE2LFMA1Hz1QScFCcwdS9AkLrAmncQejJEAXFi+h7b99CvRyFSHkEKGHD6XJx2e28+2TiRJr92waQLNeShffwCGARDBx9/bJRUS07+bBrh4eFVrk0okp3eUq65rBVn98wkY/4Gevc0c8soN06lPSYtYELQNR9tujbhhnPtFO6cxSMv5TN62HmsWvkj3y/oLOO0Nc3ERy9EcPNDy/HSSqqo9yXk1fHrQtla94xwXp+XkQ/1IsI/C5uxkDueSSLCFrPf+oQqPMbk4d0X7Nz16DJ2l7SvIrFDDbZd03H5VK6+tBMnd5jG3WMU3OZjMOn+/V5ubABBnBW3x8M3333HWaedSXRkOH7FgPhPZUXDBAA8pkcYFw7YSmx0LM+M28by7Z0Z/VBrdq/6lNe+7sAPb8dy/dA/8DuOkeaF+kzvUYPdqvMjAgMWaC5mvhzBefdvwkZrTLpO89YJvPbAaiZ9to63//wf8d49KAZBo0BW0wMTTosJiNwSyXEGHrrNzd2P5WCwptX66w4ChMkSIGTIiJBAQbdD4xN1JlDoxUZJgRBAaHTbZiC3KJfjn+7K39N/pumKYyg1l1SiKq/54gRKNOpIp8R3332XF8a+wOZNm6voQNy8TRSUlPDSiKZY/Ku45/kCrrviIqZ/PQ1NFyWoDQj7q6wzYFJ5/4X2rJ07mSemtsNZYmXaaymMGbuQ7SWdQPMSmdKRSQ/8zJX3ufEa0svUsYG8jV5fIffe0I6nJ27BbrJJD/iaNwMun49rzutI306zGPpkGLrixG5uXuHNrHk7E3eet4sxLxVQoLZDOYS8zprQjHgLmPhqXy6+9jPCHXFYLE4wivXtY9aNASAcmOQovW07HnjwPi658EJiYuLKzmDlAMHp8jBubDvGvjSdLicNJXLPdDRLe3q228XdL7qxhpl478lcLh3RBU2YgXxODLYIIkwKVqE220+47atCEBC1gQxdfgXMmlSyHeS4G/SZVKXhSD0IVMtS6oofYViqbRPmtaRWcdx1znyGvRCFNSwev2aie+8evHD957w0MYuvFp+Gy+vFYtIIU/wYFT8unxG/Cnab8MUIaJX8GLj47Biahs/nicltcFgVjLU8gyGAUNsdDD1fEQVCAKHRnQsD2QVZHPtWJxa/9SctNh5DgaXokAFCUNG+edMmFi5cyE0334xQIVfeFIpcxQy/sztm34+8MC4Coy0ZtFIUYR6QdnbBtHWcHi89u6Vw3+VrGfKwG83WlLbN4rnj0s3cdG8O4Smt0DWN6PjmjLn+dx581opqStv7vl+HNm3sPHjpKq58IgGHyY6xjJnWdPtUpYjJY1tx5c2/oUV0RFeMGMss5vLWVparXlTFPPOc/iQ5P+CjmfEYrdFlQwgDhQG/qmIyGA7w+dDx+VX2ZO8kMTEJi3FfFkSPX6N390Qu7b+ElduPZfAZW3ji2dWs2NUBFMve6Tc2gCDocN111+KwR/PyC89ijYgoM3NVDBCEb0J2jsJ37/u59rZNtDz+f4y5YCEe3Ax9KBunuSMXXtSHNPc7vPxNG557sAOtk3aRk+9lyte7yFjTCoPilSDB6XJKU1VEhAOTyYpXsUiTjUGESapesnJ3YDRaSIpNxGQIatd03H4fbm8+UeEBX4AgYPBrqrzVCxnsducTHhZXBhFqjkI9bjdjhrVi1ndf8uPaE9FKtpIYa2Dk3T2Js8xk6KN+WnfqzoNXhzFv4WY+/tokz9PDt6TTLH4jdz6Vg8HSEvHViFDPZ4e3YMon37Ih+xiEdqK2LQQQakux0PMhgHAUnAHh+Z+dv5ue77VjwXPzab+zF4X1BBDAx7q1G9m0aRPnDz4ft9tdqW+D0+vn0sEt6Za2gCffNKCbEyq8jQtrtMFi5INnonn97Vks2NAL1a9x21WJ5Gz5nU/+6o3V4MbldvLM8H5889l4lm7tjtEgXMADnLHU6Wbc021587VprCk6FiFWa8MzvT4fd93Sj7y1b/HR7wOwKO6Doic8igXVr6JqXobfezoZsz9kzopm0kfBKJL+6AYKfHncfVMftqzJ4Mc5YLVFyvl5/QrHHR/HbZcY+PyreXz5WyssxoCDY4GzlLefOobmtllERmv8PC+XsR82wWQRQmrfTVXMcdDAgfRtBImShI28uKiICe9O4MMPJ7F82bK9AKuyT8zrdXHjVV1Qiz7n3e87Ex9p5r0nChj98nqW7DgBxZPLi89fwkujRnDR5RfiypzD3AV+7r89hg3bdzJ60rE4jD6pkj/v7K6c3W8Vn3yxm9mLLXTpEM6KFYUYDMm06taGR69cDbrC57MKmPGjEaslGr/qo1V6GsOvyeWmx4rJc+pEhVtRfX4uHNyeb774gS69+nDhKRpPvLYTFEeN/Xo0XaXIo/LdW5FMmbKZ5p1PoUOLQsIM24gOW8cNw3V84T145rEwfp78G+cMSuPux008NbI3/vzv6djWwKWP+iko7IIZN5pfZdLzFibPyGLWAiOKLrQztWNe5QHC4oxF9efEXLtphJ5u5BQIaRAa2QYKgFDsKaTdhBQWPrKczjnd6kWDIG/R6GRlZTF/7l8MGnxeWf34gwkkksEkN7XDvlblAAAbs0lEQVQy7DoPw59YhcfYFoNecSiW06Vy6UWtGHLaj7z0gYWV2+ysWGdgyputef2V39hQ0FWqdI0GnY+e17h46FrMkV0wKoH4cQEw4lLDeOL6TG4ZnoMpIr1Cu21V2+jze3n36WZcdPU3RLccgAUvulRCi6agGYzcekUELRIyMRgUmjYpYccWja3ZYfwy18+KTZEoFhNjH3WQu3kRvbo5uH6YjxJfU1S/TovW4Tx0vZPHn/+He25sxYMvWTGZwlF0jaYtonnl/hwUdSPjPvHx1Z/JWK2JBznnNyaAIKi2ectmMjIyuOryy3F53BgMB0dmlN8Tt6rw8atR3Dj0V1RHTwyam5P7lPDT3yomYzxmi5ePnk/m+IuX88vH7fG5VuHyxPL7n5n88JcRp9pWquDzivy8/ngyXdJ+I3O3AbMtlcJCN5tzChnxTls+fj4G8pcy8iUPY59oy3NvrWN7XlsUzcSuvC189+HJZG2cTWR0Ak+/upmzT+9LcvxqRr3m572Xe2NX/2bo8Ai8ptgaAQRhWkhNjeDx213EhK9n3jILa1Z4WbBGoUmzNlxy6jZufRI+eLkfUczCb2jJWxO3cv01A5g4+ReO6dKd//Vfy//uc6PpvVE9xVxxcTfO7T2brEIbK9fl8uZniUTa7LUCxUGAMGXqFARACEUxNDJG30CmGwIIDWQjajoNIZx9HidNPowi4/7VdM7rSrGltKavV/qcNAboOn169uT6oTdy9dXX4HDYK7yqFxTk8caz6Xw+bQ5/b+iKVVSSFGK7gpKykVF+3nw0Ht25kIWrddKatsdh9+Iw7WHIcBXV0BSXW+ecM9rSI+VznprckzBZV0K4VemUOEsY80Bn5s6eway1/bBrxbV2GvT6/Yx7shVTJv/E8i3RZDvthCthqDKEzoBXV/jwaTtfffkjSze1Z+xwJy+8tQdrTBwleQoZG6IYPbw/C2d/hJeO3HD+Bk66vRlNIyOIijLz9H12nnljDluyu2IkFxTh+GjE5/Hw/tjmpEXM5pX3Cpm+IJ1IW7QERAcy7MYEEMQ+t2ndmgcffpArLr+C6EgHml653V48b1LyGDfayyWP2IkyRcry5Jrqxmi0oWuQmORg+JB1vPppR64ZtJHn3t6NR43GL0JgzfYyXYtGTm4JX01MYfPSDI49LpZX3s5kY3YHbr/BxQV3FfH3pASGPbWWTVlp3H5rOxb+8j3/bO1Fsd/MkEsSuOjUbUx4dzXrtkSQmWvjtadbc8ew5biNUXzzdhg//bqRVz/vjMVgqVKoBh16xZ8pqeE8en0mS5Zs4ZWvOmExqpSW+hg9vDMZc75hm6c3o6/LYdPmYl6a6OaCi86mR5Pp/LigGReeHcnCPxYz7ptWGEzxNG1q48UH8nhkzFJ2ec/glTs3ctOjTvSw5tIkVtMWCnOsKaVCz1VFgRBAaGTnQ9gt9Vw3iV9YyXhgPe3zOuIxCdvsoTdxG7rppptQTEZefvEl7BEHh/gJhtiyc3uGnjqbYS+YMVsT9g4s1L/C9SsoKgpL3dw9pAldm/zJraMsGGwONMXJ0GuPx7PjJyb/2hSTORzFqPLy4/2495HxeA29MZf5F6gapDUJZ/j1pVw9bBvRkc3r4D4GquYjJbGYq8+z0rZZBItXOxn/aQG6IVkYQPDpkOrIotBdwh73iXw4ai53jXTgsSTgcxZy41UtaCIcxsZH8uhDfejTYgZn3yVupX6ee6Aj/yz6nhl/tcNkEKGZCooMYVSwRBgZNxJ+nb2Cfv3SWbrCw0df55BfGo/JaN3PjNJ4AIIBv8/Hfffdg9NVwuuvvyELSwU85CtuLo+fm24cANte593ZvTEbBCwLeL0IiFZc6uTm65pjyP0KQ8J17Fg/g28yemIVPge6hkERgEpD00306B7FFadk8OeyNpzcYx3XDjdxyTnpdG/3D69N68A7D2dy1WN2SvPdvPRkZz6ZPJONmV1Qws1MfLQUW7iRm+9ZRoneCzOlvDoqgrw8D5aoSKzeZdz+hIZu64ZJ99YgB4PQmqlofi9vPNWbEaPfo9DfGc1gpVkzM/dfY+DKO5fz/OjTmf/TVGaubEm4tQlt0w2c1WsLBU4Lpx7v4JGRG9jp70Fh0W7efX0g8foH3DHSSpGWyvtPuLnh0Tx0UyuE10JNWwgg1JRSoedCAOEoOgNCoBly3MR8bmH+w2vokNsJv/HQKzkKDYLq9fHOu+N54403WLZsOVaT6SC1ps/r5dH7T+Sbb8axZHMXzIrUHeD1aSgmHxbFhapHyZu5NcrGO6NUXnk1gyXbu8iQx6yCUj57oy0PPPsHJaXpKKqfzh1sDDl7Gzc97yDS6sCvahgMBopLCxlxb1fWLPySWUs7YMQqd9Kv6hilo2DVGxtw/A6EReqiP6+Gu3Qrr45qR8avC/hyaW9sBneZ9iNg0Dj/jLbEhH/JuC/aykQ9Bnsabzzs4q7bfyetTQfGPKhgUVZy4V0t6dYzhUtOzeKuMXmE2dMwG/wYDLpMhOT1eLn+uk5EFH3Di583kaaSWy5TOPW4MLZvy+Gjr1U27khCUQKmmcYDEKC0tJRJkybx8ksvsXbNGgwG43428vL+IUK3pFLKu89045KbphId2xXjfomidEr8Zt4ZFclbL3/H6ZddzobFs/hqUW+syibapBkoLCghz9kcn9fD2y+exIdvvUZUi0F4s/9m7voU3n4iiSfH/EI2PXhvZAHXPZZFetvO3HlRNreM9qKbUji5p4lB/ZaQnH4jN947GbevOUbhpagX0Kl5IY/ckcI5t6wkKupYTKjSabbaAyaPl4GYWIWxd+dx+s1umqakUlLiYsywJvz1xxym/9mc157pQPaq7ymytuWbGTkU+xIo0czk50cx6fkWvPHKZLa5OpKWqPDOY3lMnrqBj2d3wRwG40e4GfpoIbpFAISaf+chgHAUMf1/cSkhDcK/SPy6DS0Ago/ozxX+HraOjgUd8Qt7uoytrnsTstbncfPl999x8YUXo6llzEhkQ97rIWXA6yrljTFdGf3Sl+x0HofJX4Cu5HH5oFTOPDGGV8b9wootnXCVuHjm4XQKM3/l5cnJ2MzRUgArtkjGPbSRG0caUMzxFDrdvP1kc6Z+PIt5W3vg9WZzwVlp/LNkPcbwzoy8sYQbH1qNMaINmt+H7i+gf+8oNm3Jpag0Fb2SNLTCV8Ph8FJcuBmfFosTO7q45fp1XrgvhYyFv/L5/L5EGpySaEIzUqJqvDqiJ19Ne4+5G3pjEtkA7Sm8NsKDlRI0Xz5j31jDnXd0ZeiDxdx8eQrekr+Ztbg9A08Ko1fXGIaNWYJXb0ZpYTavj+nG86//QqGng/RE9ypGvK6NnHCMhV17VHbnpjU6gCC0TLt27GTpsn+4YPD5eLweecMXWbMragIY2aLNjL29mFtGF2AyJx9U28NNIpOeV9i07De++Ks9j1xvpMAbTrjVS3ZmNu9P28ba3V0whhmZ8pST6+7bSomWRklJISPvPJ7S3F+ZOCMRp+7g1isM9O8MeSUlvP7BOnbktkVVDfToaGXo4LWkph7L2fcWYvOpeFQfRr+HLh1iGHVzKWffsZnoqC4YNF8NbfY6paUubr22PQ7/V7w5ozO6YsZgb8pbD2zi7hF7cBla0LRJESf0cFNYUswvv+l4aYKumPDrVuzm3TLNtFtN4q2nB9AxZhzXPORhe76Dm4eciF37ixffs2GJSKk0v0RFdA8BhLrzwtCb+yhQrwBBMA/RQg4xh++IiUuPMR8c07wsun8LbUraBVz5KkwZXPN5CHixY+c2/lmzhjNOOg2jsSLAYcDv93DP0B7067yK7IJYwu02oqy7Wbgog3sfdxPdpjuimJQIQ3z9MSNDH9yCMbK1jOP2qhqvPTmAzye/ypxVXTAZTDRpncwDF23jsiErGfLgNdx0RiarV8zhuQk++p9wGid13czfWzrTqbWN9FQfSeGZrN64ipfGOdnl7FypP4I4i+eeHsel5+TIGPNSjx3Vb8Ph8LB+dQYjXhUxG23KvLtFSR2dglKF6ROO5Ybr30ePSAeDGR8qWbvWUewqJDnRTGx4JzZnriS1eU/6tC7hpisMGNVi5i/ewhuTNCLiOki7udSqeEqw2SLQEaF2VauHRZjjoHMH0bdf/0C5Z6sVtex7qvku1u+TInmWaCJqIdiMKKS3b8fIR0cyeNC5REZFS+1B+WfKz8LtdnLd5d2IMX7B29PbY9BFCOy+pFyyf00j3r6a7Ztc2JK7sWXrckwWHwbNREJyZ8xmK0ZNxRLuoH+7P/hlcVuMup241s254dxVDH8il6ioZrhFqKNiwOl2YrSYcBjDMOp+fAL8GszMeDkb3VnMmcM7oDk3c9+tZ3LmcXnY/Uv5fd46nvmkCWaDyI1RM1W+WIdT03ltTBteGv0Fu7SemBWdVh3b0SHmR76abcdoiUVVheEtkNZbvBPkjwGfHRO6rpHr9vHDW5GUZv+KOSYdk6KwaNEWJnxkxm3uKHNPabW4BBQUFshqjtOmTiVjYUalAK5+T0yot6ONAvUCECIiIqRKWB78Az7+I0GwirPp1+PItUxSUo8jH9SVyNNu9ZpQX9nNylE5dHB2wqCrqOUq50mQVstJCBGwZ1cmGUsWMWjgoEryKgjQoOLRVaKNm4iN8lHqKsXpjqVAbUaYwSznYZQRDRpmQwEeHJg0szRVqFho16KULVty8SsJFLlVbrsynONbzUMzd2Dd+kze/TyXIrUDGKKItbk4tZ8BqyGPLduyWb2pBKcnDqeSipkIEfsgc/4f2ATDFapfAZxUpRQzmRgNpSgGN7o/DMXQHL/ukNoHcbMXglBTFMIMmbxwr4nrX4jArot0z4G+DYomlbsB7wrxb375XqDugPD/EO6UYbLwkFH3oUmzgfhNk9kAA9x5/5x5UjhIeBPYKZFX4NRTTqHP8cfx9BNPYraUVfqp5T4e7sdNGlx3682UFhTy3sT3q820KShnNpZgJA+P1mYfUCr3TQWyZegowlShiToOKkpZVIygjjhTgYyKgWyaJoP4m9BaKOhaMUYlHE33YVBs+BUNi8jeWeazIE6doLJLN/HBKAMLM77jm6Un8dD1flZmrGPSTCPPD2/Pgw/OxxN3wl7/l5rSUdOFWakUTbPIMyCOh8yToXlRRWSHSBJ2wMe4VyMXqFUmv4xweyzjH1nJfSNWsF0dIJOWKZhQDCKB0j6wflBf8rkDmqjlUFDIiy+O5esvv2L5suUSAFfbDvGSUW3/DeGBBsTLGwI5qptDvQAEo9G414M9EJxWg8NY3cwO9ffKpiBV5hW3BjDrKlctBYquYHUZsLxXyOL7M0n3thMW0xpnBqjUEKFrWGxhfDx5MucPOheLJeDFLW6GQeYSfFfkBJBNUdGCKv5APuVq5y8vUgbhyKcjnBB7dfGTGruGX37341Oa4lPiEeYBceMOjOKT2RiFrV7XyxIQ7XfDq27XAgmbyyZc9rfAmkQZhsBZ1aWPghE3JsOeQJpnuRQBAYTAOtTDKOVEYJwyBhW8RQZpKm6ZZ599Dsf1PZ7HHhkhAUJl1KxuxYc+2/1LbJWfh6uklMmTJ3PvPfdQVFqyl7JVz1WR5nwxb3lMqmDSElbVkolL+FWFcJN9iqqReg5hdh8vDUvhyRcWsr0wnZ7dkziz1ybGvBeNFStq2TxrQ0NpYinb2wAU3Bf8U+1e6Qp+TeOawTaObbuUe16MRydhbwfiW6mKXgfOM5BMWaGwsJB33nqLL774ggULFqCXc9ipbK/EOo72plXDo4729dd2ffUCEMpYXxkHqAduWttV/IeeF/kGRF4k+yel/H3bNtrq7eQtulpGtFdEVkQsIaxVBpx8ChdfcAE3D72JsDDhmb7/rTe4s0FhFwAJgf6EEK5w58uYfXB+exl52Q3aI6rgoWNVFMzCt70cgAv0d+DKAsr6ICOuausrCrsMMNuyeg5ByS+FQnAh5a9kwontgBGqPd77Hqj20XLCUpgYBp57Lsf3PZ4Rwx7GarNWmh1TMviadH4I38X+lRjL9liBTRs3snzlKq68+CKZ8S9IoANvtnuHFhqacvOo7pyWF661mX6loF8PfBvi9+KSUt4ZeyaT33+dhVs743GqPDmyIz98PZ1Fm7phrHX+xINnuFehtfe7qGYVoqyzx8/4F9J47ZlvWO08Vfq77Jt1baiwD4AJgDB+3DtM+2waGRmL9vuOgtC7dj2Hnv4vUqDeAMLhJl5lKLqqm0Nt36nt84d7zRX1r+gmzEWKBAgLh26njalNhWr22s5N9Xq45777yc7L5YOJE7FZ96ULrm1fR8vztbm5BddcV/8bj8/LwEGD6NevH8MffAibzXbYQUBd9ik1JYVnnn2Wyy+9FItNFPKqufaqLuPVzzs6foFgzD4mP+njvIfDsBmMxMeF8/xNWxkyohSTvSXGAyps1s/YlfcSPF+a5uWOaxWeeC+fREuC1FvV9RxJSK3rUoMwfsI7TC3zQdi/v6NfU3C49+6/0n+jAQj/lQ2pbp0CIISVGLFNKmTx+C1EbYghpiRB6O2re7XK33Wfl4kTP+S6m4eKxAEEzUaH1Gno5RpTwOv1cs65ZQBhmHBSbIAAQdelaSE7J5f335uAxSbyZDQGgCDSYcNVl/XHmvsS437qhq4q3HVjW7K3fMu02R2wmoT75b/UdFDVEhSTQ6YHO9QmAEJBYSETJrzDlClTWLxo8QFdHhqvONT5hd5vPBQIAYRGsleCbYiCMJZIC5HRVrSxuym1FbL+/lLabemAbqw61W11y/R5nfz086/07nMsCfH7kh9V917o9/qhgAAIA8sAwsMCIAgNQgNpQRW93+vly6++Ysh1QygpKQ6EjdaDQDv8y1Tw+zyMfawPt93zDpakvoSFeXj9YQe3DfsHf1g3LLgP/zSqGkGYuypwuK3LpPYBhHFMnTJFmhj2d9EIAYS60PW/+E4IIDSCXRe8w+Iz0+GiVuhnFbK46RxcOCU/ScprwtrnC2i5rCN+Q7C+QO0XVVyYy7yFi+h9TC9iYmP/vdtU7ad+VLwhAMKgQSLMsS8PP/RwgwIIQQJv27iJ9Zs2c9pppwScLqvLVNWAdsbjdTP+mc5ce/1HeKP78sKwJFZmzGTy371kEagGac+pI/32AYTxTJ0yVdbMOBSTRR2nEXrtKKBACCA0gk2UvnTFOse+3JE/un+GpwwIiPK22nYju26y0EnpjFpngKDj97qY9fNvnHn6aRjNIm4/1I4kBaSToqjm2LcvDw9/uMH5gPj9fpKSk3jztTcZfP7/CAsLbxS6g+AeivwdYx/pzt3DJnLywEu46KR/uGd0KaawZoEEXkdysw/zWCGAcJgJ/B/qPgQQGsFmS699v4oxScfzwTrciifg4a7oFE7xk/72ibgiRMGmurE5kVa2daumPPLYE1xx4cWERwXKGIfakaNAQwcIHo+H+++7D4/Hx9tvvYHZbKmX8M8jRWFR7vnC87tybMtviU9syj2jVlPg704gmLSSCJwjNbl6HicEEOqZoP/h7kIAobFsvtAWuDRafxzJytR5IlUPvl3gvD2W5p6mtcqyduCSRca+8/53Lp26dOaZx5/E0ECT9DSWrarLPBsyQBACx+v18P33P3DB4MGBxE8yvXLNMg7WhR71/Y5IsCQSXJ3aP58Fi3IpcrfArFtkfoB6Mv3X95QPqT+ZannChJCJ4ZCoGHo5BBAa0RkQjDqytQ3l8RxyInaw7X6Nths6i6SBdQ51FGyz1OVizBOPs2jBQmbN+lFWcwy1I0uBhg4QXC4Xf/31F72O6UlUjChnLdMPHVkiHcJosi6TANV+P0aztV6iBQ5hOof91RBAOOwk/k8MEAIIjWybNZ+Oq2Mh2Y7dxGWkEak4yuow1D08qri4mC++nMFNN96I01mK0WAKGCv+C6lXG8D+i6Q4QnANOqdh+iAI/4MWzZvz/NixnP+/8wiLEPkP6prS6N8huEhdLOgsDQpl57ruX8y/s4bajFpQUMD4CSEnxdrQLPTswRQIAYRGeCpkghVZZvnQm+jL6XLy1c8/cnq//pgIFI8JNsFEa5TH/dCnUqsejg7sUm4PNY3LrriCviJR0sMNJ4pB7L/X7eHOO+9AVfy8P+69svDGWm1X6OEjTIH8ggImhADCEab60TdcCCAcfXta6xWJfO8zZ37HpvXry8oHBdK1BGsxNKabVl2yH9aaYP9v73xymwaiOPycVKJGZQeLSi0HKNkCba+AEHeokMoxKGolTkDLIicACYE4BV2WQwC7skFJEweNE4dQMk7HvIxfks9b2/PefG9s/zz/ntINRWa/InGTy4z49eJCXr46yrM5mjgGIr+uruTD+3fy9NkT2Vi/I8nUTJ8mvMWJEQEEAk1BgwACQYPigpfh0u1u3rsr6a11aSZN6Y32UcmyYVKjRRIIixiKosfGrSb59v2HZP1+nh3VwuHG7hvNNfn86aO0WjuyubX9V8ricU9TYIIlC3VbNh8mxfHlz0tpt9tMUly2IEeuDwIhMnCr5orERtc3VLH6R+7b+MWqv1bjPsuvQTaQndYDOT46lpPXJ7KRpvkihj8ZMkclIBBmoYx6vtPtyovDQzk7PZXzL+cLtalVVFAYKyWAQKCBQAACXgJOcN3f2paDg+dylfSk0RvOSNFIgR2CfTgMU5KrPaSwFbnWpRB/++ZMXG8CvYArEnTlaiIQlIFSHASWjYAb8uh2OpL1M3HzVa6nZxr35mjMmp0Gz61AcAIh3xxs2egq1mdCBRQ9abfTNB+uQiAocl6hohAIKxRsqqpPwK33sDFbQL9uU0sshhKSJP9oFwd7/UfijxkIRCSgJhDGCj+i85iCQAwCRTbDGLawAQEIQMAKARWB4JsYZvWvAjFjpflZ96Osb2C4V0SWiDTov/VmC9ScNFqUNe29Qm+G9Wdp6J/lb8JiEIzrpYpAcGNcxZr5f2bBTxn9Ktvix3uuZOzRd8o3sdot3HP3WG2scZtAPGtl8Yjnxc0tlX2Qbl5K+ZU6211peTNRjuehCp0C4Bj69FNjOXa7mgP8akVqirFqHsy+q3jnZsZWvZh9DmcjnesVKgIhTVNprrkd+EYTiUYuu/X1Wj9XZR/z0JdWKNEqD55V8aEVj4KhCvuSj4gvVlb5+vz1ca/StkLbb5XrQ/mqtIMqjnIPBNyqmtnatpST7zn833LnFRxNv3zvpvwnev/xvto3Q6PrPnS4wmez7MUb+vKbV5ApFwIQgAAEIGCVgKpAsFpJ/IIABCAAAQhAIIxAsvdoT60HIcw0V0MAAhCAAAQgYJUAAsFqZPALAhCAAAQgUCMBBEKN8DENAQhAAAIQsEoAgWA1MvgFAQhAAAIQqJEAAqFG+JiGAAQgAAEIWCWAQLAaGfyCAAQgAAEI1EgAgVAjfExDAAIQgAAErBJAIFiNDH5BAAIQgAAEaiSQ7D7cZR+EGgOAaQhAAAIQgIBFAggEi1HBJwhAAAIQgEDNBH4Di+NOaDQHZpIAAAAASUVORK5CYII=;" vertex="1" parent="1">
                    <mxGeometry x="-100" y="110" width="548.25" height="332.12" as="geometry"/>
                </mxCell>
                <mxCell id="38" value="" style="shape=image;verticalLabelPosition=bottom;labelBackgroundColor=default;verticalAlign=top;aspect=fixed;imageAspect=0;image=data:image/png,iVBORw0KGgoAAAANSUhEUgAAAggAAAEYCAYAAAA5wg5lAAAAAXNSR0IArs4c6QAAIABJREFUeF7snQd8FUX39397W3oPKST0GnrvXYo0H6QpTUFBiqIUqYIUG72JFJGiAoIUFUFAUJCOdFRA6R0C6bm5dXefz5mbG0JNIUBIzr7v89G/2bs7853Zmd+cc+aMVKt6LRV8MQEmwASYABNgAkwgFQGJBQL3BybABJgAE2ACTOBeAiwQuE8wASbABJgAE2AC9xFggcCdggkwASbABJgAE2CBwH2ACTABJsAEmAATSJsAWxDSZsR3MAEmwASYABPIdQRYIOS6JucKMwEmwASYABNImwALhLQZ8R1MgAkwASbABHIdARYIua7JucJMgAkwASbABNImwAIhbUZ8BxNgAkyACTCBXEeABUKua3KuMBNgAkyACTCBtAmwQEibEd/BBJgAE2ACTCDXEWCBkOuanCvMBJgAE2ACTCBtAiwQ0mbEdzABJsAEmAATyHUEWCDkuibnCjMBJsAEmAATSJsAC4S0GfEdTIAJMAEmwARyHQEWCLmuybnCTIAJMAEmwATSJsACIW1GfAcTYAJMgAkwgVxHgAVCrmtyrjATYAJMgAkwgbQJsEBImxHfwQSYABNgAkwg1xFggZDrmpwrzASYABNgAkwgbQIsENJmxHcwASbABJgAE8h1BFgg5Lom5wozASbABJgAE0ibAAuEtBnxHUyACTABJsAEch0BFgi5rsm5wkyACTABJsAE0ibAAiFtRnwHE2ACTIAJMIFcR4AFQq5rcq4wE2ACTIAJMIG0CbBASJsR38EEmAATYAJMINcRYIGQ65qcK8wEmAATYAJMIG0CLBDSZsR3MAEmwASYABPIdQRYIOS6JucKMwEmwASYABNImwALhLQZ8R1MgAkwASbABHIdARYIua7JucJMgAkwASbABNImwAIhbUZ8BxNgAkyACTCBXEeABUKua3KuMBNgAkyACTCBtAmwQEibEd/BBJgAE2ACTCDXEWCBkOuanCvMBJgAE2ACTCBtAiwQ0mbEdzABJsAEmAATyHUEWCDkuibnCjMBJsAEmAATSJsAC4S0GfEdTIAJMAEmwARyHQEWCLmuybnCTIAJMAEmwATSJsACIW1GfAcTYAJMgAkwgVxHQKpZraZ6b60lScp1ILjCTIAJMAEmwASYwB0CbEHg3sAEmAATYAJMgAncR4AFAncKJsAEmAATYAJMgAUC9wEmwASYABNgAkwgbQJsQUibEd/BBJgAE2ACTCDXEZAqlqt4X5BibqPAQZnZu8VV9f4uym32dNqM2T8dzln9Fm63rCaa/uflJPZSiaIRuUog8MSS/o7OdzIBJsAEmEDuJSCViSifqwSCqip3t7YkgTd1Zu8P4EGKPD0lZjGYHkpp33Mvf+aaNrNnfcd93wyPc0+tScSEeo/V83n9ZqTyZXKZi4FzPDy1DyXLXvQAFwO4HbMMLz+ICTABJvAgAlKFcpVzlQUhM92ALQyZoZZ1v3lUB+W2yTrOmXmSc2Wk3LtiyszD+DdZRiCzgzp/T1nWBA990PP0zeQ+C8KTb39+AxNgAkyACTCB556AVKNqrcyKzeey8g/zZz+vPqLnshEyWOjMxiDQa7hdMwj7AbfzN/P4DJ/2EzL7zfD3kjUtlVO+Gc6DkDX9gZ/CBJgAE2ACTCBHEWCBkKOakyvDBJgAE2ACTCBrCLBAyBqO/BQmwASYABNgAjmKAAuEHNWcXBkmwASYABNgAllDgAVC1nDkpzABJsAEmAATyFEEWCDkqObkyjABJsAEmAATyBoCLBCyhiM/hQkwASbABJhAjiLAAiFHNSdXhgkwASbABJhA1hBggZA1HPkpTIAJMAEmwARyFAEWCDmqObkyTIAJMAEmwASyhgALhKzhyE9hAkyACTABJpCjCLBAyFHNyZVhAkyACTABJpA1BFggZA1HfgoTYAJMgAkwgRxFgAVCjmpOrgwTYAJMgAkwgawhwAIhazjyU5gAE2ACTIAJ5CgCLBByVHNyZZgAE2ACTIAJZA0BFghZw5GfwgSYABNgAkwgRxFggZCjmpMrwwSYABNgAkwgawiwQMgajvwUJsAEmAATYAI5igALhBzVnFwZJsAEmAATYAJZQ4AFQtZw5KcwASbABJgAE8hRBFgg5Kjm5MowASbABJgAE8gaAiwQsoYjP4UJMAEmwASYQI4iwAIhRzUnV4YJMAEmwASYQNYQYIGQNRz5KUyACTABJsAEchQBFggZbE5FUZCQkABZkeHq4gqL1QJ3N3e4uLhk8El8OxPIPgSoX0saCfT/svslyipJ4n98MQEm8OQIsEBIJ1ub3YYkYxJKlCiBLl27oGLFikIY2Gw2zJ03D5s2boSLq+tzMLyms8J823NNICkpCdEx0fD29oGXp+cjJ1OacD08PGC2WKDI8jObeFVVFcwfNfFTWT29PGGz2mC1Wp9ZWZ/rzsGFZwLpJMAC4RGgaMCiAenmzZt4s+ebaNeuHTw9PPHb779h2+/bEBUVBX9/f0ybNg2TJk/Cb7/9DheDIWXQIvFw4+ZNhIaGQqfVprNJ0n8blY3KqH0Cz05/KTJ2J6/+MsYrM3cnJCaiT+/eeOWVV/Dnn39ixIgRQgA87KJ++vP6nzFy5EicPHHyqU66iqogOipaCO0CBQvCmJgIs9kMLy+vBxaXhM/SpUuxePFi/P7773Bzc8sMIv4NE2AC6SDAAuERkGRZRsFChTD6w9HIny8fxo4Zi3379wth4OvrKwZSm9WK5i2ao3Wr1nj99deFYKCLJsI8efJgztw56NmzF+Lj4rJ04KWyFSlaBF6eXjh69OhzIRJoxffiiy/i8OHDiIqOgkbSpJtJYmKicOPo9fp0dOvcfcutW7ewcOFC7Nu3D+07tMfQIUNx9dq1+6xb1Edpwh04aCBKlCiJgQMGQKNJf5s8LmUSzy++2Awd2ndA4SJFoCqKeP/27dsxceJE+Pj43PeKJJMJe/fuwfuD38f+/fthMBgetxj8eybABB5CgAXCI7rGlStX8PU3X6Ns2bJipd60SVO4khsh2fepQoXdLkO227FmzRq0bdcWbq6OFY1dllG2TBnMnT8PgwYMxJ49e8Rvs+qKT4jH3LnzcOP6dUyZOhVajSarHp1lz0ltMqZVYa9evfBW7954q1cv/PXXX0LUpOVHpmeQsHj55ZeFELp8+XK2EENULmNSAtzdPSBJ2mzlWoqOjsbHH3+M/X/+iZdeao0tW7Zg65at97UrxdHkz58fC75cgHr164mYmvS0yeN0EGefoDYdN34cypYpi3Xr1mHr1q24dPkSQkNCMWfuXMydOxe/bd16nwDQ6XTYtn0b2r7cFjcjbwqRyRcTYAJPhgALhEdwpcGsYMGCmDlzprAINGzYEH5+fim/IIFAfttGDRoK60HHjh3F34VlwW5DzZo1MWjQILRq2UqYTNOaDDPSxNeuXcOu3bvw4w8/4ptvvgENnNnxIobxCQno27cvunTpDL1Ojxo1amSIBwWFbtq8CZ98/AkOHDjw7K0IigJogSqdSmP7sp3wU0Nh09juwk/1zsr2zmjbxsbFwd3dDe+++y68vbwxatQoeHt7pzxGVhRhCZs5YwYsFgsmTJjwVPqQEFZGI/r07YPGLzQW/YJcIk4XnN1uR1h4GBYs+ArNmja9K/iXfhsSGoIVK1bihRdeEPESfDEBJvDkCLBASIMtDZ61atXCmz174tVXX4V/KoFAflO9wYAf1q7F+I/GY/fuPXBLtjDQ79q2bYsmTZrgrbfegru7e5a1IgkTMiOTqX7Y0GE4cuSIMM1mx8tsMaNZsxfRt28f9H+nP+Li4oRZO72ChiaFcuXKYcLECWjTpg0sZstTqeuDJnjnfzMbzShUNwTRff7DpT4y8tsKwKK1CvySqoEqqVCg4lm3CInat3q/hTJlyqJr164IDAi4IxDIRVWkiIidadmypQi4pT7kXOE/yb5ElrTVa1bj22++ReMmTfBS69YIDg528JMkmEwm7Ny1E40aNrrLWkTComfPnqhSpSr69eubpfEHz1rQZQVviudwMbggME8grl65miJQn6VQzYp68TOeHQEWCGmwj4mJwfjx40E+8OnTp4tgL/rgyGQeHh4uBtiDBw4KK4PTP06DDZl5J06aiDOnz4igqiwVCKoqtln++OOPaN68BTzuER+04qZyPmvRQIyqV6+OSZMmiQnq+vXrKQN+egctWl0OGzYUiqxg+owZQoA9yYvEF231s9qtkGU73FzcAQqulyAmT/Iume0m1JoVgRW/rUG+9WXgKrk4XAx2wO5pR5JvFGyXdAjUB0GVlCdZ3Ic+m8p65OgRnDt3HvHxcXix2YvImzdvyv1k1Zn9+ec4fvw4vvn2G2HZSW+bPG6FQkJDsWjRQuzdsxexcbEYN3ZcSuyOMzB42x/b0b5dO8TGxKa8ju4lixlZQ86dOye+t8cpM70rME8e2G028b0+T8G+D2oDsr7Uql0LvXr2wuvdX3fwyVbOr8ftOfz7p02ABUIaxGNjY7Hu53Vip8LhQ4dFbIHdbkOTJk0xePAgbPxlI2bPnp1iCnWuRGiFT2bxQQMHITIy8rEGstRFpOeTdaLHG2+gRPHiGPz+YBGo6LzItUH++o0bN4kAymclEsi6UrxEccycOQsD3xuAY38dh+cjIukf1gzkl965cxdGffABzp8//1S+D62qg08BNyRFRMGyVge46aBItP0PsJkl5G1tQNxLV3GkSzQi/EpAqwJWjRWxN2JRc2khXAj/Bwe6RaOqqQrsWkWIi6d9WaxWRESUxNw5c4WvvkGDhsgXHi76IVkWyILzw48/oGuXroiPj8+y/pmeenp5e2Hl998jyWjEtGnTse333+/6fqiP/75tG9q3b4e42LgUq0bRYkUxcdIk1K5ZS1gcHkccUDmJC8UO7d69G4sWLRY7kJ7ni8aqgYMGIW9oKEaPHp2lMU/PMxcue+YJsEB4BDsagFzd3PDjjz+gTu06YoXR5uU26NK5CzQ6Ld4fNBj//vvvXb5d5+Pc3N3x/fcrUa1qNQQFBYn//LgDmvPZVpsNq1evwpTJU0SkOq0USLhQFLiiqsLlcejwIQwfNhyBgYGZ7x2Z/CUN8AmJCfjll1+wePESbFi/Pt0uhdSvpImsdp066NWzJ1q2aok8gXmeiuCxmq2oNagMfq22Ct5NS8ElyB124ULQIC4xAZUXBWPrju2o9O0LiHKlyRWAFag8oAg2aTajsm8Efvh1N8r9WQEGiXZdPF2FQPwpxmDN6tXYs3cvKlWqiFo1a6Fo0aIgC0lcXLxYwVPg7Ddff/PILZDUHlm5NZX6J63Yt2zdKixfFLdz48YN8W0Jca3RCAG8Y8cfIubHudOFrFH93+2PoKBgYUF4XEsS7QKy2qz4betv6PZaN0TdjkrpW1QOErjk6qDYoWclsjP6+V27fg2bN2/GjOkzsrXbMaP14vufHQEWCI9gTwMFDapTp00VAmH1mjUoWLCAmOjJjE/7t2mgW7J4sXAhpOxuUFVUrVYV7703AA3q10e+fPlS3kKDLQ1OtIJLLRjoXSazWUwl9Ld7/+58AN1Hf9uwYQOat2gBq8UCMi3WqFlTRKR/t3y5eDdZFf74448s9dOmp5s6LRwrVq4UyaNou507uWXS8+N77iEes2bNFKboFStWiFVmVomsRxXn1Ol/0fH7pthaZC086heHTx4/2LQ22C0yKrWMwOHqO3F5bCKKaiMga21Q7SqSvJJQZkYebBl6GM1a1sHqfRtR7mwF6CQKHs1M7TMBDA43CE1uERERmDtvLvr3f1dYX+rXry9cYuQtyRMYiFWrV6H5i82Fq+ze2IN7GdNE6cy06Nylk9l2IIFgtVrQo3sPkaehdevWoj/T8+kia8awYcPEzqEePXqI/kvvunL1ipj8SBSfPHkyc3BS/Yrq3aFjB9SuVRtvvvmm2JLsvGgrZdu2L6N79x5o17btsw+KTUdtqd3DwsIw6/PPUaF8eRFfktk2Ssfr+JZcQoAFQhoCoUXLlmjSpDHeequ3cC24iWAuSax4ypQug+EjRohtZPPmzk1ZidEATcFUlCuB9nNTUBat8PW000ACQkJCcfnSJfEBO/2etGqi39SrX1/EOhw7evSBAxPdV7t2bfR6qxc6dnwFJUoUx0fjP4K7h7sox/z5X8LVxUUMuKl9qg8LwsrK1SGhpECyGTNnQFVUDBg4MMNuBSonbYGjZTklzdm9Zzfe6PGGCMp8WtfFq1fQaGplHK/yKywN8yEoTx7YtHbEJEWjxdwaWL34Z4T9UzJ52ldhs8ioPaEEVh5eibBVZSDbZBjcdNBqnk367SRTEpYvX47vvvsOe/fuw1cLHNsY84bmhTHJiIEDBiI8X7jIj0ATMFmkXFwMos2c4tVpOaAJvXatWmjYqKFIGDZv7jyx9TCzkw89j9qVJuVixYuJfAYkrrU6SiQmiS2wLzRuLHYwUE4REi9UphIlS2Ls2LF4uU2bNC0e6ekn9I2uX78eH374IQ4dOiRENtWL3kd9eOrUqYgoXQpv9+uHW5G3HH0SgIFEaqoXOIM6M8vDyZme73x/esp/7z1UjlatWqFmrVp4++1+8PVx5Gnhiwk8DgEWCI+gd/nKZSxauAgnT50Upth7B0by89KuBlolt3n55RQf5oULF7Bm7Rr89ONP2LFjh5isyRIxc9ZM+Pr54tqVa+JZZEKlrWc0WDVu3FisnBYtWiR2S9CKLyg46L4go9tRt7Fm9Rr8vH49qlSujGrVq+Grr77Cl/O/FIllyN2QWgyQMImKui1S0xpcDMJM77woMIvKQYMj/YZS2Br0mffD0pbP7t1fFzEQ7du1z3DSHSrD1atXsWTJEhHFbkoyiVUkPY84USyH2AGh1yE4OOSJ+YwVjYQEn2iETJRwrZWCgJA8sMp2hBbzRfTIU4h8ywX57KEwas1QFAkFigXixtBT+KdvFEoqJcUuhpTIxsf5OjP4W+FakGXUrVcPvXu/JZJSFStWHPPnzUOdunWQP19+MRmvWrVK9DdauZMriLY4tmzdCqbEJHTv0QPXrl4VbyYxSiKDfkMWq8pVKsNstuDd/v0z7d8mgRAbE4MffvgBkydPFiL2/SEOkRAQEIBTJ0+hW7duor2dExx9P59+9hnOnD4tYoGcycgehMfZ96nsVL8HBR7SPSTef/jxR9SvXw+3bt3GK690RLt27TFv3lz8dfwvEZRMkza9ixhRIjQKmN21c2dKoDI9hyweZE0MCQnJlBtNCARVQffu3cVigvJAZOaiAOCvv/4a+/bvw9q1P0CTLA5obCEGz4ubJDN15988OQIsEB7Blib6PXv3YMCAAYi8eX+gIU1WtKefAoM6duiQslPh4sWLOHDwIHq++SYocIimixUrvhMrE5r03nvvPdRv0ABtX34ZvXv3FhM3TfqUSOjSpUto0rSJ8I06zaupi0jxDMtXfCci7BVZRadOnXD1yhUxYItVmArhf6bESfS+9u3biwmWgrrOX7ggIsPJFElC4quFX4m8DWSy9fbxxvbft+Pbb7/N9MFTFET22WefoXOnzg7TtVaToShqGiiXLVuG8+fOCxM5bYmcP3++cJWQm2bKlClCBJnMJhG4OHPmDLGt60lcRp9E5J2sxcVWSfAPDUKsMR71P6qApUdWoNgvZWDQ0nsl3L59G3UmlsfGC+tQeGUVqFoZUB2HCT2LjY7EjGI/aNst7VCgiZZELgmEfOH50LVbVxQqVEis3Mm/TlHv5NOnfjhi+AiRvnj16tWC/YKvvhJnj4weNQo7d+1CwQIF8O3SpahXr67IrZCZi2IMKD/D9yu/F1uAPT09Ub1GDQwePBhnz55Bn959QPE7NMFRvAT9f7IekSXpvXffw4WLF1Gndm3Qt3n02FEEUlxKqpUyTdokiumbNSUlCUFBYiD1Rd9F127dUKtmTZGwizKh0rdGYoC+wRMnTopnUhuSUBg+fDhq16ktBMDnn8/Gjj/+EIKaGFFCqvoN6gu/P8UD0bMzckXeihQCn2KV3n3vXSFO0rObgsYe2mElxHJQMCj+gFxx77zzDihHCpW7bt26qFW7Ni5dvCgSvpFVIT3Pzkj5+d6cTYAFwiPal1IZf/TRR6hXrx7C8obdZ7KjFQZtYaQP/LffHBM6rXYqVa6M/v3fQYvmLcQ5DF26dEGJkiXEAEcftIe7h3AJrFi5AvXq1EOfPn3EIPnmG2+IAZ0m1wdlXaRBqWKlipgxY4b40CnIinZJHD1y9K7VFg1SzrJQjMTff/+NESOGYzBNCp6eeKf/OyJtdN6wvOK3lN2Q4gXKlC0rVlIZnXTFYBkfh1Xfr8JP637C6lWrhSk29cCdGvODzLK00qlTpw6GDhuG5i++KCY5H19f8e+0+pn/5Xys+2kdfvrpJ5Fcp0HDBqhXt54IAM1qUyoJOpOvESGTNLja0gSvkAB4exngPxPYOPAISsWXhl2jQKPo4aMa4DfbjHVvH0U1lIVZp4FGZEGg6+maeKnfjBk7BlqNFkOGDoWvj48QrQsXLRSsaPVO2Qlp0vzr77+EuJk0cZIQqP369hNWrw3rN4jMhnT2yP/+9z+RBpliQcjSFB0dJSah/7X5n3BHONsxo0MkxRd8MOoDNGvaTAg+KreHp4f4lsiFsf2P7aIOwophtaJURAQ+HDMGnTq9KrZjklWO8mucPn0a48aNF9lEnRMfTZw0GdIkqdPpRZbTESNHCrebs5/ExMZgy69bxDv//utv7Ny5U1hOpk+bhl9//VV8w/QdkmWtXPlywsJSt05d9O/fH4ULFxapqWmyJUFB3zB9a2S56f1WbyG207taJysHxUG0bNESb7/9trDYUBnp99RW1Hso7oYWGVQ/Cpim+tB3/27/d9GoUSNcvXYVoz4YJVxGw4YNR+tWrUS5KAfLK6++ItwnVGba7khJ25zvyGib8f25kwALhEe0O5n9gkNCMHTIEGH+TH3RoEYrD7qnzf/a3MkbL0kYMOA9YZ4cP268GFw3bdqExYsWiYhyyv6m0Wrh5uaK779fJfy7m3/dLFZvtLf7UYNLZOQtfPzJxyhWtKiI/KYV4Nlz5zB3zpwU8yYNABRM2bdPH7E6W7psKf730v8QFR0txArtrHit22sibwNloxs3bpxIrEKWizx5gkRAW0YPwKG60mDUvHlzdOzQUQyuD6sHDaTkI7fb7GLQc+ZroGOzv1v+HSZPmYKtW7fg559/FpN/69Yv4eWX2whLCblsmjZtKlwh06dNF24ImjCy+lIkBdZAK/KMV3GjpRnuoYEo2MQHJ2segHG8D/z0PlChhU7WIJ9PIKyfXcNfMyJhP2VEqLYIJA2lXnbsQHcIhSd/0aRGkwmt/ju+8gosZrOYwIkvucAo2ddrr70mLAjUX8miRC4mch2QCKbzD2hypLweB/48gF82/iLSM5MbgPoRXTTpUnIucoGRCM2MQKBy0mmohQsXwZgPP0zJZUCTMa3S6Xui/urM2WBMSsLChV+JVMxLlnyNhg0aOKxUXTqL3A4kVmiCpW+BxAElJatTt67oL1BVIZCcAb/OLZ4U50PP+OKL2SKlM/2WXGtUJ3LrvfnGmxj5wQfCSkff7qVLl0VGSnLLUMIvEk7UN2vWqCkErZ+fLxLiE8Tf0xtI64wRIjFGWSWvXb0mGDtjgmh86dy5M/r26yvaibZS0wFx9P2IMeflNiI2hxYfxYsXF24O2gZMQYo0xuzeswfvvttf5GhxLmT+PPAnli1dxudXPPnPMce8gQXCQ5qSTHbff/+9mKhooLx3x0HJiAix+qL0weSHdE6IZHZcu3YtZn0+C4cOHsLtqCix4qEPmfIS0ABAk3iBAgXEYEzm31c7dRKTIJkKH3bRYEw++K2//YYJn30mUg7TCqJDx46OQ6L8/MTgQavBbdu2icGzUuVKwmpBmfJoRe/u5oaNmzYKs+jrr70u4hwomQ5ZEci/TANt6sDJ9PZy+g3lXejcuZMwBz/MjEmMaGAuU7YMJEmDxIQEsVqluAvy4ZKVoGrVqsJsPGXKZDF5dOjQAStXrkSpiFI4cvQovvtuOQ4fPiKCH51b44hpVh4yJEOGHGKHzxg7ElrJsKgyqn1dBMt/2ozy+2rBrrWJ8utUHXRJJri9JkPbUIKrlx3nNt1GzCINwl1Doaga2hn5RC+nz53M8WRdoeC6zZs2OyxIFFfi4SFOPqRJc926n4SVZ/2GDfDwcEexosXw0ccfoUqVKqhcubIQEmSWpsmStsnSKvWff/65s/KOiRFbI1u0bOH4b5lQPzSJUe6BXzZuxK+bN9/lt6eJjOICSDSTG4wucput/3k9mjVrJkz65Gai8zjmzZsnRA7lU6BYHJqwSZiuWr0abdr8DwkJiSIomNxtJNSc3y+txmd/MRt169YTW5Q7d+okLAm0nZKsWBT/0KVrV7ETgKwmlM78lY6viL9RWVZ8t0LEdpDwooPcaLsoiYJZs2aJOKX0JkQj682aH9YKBl8v+VqIFKfgon+S2KHsrWTRo2+GLCVDhrwvvlX6Zlq/1FpYqEJDQvDdihVCzAx5fwj27tuHxo1fEMGXFIxKY1PJkiWF++LTTz/D/n370m3heKIdlx/+XBBggfCAZqJB5fr1azh27JiY2GOiY8Rd9OHSBEgpf8kv+emnnwqfrXOLI/nQKdKbJrCuXboI5U+pmMmvTn5b2r2QEB+PQoULi9ULTdS0ipftshj4nG4FWk1RZDlN6KkvP38/fPnll2hQv4HYluXi6oKl3y5FzVo1ER4WLsyx5cuXEwMBDbKffPqpmCg++mi8WGlT9kUyrfZ4o4c418DVzVUMxDRo0uDyz4kTMGTwtERauZD/mNwxlErZzd1NTBz3mv3pHbSPncTMzBkzhWgKzRuK2Z/PFislytdAxxKTFYImfBIL5AsePXqUiDcgKwmJI28vLyEcnCZYys1PwZ4LFizItF/83i5ghwwlTIbvaAuszVwR3Dg/EvpdwqFe51EaAueeAAAgAElEQVTQqxA0yZkTNbBDowJxFiNsHlZIIRZU7FQU582XEDnNhlB9OBRKr/iEo8mpDWjl3LRZUxH/4QymdQoEEmDEmCblDu3bg0zsZN+gyTAsPBzvvPO2WKH//PN6LFlCCYNcsHfvXhG/Quc1iHgKVRVxIZ9NmIAXXmiUadanz5wWq1rqM7R10XnYknP3CiUlq1G9htiSSYKXhAudpvpS65eQaDRi48ZfRKZAEt4kDCgFd+3adcRZDsOGD4Ofr5+wiJDVgJ7p/B/VgywhN27eEH7+6TOmi6BgEkGnTp0S99+6fUt8T1T3Lxc4gn5J7NOZETSBU4Aw7RQicU3fKJ1G+cXs2SJ3w8gRI9K9u4MWCBQX9GqnV4U1Rq833OWMIutBqVKlxEmw3bp2w9mzZwUHsubMmz8fHTq0R7u27eDp5QWzySTKGJ4vH1q0aC7yOZBYyV8gP6wWqxDRcfHxWPjVV+L0SxIzfDGB9BLIsEB4mFkxLT9wZsyRj3rmo56XVlnSgkMfcL+33xYR+Qu/WihWrrTFMcA/AA0aNED58uWFONixc4eIJ3BeNLFFlIrABx98IAZX2jNOA9OvW7YInzrFApCapxUOZWCcOm0aJk+aJILuJkyYKEyiNOmT6ZImbrJgOHcl0DtodUemRdo/ToKA0uXSQU0//fQjftnwixgMe/fpLfZAd+rUGbt37xJC4NS//4p4ABrUtv62FR06UHKa6/hi9hdiECTfKk0yGR086H30ewpsbNqsmRAXD7MeWCxW/PjTj/jgg5FiQCbBQquoX7f8KqwoFIi4bPlyfPvNN2Ii6NO7Ny5cvCAmvC/mzBHul/nz54nTE202q/BRly1XFmM+HCPMwBTMSKu6rLhskCHlleH9oQVJjb3Q4JNy+M78PfyW5IO7m6d4v1W2gRwJig1QrIpwG+ncXKALUuA1MQk7up9GZW11KNq7D3HKivKlfgb1OZpMZ8ycKVabTteN8x5q08VLlggBQJkU33//fcGJfkfbUClZEZnxyW1FfZ6SGJFoWLlyhTClJyYaRd+h1TutZGmyEWnFkw8HS8+3ljrmhHapUOZCOoaaxIFTGNAEPf6jj6Aoslj5UvAs5V8gFxit3mkXA02GZCUhCwR9V2SaX7tmrciRQc8h6xglMYu8dUuUmQRSSHCwiNvp1u01LFq4UFjYunTpihbNHe7Bzl26CCsCCWkS/xRLNGr0KPzz9z8oXKQwpk+fgUYNGwoBS/2VrDFbtm4RrhkS9GSReeXVV0XZUrvVHsXFGUhKQoaCJOl3FFhJOU3oe6dvaNnyZcKl8suGDaJs0THRQriQtYHyn/Tr21cEKZLwppgkiuugdOb0f5NYpuDqaVOnwcPTU1gXfH39klMvZ13Ctqzuy/y8OwRSz2/p+caeFLsMC4RHFSSrJ+3MiAoq3+MCpQGJAqau37gu8h4EBPiLZ5IlgQKayB9IA8a9Ufr0O1oVkIAYPGhwimXB28cHw4YOFUGBdIgKiQvaURAcFCROp5s/b74YFGg7FUWHky+UBkayYDgPNSIWFMhEAwmdwEeDk81uR+MXXhAR6JSRjlYeFJBGq6Bt27eLgbNdu3ZisKVdDWSVoBUQuTMopuLbb5di8uRJwrefmbz2NIDToFS9RnXho6Xjgh90UdnJzUFmYrK+kHuFLuf2uVatW4ldIjQgUyCVRqPFrchIkQ2OzOFVqlQWk9OunbuES8TH20e4V0hEkdWBxMW9MSLp/WAe1McUjQol2AqfcTbE9lWQb4Ev9g86jeIxZWG0xSNPSy+gVhJOnzkLb19/+Pl5w8VHB52vFToXINJ6Awc7R6GKWw3IGsf++Sd10URJWxFp0qU+m5KRMNlqQa4l2kFDQoG28VFkP100KZH1qnefPvj331Po0eMNkaLXOVHRs3r26gmd1rESp3765ZcL0KBBfbESz8gxy043CL03IDAAc+bMQcUKFcU3RP2b+sXwEcPFSpnEqsPapSApySjOXqCcCdTX6DkkfimNMHk3yM1A8Sok3Gk1TRzWrlkjYiXI2lGhQgXkDQvD+fPnRErn3bt2iYmXdlCQ5Y+sEGSRoP5PVj4y65NLgSwU9O1T4rFPPvlEJJSi+B363ipWrCBEK1lAyMxP8RL0zwL5HX06rYvq0OiFRsIyQPUOCg4W8SKFChcS+UxIgJBYJyFH3wrtwHBagiiIlPo95YOgHSC3b0eJMpM1kVxGBw8eEhZP2p3xxZwvhFWQAj5FNIwEkTwto/FFadWH//7kCaT+fjI7J2a2lFKNqjXu8iQ6D6vJ7AOf999R/cmXSUlU6JhmMiPSaolWXCKwSKcVJlixBYs+Paf5WFXF3ym4ilwHFBVNZk9qUHI9kFWCVr20iqfJ3SkuyIxK91AwJK3s4mJjRQAiuSa0Wk2KuZ7ue+ONN0QwIVkBnFHetHL9OTnQ6eSJk2KgI+sFiRKxi0CC417JEQBFgU60vbFt23bIkycQlStVFoNr6npQG6bulPe2qdPkHJ8Qj19+2YCxY8fhn39O3NmaJh4glJownZ6/cF74Tbdt2451P/0k/kQTFSWEIo60YhTuFToIyWQW/40mMJo8aLIgZjRQNmnaFKVKRYCsEZS/n+IwyG2i09KhPenveY62u+dK/k+O56hIMphQan4AFNmG378+jHzbC8FV4wc6pzHeJRqaKhaghBVJCVYYL1tgjVYhW2S4mVxhiDLAHwFwV2lwd/jAU2zIYuee40Ao5/XA8qSjOpTbglbirVq1RqdXX4UXHees3l038utTMCeJTopLSS0EHa4sq5jsne4t+jUFuVF/o3tFlkWoYmKhHBq0c0BYmkQMQvqCEJzbFSWNhCKFiwhrD23BJFFHeUGov38+63McPHRI5LZwbBF1lINigCgzKFnM6DlkIaE2p8O7SAw5D0ij8pLwpNMhKZ6FtvaRwKQcJrS1mO6jyZRiKF7v3h2RN2+KPk7nQpCVYNDAgSImgQL56HwK2iZIYolSOpPwdlrG6D0kVgICAzF37hwR70FJqdK7fZDeSdkjaXzYuWOHKBfFM1EM0ZKvl6S4NMj1QKKJ+j/FCnV77TVhbSRhQ12H2oxiICjYmfrB1WvXhKDSanXie6lWraqwZNIChxYu1FzLly0X21TFmROp2i+z/S8dXZRveQQBEcicPHA98EtK5/f1JCFLrZq3uq9sIs1L+r79J1m2p/Ts5A1pzoYiM7+LiwhSooCfFLNh8ol+jsnxTtFS6QMxsZCJlD56WabUsXflXLunPnf+Jubxe/ZyOybpO9+xJKmOo47JlC3Mu45C0IBJSZiioqMQH58g/pvjeRQdRz5YZykk2GW78H02bdpEbNOilUnLli1EUCDd6JjTndH3DsHjWH2IMK+U8jsnUX//AHzyycfimRRf4YjaV8XgReZY8oPSSo4EC7lWaO89uTtKlighotBpsBw58gMxOanqHV4pbxL6xmEqpn8jNw8d8EODMaVvJquIsyke1F9Ti4a72ixZ3qVqxVRt40hyJMkAaplx0/McpL2+CDPmg1WjQlIVkT5ZsmtglmToVDs8VE9IoJPzAJPWDLvG6gg4Sy7/k+rINHGRe4dMzMf/Oi7aPGXASa4wJSUiK8zRo0eE5cpguLPd70GaSvBM7njOv9/P2CmO79TM8bp7B43UT3D0DjKjV6xUSaR7JtFMCX7+O/3fnXIlv5v+YbGY0aN7dyz4aoFwLTn69B1Z5fgWHSmanUGTFIdDz3V1dRExAY7HOdxrhQoWFLFDlIVUiPxkRvQ32n5st8vC+nfs2FGxRVKIZOcHBQiBUSB/fnE+COUwIXcF7Qyh9zkE9Z3ypf6e7+aoCqsMTfq+fn7i/BSKWyKx6zwGndx2ZC0sULAAFEXFhQvn8evmX0USJEd8icM1kzpFNr3D+Z2If1ccAcu0PZv+SU1DrBMSKU8DldVRKgeDXDPYP6lPMZPPdfaM9M0TqbpiJt+X8Z9J1atWv19AZmA1lvFXPge/SB5UCAzt904ZgDLEJUM33wXlzva4x/twnatU51NocCazMiWRIQsFraJoZUKrJGfQX+o33hnY7i8HPZsSOrVo0UK4GcjHSRM2rTRF7oeuXVGxYkXcvnVLuDoo8j1fvvxi8tHSSYJr14pocjIPi3cnv+xOme+883GOrHU85c6zqD1pJfuoy/k+OwkkSXGY09X0tmeyknwK3ZwG95IRJcXK92FXfFw8BgwcIFxjlKXQ6bJKmRzSEDH38nvoi8gykt5VRcrR2Q6mYsITrJPF6B1VK7YPkkUvQ6tcZ3OnajIqG4kCslrQLojUHEjJkdBwWsbu6x8qxCr85bYvo+ebPUWCJhLmIn9Ev34p2UlTv/ZR5aU+6NzNRO+icomFSColQVYVslZQmWjBQe6YO+VK+4twClRnO9MvnAuAlO/h8YaXp9DDc/grMjKkiA/lATwe0NdT7nrY3x40yDt/dM/fsjQGIYc353NdPTKL0lZG2jUg9lC/8YawlJDfk1YlmbnIb0rmYhrEKY+Bu5u7SABFkxKZhpd8/bWIJcgTFCTMyNWqVRMDLW21Cs2bF3q97r4dD6kD2jJTptz2m0e5gpyTA61wHyfP/4OYPq/t5NwSm5F+QnWl7Z7Hjh8XuRso3oMOjqLdArTyf9yYp4yUhe/NfQQe9a1l5m8Z+Q0LhFzS38gXvfaHtSKDIuVJWPfzz1i8eBH27N6T6X3R9EyKmyD3Ae0lv3njpsjVQCZTirFIWRklm4CdJ/Y5B1QeWHNJ58sB1Tx05JCwwFDg35mzZ0TAbMdXOiI2JjYH1I6rwAQeTIAFwmP2DGEaVY1QNG7QSloRfpbdLjJV0k4DSlFMaaMpQQ5toWzYqBECAwIeewVELgLi4ExW9LyuLrNbu3F5sg+BK1euiEBbyo9AORHouGqKvaEdQnwxgZxKgAXCY7asbDPi7V7FMW/pP4AtAI7otux1URAWBWbRwDZ50mQUK1ZMJFGiLVulS5V+bIGQ2sxNYkEctCPiCrKfWMpeLcOleV4IkMgeO24sLl28hGrVq2P58mUi6Vh6Myc+L/XkcjKB1ARYIDxGf7DJgIf+FpZNtaHDUC/YbD7QwxFVnZ2uc+fPib3em3/9FZs3bRI5EwoWLIghQ4aI4Ce+mMDzToAEaWJiPIx2I/L4hYFseVl9UTKiyVMmiwBDykNAuxFYBGc1ZX5ediLAAiGzraFKMFpkNGlQFG2qb8S7UyjozhdaZD8LAqW3paNoKVUrJVP59JNPcOLECXESXUYS3mQWFf+OCTxJArTpITHJinZtC6FcwYsYOUcLXw1t+cxahx+da0CJiCgRE31PzhwMT7Juz/LZbAV8lvSzx7tZIGSyHVRVA5vFiPEfNsO6VZ9j/7/F4ap3zZYrCkpuQ0ljRo4cKRLBUDZFysZGiZX4YgLPOwFVlcQB28XCojHkTQvajiuMQMkkNvY97MjxzNSZJkzKRkqXSDaUw6/0RLsTArai5NyOwAIhE23rTIri4Svji+EeaN5nN3x8a8JVMmdgv3wmXpzJn5AFgY7p/WDkBzh95ow4u4Gy6jmz52XysfwzJpBNCDiSaRUJjkHfria8NrkIgrUWSrGVTcr3vBUjORmcRKeNkCB6UCzRnYRxzsRpz1stubxpE2CBkDaj++4g76bVakHjRvnxYoU/8cEsV8hSMLTZNCZPnKB38CCGDxuOuvXqisQuZEGgBDSs/jPRAfgn2YuAKiE6wYw3ugajgGEnPl5ZEp5aOiHxMeIQnJkhkwNu72RspGyJlCL36SXESj/srCmT2WJBjep5ceLEnzBZCkN7V7CxI1G4McEIg0GC3uCWnOQs/YOfo5RZU9b0s3kCd1JyMHJjJSdRcySiegLveYaPZIGQCfhkQYgxKpg9Kg+20TG5x2vAU2OmI3Ay8bQn/5Oz586KTHqUi50CEylJ0oWLF0XmQ76YwPNOgNIRxyUm4fNPqmH9qsXYe7oUtFo62fMxRmtVgkjkrbGjfIQeXt4WaLUyzp6Lw3/nPeHiQqmfH+P5TwQ6xT9pH/vJseYkLJ1cGkuXrcG2v+vATec44MtxyYg3adCrexWc+XM5Dp4JhaT1TvOd5AZSYYO3hwkJRooPcb/nPJI0H5G9blDpBE4TggOtuBVDCd/ck1PcP4YozV41FKVhgZCJRhEpmA1emPOBBm/23QFtUGUYYH+8ASkT5UjvT2gPNx0LTUdRn/7vtDgxj9wL2W+AS2+N+D4mcIeAImlg0Jsxf5w/2vc6CHe/ktBrkg8yySwoEdcAVKrkh35tTLhwKRp6FwX5wryxeed1fPezFlod5RDJ7AuexO8U4eKk7PCKaoakdYWWVrcZLGNkdDSWTSuNr5etx54zteCutaQUVpEUGE0S5kxvgg3fTsLvxwtBq/NL8xV2BShezAN9XrGj/8hjMHiWgjYNFxBNtdSMVAWSPhohKbLHBGyTVXj5qJg6IhD9xpyAYsvrkGYS9ZocYB1JbnEWCBn+TlXAruCl5mEoEnYcYxZ6wEfrkfyBZM+OQRaP8Hz50KpVS3F8LZ1/IPpy9hrdMtwS/AMmINa0qoRSpf3wVstTeH2oEd55isMAOmY7gzNjapyqBnGyHa+/EoRibgeh6hpg2dItoLyJ08dFYP7SK9h5PA889RlbsdO3SEdZayQ6bIkOXcu6i56t2hUYXGMwrF8RDJ50Fb6udDR3xt5htLti0YRQDHt/JWJcqsNAk17y+TQkEIL9ZYwZGIy3R+6ApCmdJmcq1/UYEz4fXxpnj63Ciq1FAF0ANMkHbT2qdLKq4NrtKKiShFD/AOjpZNpnGFviDNw0W2x4pUM9NCi2AP2nBkKRg5EUFws/fz8haNI+LSNjbfKs7maBkEHytKXKbJUw+cMgbFm3Eb+fKAedRgfhkkw+zzCDj3zit1PR6Mx5So3sOPjmsYbOJ15efgETyAgB8pl37lAVoa7LMWdFPsiSI7ZGHHqWnLCLdjnQCjQjV5ysomsbL1TPdwZlyxbBOyP247+o0gjKY8HMwQb0GnkDVik/dIoVajrddWZFQY1KIXCx/osD/5CVwsfxNT6iaI6hhSZpOjTMeWrkPStpSYGsaGGxJuGjD2vCNX4N+k8Lga+bp8NVks6LePmFhGLs20DnrpsQWLgsNPSEZIFgkWW0bx2ICsG7MeyrgnDVekGnylA0jtX+gy5ZVpGvgDv6d1XQf8TfMHgXFattEkmOVrq/8mLMsgIN6rmhZW06mdKOY/vPY8UWb9G+ZLqhcpF7idSLSdXBVesIShXn2Ca3O7k2HAuhuwNWRdiA8wA2SRbjt8OpRCfgkguEnnTvibyO2tGzqR3nf1wEEz9dhXPGKihWxBP92iXh/clx0Gj9oBPBnXdcuI7IjdQHvWesL6az+bL8NhYIGURKw0xifBSWfR6KAWOOwmQrKTrrnaCb9H+MGXw1384EmMB9BFRExdzC5+PKYscfG7HxSI1k64HjRvouZbsVFtUOF4O7mMTSs7qTVBUWVYviBRNRpogZvdqHou+Qw7hqKouoqJvY9FV+jJx6AudvFksWCKknOscY4JgS7kx/dMft6GhM+qgW/t6xBhsPB0GVAx03PMCa55zWLDYLbLId7q6u0IgJj6bXu8cZmuDs0MA/jyvmDrfhvVEHcdNUGhroMrQaICHQpIEPKha9ivena5A/WILFZIVKQkZVEXn7NhZOK4+13/6IPZfKQyu5pFgoUvImOI+pd0CARVbw8eBwXDm9A9v+LYxgTyv2HaNn+kID+b72oJqZrFY0r+uFDs1M2LTlLEoU8UTZCOCNIYlQXUOh0cqISVDhpvdCniADShSyYP/hW5DlIJHbRaG53cWKYF8gMjIBgB80glvyJJ8sEOyyAslghUFKgt3mLUQHCRoSZBpKhHVPf6Mp3i7bEZIvGJPfvo13hv2DKKk8ihdxQ+/WFzB4hgEaTSBcJDvUZIFB/U1WZCSYjZChgZteC1edS3KzZ2+hwAIhXUMuKUHqcRoYTQoaNo7ASxV/wYBpvnDT+ydH+fKWqnSh5JuYQBYSoBWiVbXi2wnuGPHRARyNLgNfgwwXSSPOBlEUCU1q+SCPXwwW/GyFl46C49KeMyWFVpI62KVE+Pi7Y97IWLz7fhTitfmRYEzCt7PCMGfubhy9WAoATSTO75/GCsfKkY51TrQb4Wmg97mC5p3EhBhs+NIXY2eewKkrJaFR9Q+hIYFmOVkyoUFdL4T5RWHF5mjYLQWg0WiTV/QUQZ+sFVQFsfG30P+tmsij/xETvykMvdYzXWIoZdIEcOV2DOZ9UgzXTm1DYImOqFz4b/yw4T/M/aUivLUm+IUXxeQ3TuDdYSeR4FoRGtUEVZVh0LtBUSWYrBbodDa4aA1QJT2g6JBovIkf5gXAG6ehGryx75ARkxd5wa7NKwTCvZciy6hW3hdDelzFgX3XUL5yCRjjYzF2+il45q2O93vmgbfbDVy/acaAsf9ixvg28NftwmdzbuO/yPKQJQOiTGZ89UkoCvrfRGRUJAaMiYFqiICUKojTJmvgE6jBzBF5EBd9FH3Ga+Ci80HJIkGwmQ7i9I1icHGYTgRkRVXg6qEgf3ASWtQtDEn+DZMWV4bOYINdtiE+9ib8A/JCpb4nOoCwZUCWbfBws+H1lwMQGhSPHXsuYPOf1D56soFk4deQ9Y9igZAuphT4o4iPzSKbMeHjNtiyahJ2HCsBrc7F0RFEcApfTIAJPD0Cqkh7XKx8MYzofAGqTQOrqkNsXBKO/xuDo39H4+QFWkPrMGl0TRzYtxvfbfaHpPFJM7hQoiWoqoFVseKF2oHo0Gg/eo8Ph07vhtiY2/hhUXGMmnQI52+Ho1ioBf/9Z4a7ZzBk1QpJcQc0OijKbXwyJBxerlEY/OF1JGqCUL9RYwxo/Q26jXRDki0fXCVH4qXUk7TDNiAhJjYe8z7JD3PC3zh7yQUv1HXBkLFXcdVWCyHul5BoToRVzg+NYoHRZsLMsRVQLM8h/HcmClMWuyLWGARI6dyplByUaTTHYOXMcLhZ/8aOP1Wcv+GGOrU0eGeiLzy1QOdOFeEmb8KshR54+X9F0LHlbZw4fAVTv3NBoXB/9OscAD+Pm3jr3f/gGlAJsRYFL7xQHsM7rYctyYgF3yXi5wMFodP5QifdvUIX9RYug2hMGRMBV5zFqTM3sW6LGdeuewFafxQoYADsV3D5uoJenUNQqYQVkTGxGPqJFZJbMCSNN2TZitGDKuH2+Y34ZUscPhyRD18sOoddZ+rAW2t2iCZJga+HijGD82Hrll8Rkj8fZiy1QZUDMGN0BHZtWYV1x6ugcqF4HDujgaoYADkBS+c1xaVz61C8kAF2E3D4PxfsPnQdR//SIlEthLCAK9Br7YiOsSImwQM2uzsqV3DBwDfCsW/3fpy+pKJH23JYuOwP7DxZFgZd9k64xQIhHaMZ+S9JSNJpjQZ3O776NB+69vsFqqEaJND2RkeELV9MgAk8XQJk1tYbVLgbLgvfsJenjAJ59ShcQEL54v7QGVzwzxk73DTAC9WuYcAnJpy+WRIGbRrBhcm+gSSLFQNeD4cu6WeMWVkNPlobKlQOxxsvncY7wyLRt08zNKn8L/YcicaKH224lZgHiqqD1WzGoHcroHnZbfjux1tYsTUUJtkLo95rB295GgZP8YGHV/h98QE0zigSYLPJeKlpcXRoeggDhl3F1aRi+HqCHxYu3Ytz0Y0xcaiKlct+w9a/S0Or1cAiA12bJ6BO6Uj8eljBnkNaxCUUgpRegaBoYJaBmjWLYWS3o/hty9+YuywUJcsVRfd2keg93gjV7oOFE8PxxcKtyFf2XXSsuR17D51GwxoRWLLsArq8EoHtfxxEQFgI5s67Bsm7HOySFR+PaYByfoux+qckzFmfH14evsJVImTQXa4VCVZZQbP6/qhT+hQmfZ4Am6KH2RAOqzkJ7u5kbVGgKjrIJgsG9fJGw5rnMenzm9j+Xy3oFAtsFgV1qnng/V6xuHouEQbPQrh+5ThmLTEhVi0vAi6JcbzRgkkji+DyvzuxYI0f7HrA1dULZsUNy6YEYdyYtXAPr4lBr0noPtoEA9whyUbUqOKGAPdE1K8Wg+mLktCigT8a1VWw+PtInIuuhzG9I2GzxMJmC8bOA9dwNrIqur10Egu/PIk9ZwpDVr3wv3puaFr3Xwz6LBAuBq+n+8Fk8G0sEB4JjIJXdCIZhqw1QTXpULWqP7o0/QsDPnaFSe8Of68kmI3u0IL8VwqUbJoLIYP9gm9nAs8JAYcZVyw+nSWmgD27BdEx11GubDjqVPZC1dJGhPhexZXLiRjyqS9cfPOmXT9VxW2bAV+MCcayWatxLK4qfL11mDUuHOMm/Ijb5saYP+4qdm2LQmiBajh3aQ/mriuKAK2KwGAZE/prMWvZeew95ga9JhiJ9iSsmVoKsxeuxp4zlaHXSCBLRepJkiYvYc6GK2ZPLI2/D3yL6cuLw1Uy4rNBpXH1xm+oUeUF2JXfoNcHY/l3kdhyKBA3oz0xbUwYzh/ejmW7ykDSqimTcFoVFdsJFSDOZsKno9rBM3Ea+o2T4OtfEMVKuKFXm3gMHBcDi+SP5dPd8c4H5zBpQg+MHjYTF+N88fXMJgjz2YHFi29izcGSUOwm+Lr5wphgQq8uIWjT4AzmfquiXbsS+HTqHpyOIevAAwSCCphk4PXOJeFr+Qkz1hUXFiJJa0X3F93x+5Y/cdVSAAadFj1fLY4GEf9CNcRg4IcG3DQVhKRRINvMmPdpCSRGrcO2/SHYeTAJUQnu8DD4w67RQ68BzHbgtf/lQ7ECxzDisxj4ehWBTaNClTUoVOQm3nvNG13738KCaTVgvb0aA79sDA/YoIOKJJOKT0eVxJGdy7FxRzG83CYCJUO34e1PVHwxuwfcYpZi/TYzjp2OwKJpLjj+txk62ylMXBgIm84XstmEF+rlwQu1D2LopLxw0dNx4dk3bo0FwqO+HqH7i5QAACAASURBVFWFMdGInt2qIch3Hz6cZcPiCWWxfOka/H6pNGaOLAXEHcGYz21QpNAszfue1kfNf2cCTMDpf78zwFLcgUp+bVqJU5CgqoFZMuF23G2M6BqOQnlOYdR0D7j4hKdrm6+s98Xssb7o2WU55DylMGN8bfx7YCWWbsyLiMr10LPVdvR76xrada6JggXP4LNvAuBj0KFSlYLoUP0gBn56EapLIHy8dRjcpzZqFz+KPh+cwb9xL8BTSXhobjUXrRGLZ+THwPc345qlHGDVYMqIMOzZ/htatauNsSM3onSzNqgceAgfzrUgxhaIlbOLYcrkLbhijIAkYhvS6V4QgsQADcxYMSMMSxZsxo/7faFoNHi/Z3m44jiGzAtEx8ZBaFTtKIZOD8SiGa2xcOFilK1QEu3qx+D8v2fRd3wQdD4hsMhWGDR6yDFGTP+4IELdDqDHOC0iSvvj/Te9MX7qfzh9pTB096SeFQGlkg6FCyRg+Fvh0FHgpSzDx82OPUdOYPYXcVjyVU24aOPx5+ErOHrIgmYtffDakCQE+KrQGQqgQrUC6FTnLN4ccQJ+QRVFAKXFKiMsyAQPdzsuX3FDdGIUVsypiwmf/oTLcYWhgRcUyQrFIqNlMwURIWdxIbY9urXcj+nzTuL3v6oLS4wqaxEZdRI/L6iGd0YfgtWWH5+MaYYNK2fg5JUwzJlQFh0H7YPZXhhB/kbMHe2GK+c8kJBwBNMX+cOq9UFsggVffFYNG77/EttPVofBcH/AaXb6rlkgPKI1SL3Gx0ZjWP8KaF1jLzbsCkGpwjKmfn4N7w4phb27jmDFek9ILhRsk7H90NmpE3BZmMBzT0D4rsnlnpxKh3ICqECUVUWNMi7o1NwPProjGPNFFOItpaCV7s9BcGdrHO0/0ID24BcuoMU7r9rwzqgYTBxdGlFX92LGcju0umKoWKUwejTehbeHxeC9fi1xK24TFmyuBG/JBm9fM0b00MPfIxFQdZB0dhw9GIn6tfJg+KRTOB7XCF6Iu//sFtpCZ7WjWjkdhna7hI4jvSBp/GG16vDDND0WfnMGnV4pijbdj+LdYV2gif4eKza6w+DijxmjDGg/8AxCvQtBpjREYpHuCLBL67JCD08XA/p2uIiCRTyQaNLAYHCHarqEKZ/H4JyxOAb3LALTjY2Y/kMJvNTcCy3KXcPtqEQUKWTAgd8T8e3BAihd0gel85uw8sdbSDAa8FanMBTNtw8fzQuDXXaHf2AUFLMFRlN+4L6toRR8qYiti26GG8jjHw2NRkaSWcHV6HAhYZrUNuOvf6/h/PUA1KycF2+3S8S12LwwJt7EhPlxaNysFSr4bsQnyywwIRz+Phq0ezEAzavHYMm3x/HroUKoWrMS+jb9A+987AGtS6CY+G06E7z1cahVwRVd2tmRaIqFl9aG7oOiobpVBEWDmhU9xg6ohBsXlmP26lDIJhPWLK6F90dvgZtXQcwYqseoWbfgH5wXXVsasObHnQgp1gXB2vX4YmkAzLIH6tYOQrtGt/HW6Evw8sgn+ll2vlggPKR1RHCwEAgxGN6/IqoV3QK/gEDEx96GYiiOOV+fxu6/vCFpw6CVaIMRxyBk547OZcvhBFIJBOfudYtswbB++RDmew07dpzF2m0aaFwLPGLnwB1GqmqF0WrEpGGF4akegId/fRw7ug+LV8tI1IbDoOqhddFhdG8bfHzNcDHYMXPeGfx9rSz0ih4yRffbYuDra4WrEo+h71WAVo1H0VANpnxzGlsPlYIrbaO7b9hQEZtgQrdOZREsrcIXayOgSC7o2bUAfO178MNWP4wf4orZ31rwZtcgTJh1EFdvFkCAtw4j35HRfsANFMgTAo3kBjvF4qU6K+BRPcCiAjpJhWK9BRcvO8LyamCTk3DljARFHwTZ7o7uXfLj8onNInuiBBl6eyxkuwtq1fDHa60A1dWAhFgLtv5xBbsOBEFRXOHpZYKrSwxuRucV2z6dokUjkX3n3snReQCUDBk62OEqggklyQqdTLsd7FDtNkg6d9hpG6E9Bs0beMGadA07/1QAXSjKlCuG/u1v4Ohf1+Dm4YUC+b1x+fJlfLUmClHRhZFkN6DNyw1RxWcupnzpC6uXH4IDPfHe6344dOQIvtvkj9LFZMTHJmDc4GLoOWwXdIbK0KsqgkO1mDVag95DTuKqsSjaNMmP+uX3Y9hkA/TaALzZJRRl8l1FrDEBG3ZEYveBYPgEhcBDewXRt/2QqChoVNsXcTcP4/iF0qKGjh2u2XfukNq2aXuXvHQGtTzomFSRqSsHjTMPrQtlO1MVsX3RZjWjS+tAFPLfgEIFw5BovILZ3yTiXFRDSBo3YcakSxxoQmYoEdD49CmlZ+vWg5ouJ++9yN7a/Pn4kJy76LJzae/q+8lBeXS6o0anx8v1L+CXLZdgRQVotT6wwQYpOYPfw/o+LQyavxCOooH/oFBwNDxcY7Bux3Vs3lsONg25Eg3QKDIoxbOiRMPH9SKMligoUnVA8hBuDVq1a2ibH40NqhkehovwdbkBjWxFpMkHRpVWpVpHkGLqQEJKLSwW/pHQ2c/Drq0MX189hvYw4bMpJ2FCAbRvbUaRMBVr1h7Hf7dqQJY8EeJtR+/OUViyAYiKNyAhLg9oEqZJma5HjUkiHjN1ukURF0EJmWj3lgYSrfQVO+y2eOi0NkhSoFj9U64I+q2i2OGmRiPJchk6Fz8oUhg0Gqq7TlgE6KKskY67k+NF7smi+ODxi3aHOXLM0HOccxP9u0ixJEmQZYvDEEE7IlQtbLYElMp/GTVK2ZBoMuLg8ThcjCsHRQqEJBlgV1UULeKPwW0P4fSlEEju3ggJiMLOP/Zjy75A2A1VoahWQLHglRYqftq0Bxa1MXQS0O/1YPx1YAF+P1YdBn0oXm/ng/XrVyLK1AiKRg9VtQFypEjJZdX5Q68aHK4JSsRkB1StIw22XuRjkEW70+647HxJdWvVTQ6LuVPMzOiZZzEpPi7Ye6dxmuNTz+30kcTHReP93pVQt/TvSIzXYPisOESaikEPN5EJjA5HSZ0M5elLAweFzLRZWgPH4/J94O+folrOLJMnUu/n9KGOweFZ9er0QbvvO07+mRDrih2Sho4tvpNP8FH9wlFfBYXDzahVTcXVK1ew/4gZCfYC0En+KU92pkBy5MZz2CxoYrhzOWZ6x+qQ/l2UJvkkSCEf7vpu7yfszLynhUZjRKDHNUTGh0FWXaAqNpCFw6B3BySamMjqEIeJg0Pgoj2HGStu41ZMWehFLAZNsunjeFfZ7/pJclbKVOPMnTHPWXJHnkDny9Lzyof1qtS/vfP0R9fhrjFYlUVuBjEuiiOrKVmUgz/1AxIAvl43UK64DLvNgqP/JMFoKwpJn7yjQKVsCbJITkW5CoTIIsGpiYPNToKJDgLTQbVboNFqoJFcRCD7HXeOs9SOPpDyfyVnd3TSzN5fVfK8UrNaTVH/9GQXy2g3e/7vV2EymdC5bQS6Nv0T7429gdOxZeEC6nRysnmQ16nPfztzDZhAagKU3EZFkiUBWq3WcXKjknxE8T0C917z8KMWSukxJd//e8eqW1Z10NIkRJNMSqyFcyqlIEMJihIDmSZHnRsMqhu7PR/SqUkoUJyD1WaFRqtCr3ODhpb2ZDGhMzIE4btPxnS0i8Oq4kw7nZlvJnX7pqc/ZOYdWfkbjkF4BE3qEjJUuLlrUavUeezYa4CsC4dGuj/7V1Y2Cj+LCTABJsAEmMCzJsACIQ2BQPk8SG3aJA1cKahEmOzSY0B71k3L72cCTCBnE0jtv2ZLZs5u62dTOxYIz4Z7LnurY8sZXc+DWS2XNQ5XlwkwASbwQAIsEHJsx5Bgtdth0OtE0FUmIpUem4wIC5Ic+5olRYPExDj4+npDUeg41QdbYZxxzsmx1858a49dFn4AE3jeCNBhT0JUizD95yGk7XkjzOVNiwALhLQIPWd/F8leKGWpPRHN6wbg6N9/IyaxaPpzsmdhfUUwEIVPqRJUFwMGdA3AnNnbYHUtIU7ae1BgLG1PE7EfigxZpf3FNtgVrdhmJIK0ki+2RGRhQ/Gjsh0BmyzDo7ALrrmeR/hfhWA22LNdGblAOZ9AjhYIYjWavP2E/nHvmjXl/PKn0M4iLpaCkCUFWlUrtt08iYsmWMoRV7hMPnzc7xYWf3MI63cWgo62RD1lE79DINhhtcp487UyaFp+D3q9fQVJ3hXEAbn3CwQ6UlWFxWZBjaphaF3XDg/XJNyMtmPRyhtITAoXwsFRjyfD70m0CT+TCWSUgNFkRPleETjs/gfCp5ZDvFdCRh/B9zOBxyaQYwUCTU5JViuSEmOg1ckis5i3tz80qeYVu90uVrL0v7Sux92eQuKgWmUPHDxwFtAGi8nR+UzH1pksWh2rEqJiEvHpiLxoUuY4PpwXgz/+KgM3jQ5Wmxk2exI83Jz7udOq9eP9napkU4i9HSunecOWcBjteljgWrCiEDH3CwQJNiioWsYdPf6nYMXao7DZtSheNBDVqwG9h9+Czi1C/DbV0TyPV0j+NRPIZgRoLDCZzCjduwgOe+xAkYmVEeUb96TWFNms9lyc7EQgRwoEi9UKnwAJ9avpUS7CE24GGTdvJ2Dtuv9wNaYo9JIOsl2HWtU0iI06h3/OBkCnc39kLghndjT6eDVaO+yKDVo6kyydOxoCgwIwa5QZ7w7ciWu2SjBoAFlWEBQkwZ50C7EmX0dCD8cu50z3EVphx8QZsXaeNwK0J/HaKAuiLNUBJQmVyuhRJSIRM7/3hQ+JJkcetEy/K80fqoDRrmLk4GrIb1gLHSx4vX88fPJXcByQ/YBqyooevXrkQ+Sptfh+VzHoDB6IjY3FuOHFcOLgr9iwpwzcKa7iMRilWW6+gQk8KwIisY4ES5IJJfsVwRHX7SgyqTJu+8ZDIxYRmR8bnlWV+L3PL4EcKRCKFfHE4L7eiDyzHRv+MCEyUYNKZYLxamMt/jfYAlUtCpusYun0QPjr96H/KBOuJpYUubEfdjkFgoQkzJjQApNnfI3LN/JC84BDX+59BomK0iXcMP6d6+g36Awu2arDBSpijHZM+bQWzu5bheVb3CFJvsnWjLQtGg8rp8ViwavtK6Nlta2wGSPRebAC9zwVcOt2IqZ9XB5h6gp0ntwYgYbE5ByQT04gyIoCg7sF30wugi2/3UTBkJsYNf4adMGloSqUKvX+elplHQYOCMPJbd9j+z+lodrdYVGAWg1LoXmpLfh4lg6Kawgn9np+xxwu+aMIJAsEc5IJESQQ3P5AkYmVWCBwr3kmBHKcQIiLj8dnH9ZAraLfYfxHKvZdLQJIXjCZEzHmw5dwascCbNofigSNL76b7oEvpm7F8avBsKthaVgQKMOWDh6+EhaNNWPSrBM4/F9RKMm+/Ue1HkXxlyupx7jeN9C+5yVY/cpDLxtgsl3BD1+UxpcLdmP73yFQJd90WyQe9D46fdJksWLxjMZwMf+MY/9cw+RlpeDmAhj0Kj4f74VOfffB3bcMKAt88rl3me54d7YuOh9BqxtNcv51O0yJRgzqXRJ28yYYrfVhwF+Yvq4YfKWkhx6NbUoyYeLYwlBiNqPfjHII8dTBJlvRoEkxVM27HlMX+EF1C4JOpfc4Mptl9BI55kW+ecdxwJQOKzPPyeh7+X4mkC4CKmA2WRDxTn7s1/+BkpOq4raPkZIEp+vnfBMTyCoCOU4gmExWfDC4DBqUXoVPJ8nYc740VI0rjCYJrTrUQYR2MRau9UOcNgQrphnw0eg/cCGhDFSNyyONdzQZkfm+SrlgvNb8Twz+WAJcCkFNxwRFE2mxgnqM7H4R3YbaIHmGIDHRgu6vVMBrDbeh5ygrbpvCIanpd1k8qAPIigo/XwvmjgnGlYux2LT7BH452BAGKRrlygbhzSb/oPMIE4LyhN6TCT5z3UmlLFIiT7czyQFZYLSgE0koONTPzxNTB8no2mc7Ro1qhxPHfsOy/bXgq8Q8NNdU7O3r+GpmBShxv+KNT2vBx9UOqz0an42qhJ9XLcbu/0rD1eAOrXDHkEBwWiHuysYuDkUBHboitokZUok/CZCT4OGpINboAp04UMchFvhiAtmBAO1KtpgtKDW4EHZbf0Op6dUQ5Z2Y6jSJ7FBKLkNuIJDjBIIi69CqWSDebL0PA0dE4UJieUiSHnEmFR1fa4Yw4+f4dl0gEvQhWD5Vh7FjduBKQkWowlXw8Mh4EghRsTEY/f/2zjs+iyrr49+ZeVp6b6QQkkBIAoSuiB1X113d1XXb66qvvq5t17Wsuq69997Wurt2FLuADRERVESkN+mdJJCepz8z835mngQRgSQUDcmZP1wW7ty593vmmfu79557zsUV+Gre4skJg9Ec4LRSkrZzRcIqxxzm4ciymVzyxFAS3Fs59cRETjlK48VXZzD2s/643Uk42pK+bNeMjnvrm/iDBif/eihH9X6BO59IJeSE5nAhzYF6LrvgEFrWj+W1j4vQFSvZyL44BRCNS66rQRLig/i8XhQznkgkjmAowh9P6U1Zyqdc/Egifz+vhJmT57O6rm9rnPMfQrP2XgPBELf9sxd6w0dc9FglCYqbow5P4H+OXc5VtzRx4XkD+ffzC2kO5BG20tFEgjgczu8N8FbGNt0McdPf0pkyZT6fz89AdcTbD9R1hcH9mjjzDx5+c1kzBWlpqHZ2uGiSHhMdTXVta1xUGAbRVEu8WVE1vxMTIirae/Pl3ztPwEowZa0g+Km8oR8fV3/IoMdGUJvotTPAyCUEfkwC3U4gWPCS4xq5/6pkzvjHPDRHhR1opCUY5KG7f8Ebzz/A7GV9wRHLC/e6ufLaL9nQMhDVSs2JgalaKTkNIqZipyxV7bScBoqh0xLReOr6OL6d/xmHHTWIa+5bxtpNFbsJ+mPQ4GuhvtnPk3eOJC34Ls7U40iMr2LNhjpGFNdywplbaIoZTLzHiWY4aPE10Lu3Rs3mOlQtD0uFRA8E7mpAj86cTdNpb6Pce91wXn78Gb5Yn0eMw8DjiWFrWOOte3O48f75rGweikf3RT819n+sSAXRP2utmccUawVg+/Svu3gjrRWE2HiNe68pgtBHuBy5LF+1hUdeyCcQXs1Dt1Zwz12Tmb9pMIlxETRrtt6aAnfnVSp2UprzzsihbsV7PDre4Pjjh3LOKencdet4ykYew6h+M7ns3kRcsXkUZagU9fMyd+EaGq1YD4a1mmDQ5PXy73srSVWmsHxNmPtfNPEGe6EpbvxhndNPyeT3hy/klL/rKFohumLQ1NzMCcfkkpNSz0vvq3ZCrkAISoo0jhyl8vK49TS2qAwodbB2fQOqmgfKd0Lix/zRyrO6KwHDFtx21kGfSv/b+jDx2wkMeK4SX7xp+xOrqmwzdFfrd8V+dUuB0K/Y4MI/hDjlUoO0xCCRiI/Tfz+YIwcs4M+3Gzi0PrjDdbzyaAJ/vXohG3ylBHXFnknGORxoaogRI+JprK1l6fIgppJuexBrscU8c0s1WY6FLF3VzMUPxOJwlOzUrhHdIC9H4TcnFJCX3Uxh6ioWLtnE+1MUFi8NcNDow7jotFVsqEtj4SqFp55bQ1NLBrde058+mWtwmU386VoDl5qLg/BuvJdNwiEfGSkafXrHcMlZOkvnr0fNHEWi08uN982isP/xnHnk55x3dTPujGKsCG0eZ3Q+Yh2/1Anj0DQ0O+CitT+v2wLBymC3syOgtiQxIRgJc/gIN6ed7OXaWxaQmtKLS84vZGVNKaP6TcOtbWb5+jJWb0nkqVfWEA5no5m7D/jS5A9w9/XFzJ/2Hocd9XMafUt4860NTP82m/P/WEZq8BPGTivCEaczuCib//vDJnxNQc67vokQxYQCOueeVkpR6iQ+/DKfv51l0tS0nguu8oA7146z4NHW8+RtOfz1upV4I9mEIx5O+kUJZ/1qPTUb5vK7e0aREPJRWZ7BNWfrOMyVvPRemENHHUSiYwGbtxrceE8jjsQi2Rfuil+1A7RNVtQQ1VSIcTrwJzVTcn4JE+d+SNlbAwg5DJSQiuZS7AzOcgmBH4NANxMI1pCnccyYJIZlzeWN2UO56swtxKhWkBEvF11RxRZjoB1kR480Mu5hNydd0cSRI/oxesBaWpp9jH1XpXLwIM78+SLqWzzc8+9GqhuKUHWT7JJCHvz7clo2L+HcW534lAG4FWvw3vFS2LxV56GbB+Bpfolvq/IZPiDCby7xk92rD+FAmKduT6Nm/deMfTOe007PpWbzIjyZpxLj/YD6ljTKCjfwl3sScDuy7dzku7oi4RAX/nkgRw6aQ0NDkLjEej6aHMv89RobN/qprvZw+cVDWDFnEguqRvPHY7dStXUt73zooLoll4NGFhFnzGLaTA20RKyTByUFGhuqavFFsnFZ05YdVjZt1wMrgZXh44mbMvnXc1OYu2oEvzgEjhoR4rIHVf57SxqfTZ7C0tp88rJTmPB5A3rYci7c/dbGiuVL+eTlUi6+fQVra+LxuF04cFFZXsDFZ1eT4lhKQ0tvPv0yQE6v/jRtmUNB6XHMmPwqH87uR1ZWDHf+PcSZl35Lfnk5t5/v54Vxi3l39ggcBmiqTnaal/uuSsLn3cysBTHc96LCK/cmkOxazeLFjVz17FBS4nQeuyGHV178gLyB/8vxQyYya04Dlz+cyNh/Dea+e6ezunEQqgRs+jG+Uz3iGdYvQzUMykuKWffP+TRgsvyVNeR+XEiCMwHPH4NseqWFZD291YeoR2CRTv6EBLqZQLCW6Fyc/qcSQmtfZfzsQk48rJFNa6o5YkxfgqE13PNEPoojCc3p46lrWzjn5kT+c1cmAe9sVm+IIyMtkbA/jtfGzmbaujxcMYk4SMQI6RwxOoNLT1vKP65bwYK6g/BoGqo1zbav75zkDFMnGHEycmiYxPACsvqfQkrgYx5/14XiyCU5PZVHr9vCn8+bS8A9lMFD8vj7n+bgNj3M/dZFrxy4/pbF+LRKwoblBKjYXv8724GMRHQGVzgZXbmOOSsq+cXI+dz+iIuwJ8POgVDdovL6Qwk8cOc0/vfPZzG490RWrddZtVHjoRcjPHTrr3n8+f8yf0U5LkysEK9//b9CvFtn88h75aSYDdHIDDs48YUMk5//cgSjst7k6gedGHoyTz3Um4njP+CdT1N5+4l8Lrx5NbW+YhxmCMPawtlFH9re/4hukpiZwgPnr+Ssm304tL5oGIT9m3nszmG4Q+/y9WydJ8apaHG5vPRAOedcMoFzL7+SZZ8/yNvT+vPrY/P4n+MWsa52OBW9l7Ds2/X89d5s3PGZ5KT6ufCsAnIz1pLkruGK29azZGUyfz3/d5SkTKS4VxbPvjKf974ZyJjDe/H7Ixdw5o1pnP7HYzh56OOceZnBioYiXn24jA/feJvJK0ZGt6DkEgL7gIC9tRCJkJdTQMtjs2lwN7L4ej+9ZudzxCNDGP/pBJLfyiNBSRNvhH3AW6pon0A3EwgKDQ113HfzMKa9P45PFg6i2XBirZ1nxDXxnzsT+f35K9EdgxlU4eTC45fw7JRDOP1nM7jkpgZIPYRnrqnBbdZz/uUrCMQNxTBcoOrU1sONfy9iTOVkbrlzKx9925+k2DSc1rR0B4FgLeFb42nYgBZvI3dcO5jZn7/FB98UEwyncMqJaRyU9wVXPJmPR3VROrCQ286bxeKv11NQUslt9y5hRV1/amqr+b9TB7Jq3WaWLrcEwk72vC1/CV0lSIizTyykV9pU7nyuFJdDtX0ptBiNZ26Cux6q4ZoLMzn7wi858uTfUpk+ncfHRnjw1qP5x90fUuOtoL5qDu7EYg4ePog/H/cVf7vBjysh+wfxCiwp1NJcxyM3H8GEd55lXcMALjhvMKvmjuexVxTyysq5/axNnHNdgLAzH4dpdGjG4wtGOOl3J1GZ8BB3PBmLFpeFiotIqJonbsvFWzODeUsVXpzUhxinl6dv9/Cbi/08cs+xPHzPs6xpHECq288hw+vZUtfMqSeV8/bE+Uxd0pdwxMnjN/Thi48n8dInDp574BCuvHEaNcG+/Pv+g5nx6WR+cYTBb85ZQ10ol4fvOopN81/iiY+HUZwXS0HSXKbMzWXNZpOX7y9i5ifv8c7cQ3BasTO2icT2f3BSQgjsmoCVR8VES/LQ66kQS+NmUXV1PCefeCSTtkwl5tEM4t0JYDrk1I28Rj8Kge4lEEzYsG417z5bye2Pfc3qLRV29L4IGkmuRp67M50T/7KM5sgQzvpjMf1jxvHurJFccuZSpk41OHh0KXPmLGH4yEO47p+v4k+poLzYwdQvIjQ1x/LMA4MJrX2RwoGlrK0K8/Fn9XwyJ4/41vjN21bPrRm/Nes2YF31Jt55ooR7n5zHspqBNDY28K/bBjJt8ut8MHMApq7y+1/14vTjZ/L+m9VMmZvNgnUwuDKL3x2fSqxzHff/u4nq5t67GGSjqZQNI8ypv+tDsvEpd79RQaKm29kcB1VonPXLKh59JZ8bL6jlqRd1zjytL08//zGLVpXz4I2DeOw/Uzj1jGOJV75h1YYmkmJyaahfwj3PZuN2uH/g/2AJhKCvhRsuHUJh7hxC4TgmfbSUd6fFE1TzqBxexLnHfcH9T7awurYQl+JC2T7G9S5ebasPt/zzZ8ya9jBvTeuDpiXa0RrqajfzxO0DSHNP4rMZCs9O7k2CQ+fJ22JYv8lNJLiFy+9sIj6pGFPVafB6cTr9vHxfLy65cR11oSKam+p49t4+jPvPFN5fNICXHsvluhs/wW9m8dQ9ffBt2Uiys4YTzmtgc3McU988iGee/pSZywdg6BbjIKojhhUb/bxwXyGzPv2A8XMPQzUDkhfiR/lU9YyHGNakItTCIXf2Y1LeePKq+9HSXE3V7Rq9lYKow/JOAoz1DDrSyx+bQLcSCNbMfWvdZt5+Op9Lb13GluZiYgwvuhnhpONLOG7wDM69I5FAOJt/XnYIHUuTYAAAIABJREFUK758iPc+z+Z3x7ooKI6wbNlGxn2YyfnnH8VRJXMIuVOZN28RNz+TTUJsOgPLWlizYg0NwRh+dpBKKOTn00X9SVQDtqpvu9p22Q3DQcSZytPXbuKy69bS7ChHi1Rz21WFXHrrZ8S5SokEFK67JA8z8B5lfUto8cXjdiYRVJr5Yup8nn3fgeLpiwP3Lmfh0TwOJoeNyuXcX6/ihgeXsnJTBd4gnH1GLvHNU3lqQh/+cpqDrAyDjycv4Yv5mZhaMv932kGU5y4gbPq46fbVHDo6maQ4H1O+CFETHIRL2fkSuu2GEKkjNmETTS0KutILj5ZkZ15MS3dz+6V+lixdwT8fLyI33prxtH+sUtEi/Pee/jzw5Di++nYIHqvHVj6HSIhfnZjLecd/xhvvePnPpCJcpofRI8PExGzis+kQNArt46w6Ifr0jed3J+cxOGc6tzzSzLLVffFHnBw2MsBZJxmcd30tj90+nJtu+YSWSCr3X19KqHEeSZrO/17byLqGOD58rpK//HM+YWc5DnsbIZpIavPWCGMfLGTs8+OZud7aYtjP4ap/7C+CPO8nJWAF7go2B+l9fALr/rSYWE8cc66tZvD6weiaIVsLP6l1et7Du41AsJzrslLh1N/GM6x4Je9O1gnpmfTJc1HRNxYzsIVz/jkfJWEYHiXIAzeUc8Y/Xicm4VBUa49cd6AqTlQ1QDjURJyjGsNsJhDMQ3Ul2LNoXXFgxVO0cxSaVlmVmF0MoNarpOsa8Wl9+cdZC/j7P1aTlNXXPiHg0TbjVzJRDCem6qQkp5qNG1YTCiXgjIlAMESzHgMxpbhMK2dBNJmTlVNq+6RO1jO+8w0wCUcCaOoyFMUNZh8afHDRX0aw4KNxzF3XC1Q3fitBlSvRXva39kHMUCO/OVFl9vzVLFk3HIcWQVdMYjTrYaFtomTH57Y929rGsC5VsbhERYChmqiBVRiqhuIoQVOskwvtu157wyYTnsrkzIun0KQPw2kGo/WZGsmpHp6/aSOvv7OCp9/vh0dLJKiYhBQHcdZzzTBb/HU8cNUQSjIWkpy0ldvu2crXq8rxKHHoapiWoM5hB3v42+lh3GYNF13bQq2vHxjVuJwqj9xewgMPzWDOimQGlqqs2GQFUcr87qtgmhQXp3L2SS1ccctc1NgBaLZjSPvip+d9WqTHe0TAVNF0aHI0M+LpIqavmoRyYy+StFRUR/u/oT16ptwkBHZBQPnlz3/Zjl/5gcHOGsDKiuM59uD1mEoTuu6yB/2ttT5WbdD5dpUHr55hR1XMSte5/E/r+fvdEQxnP9yK3w6jHP3OW3EBFIKmhkPB9rq3UjTbw4C1tGe78LcGELT8B3dzLNnaaNBVNynxVdQ3OFHUGBQr0qAZaY3AaCV+0giFQ7bPgmoF/rHOMCkamlWxYh17ig4+O6ZpaRuMdzSeqURQFTea3U4VXWvGHQ5iWAOq/X1x2PEOrLgKVj+tY45+Xz0ejxOn3b7vXCF3Jgo69jZEW2eJqegM26qz/UHUUFSKchtYu0ElbMbaksISHtb94UiQK87xsG7FNMZNHYyqxEXrtpvrwKGHOfX0JJy+z3l9Uia3Xq5z693rqQqMQjOjfbUuK6PlkSMaGdTPx8NjXaBlR7ukhygrVGiqr6G2JRNDD2OqltvmdytD1sMcDgOX0kQgYqXPtrZfWl+HXURi3HOGHSMtpbomAdvu7Tjl7rzl0agnloOxlh9ic3ArGVusnC/t/366Jglp1YFMQDl89OHd5s3T9RDBUCOR1tC51pDgdHhwOeKiPzpFsZfAS0s9/HrYHB59KY2wmh4NQmR/4O1AANEB2YyGJtr+5MDOhrmOxDZrAxwta0cf+N47E12VsP77w9ra8g1EI/21tfO7Gne8I/r/jagjk/UnRY8O+la8A0vQRP92W9bI6J+iRxmVNvHTNuj9FG+2DTlKvm3lpG2Q9bgacGotNAdz7P5ZkRwsboah2kGY7r5R57rrv6L/sJ/z+599zpV3xqI6ekVXL6yVGNvO1vHMgB0bw+FOsx9l0bfFiCUGLadD04EltKK0thcI0TgRUVN8/2fTkffgp8Apz+waBDr3kW17m6xfZ+tvQTYXuoYhe1grus0WQ0ftZn3YTfxgVKFqfSR9akfBdZFyOyZoUgwFb4uXc87IJy1uJlc9WsCD1ybw7VfTePaLg0l2tsVx6Nwnuot0V5ohBISAEPjJCPQ4gWDPr+1Zo7WUL2FLf7I3bw8fvDOBYJ0yuO2qPD6cOIHxi4bw+l1uzv/rp0QShmNaWzo7ieOwh4+X24SAEBACPYZAjxQIe2Nda/3BypoYDAaJ8bhb98j3pka5d28IWCsIYRQeviaFV8dOwe84iDNOWcvZ13tIjEuyQyHvPMTU3jxV7hUCQkAIdH8CIhA6aWMrlUBsTgzen1fh/Y9KkiPR9vqXPehOgtxHxa3AMlZUx/uuyWH8658w8JA/4q15g3+/1xuX6mn1FbACV21voT3dbhAr7yOzdfNqot5Kin3CR2n1a5Z3Z8+NvqM32J7XJHd2joAIhM7xQvcZFI7IYe2VMwn+IYMkZxIBLUwH4gB18klSvGMEIvh8fq66IB1HaBV9SkdxyQ0TCVEhqzsdAyil9jEBzcpTEtZxBp0YTp2QYuJ0RzCxUobvqTjdx408IKqLZre0ToPZ56L26FTIAdHRLttIEQidNI0RMkmriGPlJQuJOyOXhLh4EQidZLgvi9tnQiI6rqQwz90KC+es5eank3C6czp0tHJftkXq6rkEDCs9vAkhfwBHrIv832XCsCb0xBYat3hZeXsT+YEidHX32Ux/DILb+/FYJ5dsydLFhIt9SsiIweurw1XgsX/fjesDJOpJslr7Y7wkrc8QgdBJ2GbIIKnMw6bLvsVxRi8SY0UgdBLhPi0ePZpp0qJrHD2inpXLqqj2FqLayaH26aOkMiHwAwJtg20oHESPDVFyQjYcHWHNwtVUf1WL1uxm2F/LmP7sLAZ+cyhep/dHp2gd2f7+1RrXxXLY1g17+02zAqN1oUvXdUJxfgac3ZuWwmq88QE+PXMpw2KG2isKcv04BEQgdJKzGVaI7+em6vLFOM7MJilGthg6iXC/Fdd1axXSijwZbvU5kA/JfoMtFUcJGFYelAhxybHk3uRmcehblt1TTXZNPtlkWy7NFF3Zi8mLx1Py7ihCzmh00D27rJgmmh2vQ++E+rVEjHWWx4yYGGEreFuQFtOHkh1AK3YQ8oVwLoolzs59Ej3180MlpBLUDRqDtSTFJ+C2kuB1og0d6q9p+QqZ6CETdzr0uzGNL5d9TeT5CIPuHsTb53zJMLcIhA6x3EeFRCB0EqQRhJzBaSw+fxbx52WS4EqWLYZOMpTiQqA7ELBXD0yFYMhP5VPZLC6YwbL7DQ7+cDR1MXXRNOmYlNyczQdvvcewr35Go6thj7tu7QLUVG3BmaiSEJ+MZu5iMN/JE6ytj8FnlvK1Zwolw/oTSvbi9XkJ+Q1iklysfq+GuHdyiAvH7LR9elgnPs1F1oPw4Z1zGLHoMJqcTft0Gy8QCrFp0wZy+2dw8N1FvP/OVBI/ziM7OYfYm3xM+N9ZDEsd1tV2Q/bYngfCjSIQOmmlSIvB8DEDeP/nb+K+JZt0PZWIaoVE7mRFUlwICIEDmoC9Tx6BUKkX7/nVpMQmsO7NrQyfcDhbYrfaYdmDW1sofS2V8bd9zkFrDsPn9O9xn5WAyYjTBvCJdzKOD1LwmN+F+t59pQo1dTUc8UgFcyo/pebuIPqiOGIbE3H6NQ46fjDTG6eROj8fp27lH9nJAkJIod9pBaz//Sxm3biG42eczPr4DXvclx1vNEIGCQM9xJzrI0aL4cuP5pI+Lg9HrJPMYwuoGTmP8M3JxGpx26Ld77OHS0W7JCACoZMvh9FscvKffs5jBQ/gfrSATDMRQzVE1XaSoxQXAt2BgBE0cR2m8+3x39I/poQVH61ixITDqYndQtAfJndMMvXHLqPmBpV0cnYxuHUsV8mKNcv47SvHMWH2W6S93o8Yw8oH0rGroaWRiheyWJH+Nb5TUkgnn7C1A2dGCEYiODTw4MFUrdwz0YWB7T0XdHS8W5ro+5qHT+9bxpAlB+F3Wdsl382M9szlJ3qEMRD0cei9A/mk8k2CnyoYd2WSo2bgbYpw8LWlTKgeT+arvXGTaDtUWlkvrfwUP5yXfRcu//s92J6THJvs2FsDIhA6SsoupxBqDnH21b/j+uU3kvVePxKV2F2/h52qWwoLASFwoBFQQibOw2D5cUvoG1PC8o9WMmLCGOpjN6KHQ5S+mMTY26cxdOlwIo625GXf9TI6Fqt2QrjdHyRQWLNlNWOeGM7kiR+T99VAHB3cYnBFHBT27sP6y2bx2RXLGBYeCqrtlWDnf7ETq5kmTeE6VI9JajjTXhW1U7jYOUdUIkYzSQkZxN+xmS8vr6ePr9A+RmxYmd9aXX32aBXVgHAgRN5JaQQvWMNKYwPVZ8GA5gosUbKpqoYxL1by3r8+o3BlfxRcKBEd3fIzcrh2snJr5blpkyo7+iB9PyvO9yRDa26V78dLOdDexn3fXhEIHWSqmJr9Q/LqTfzy0TE8etfDVK4ZheFqU7G2h1wHa5NiQkAIdAcCpq7gy2piw5C1VB5dzqJPvqXy7dFUhdYy8n/LmXvINHz/jCfVTCdiZ2yNXpYYsGbq0dxkrd8Q68ihtV3ZOmh/PwKoypI1izl2/DA+v2QuxeGBhNVAhxDqkQCjzz6It7wvkzK2ALczluj3rDWAmGnS0NTE6HsH8doXbzN4/EiCsZZDpBWHICoQXAGViguLGO9+l6TbepFQlkBTcy2BTToZiVn2t9Fqd6c/gabBFm8LZZfnsvX4WSx8rZ6y/w5Bc2hEUPDFNZB2V4T1ZxsUuvrgDUXIG5KAa4TC3KeWkObKwXBYnqJ26ldMK1Ou5ci5k0+xndhNMdDCLjuIlamZ0dT0rcnsov1VMFQ5J9H2YolA6NBPDLxNAWJiPKjxEfo8k81Hp02msuUQasNVxCdFtxmsbJEiEToIVIoJgW5AwEAnZBhUb1zO8BeHM33GN4xYP4SA5iPtf9xMvXQOZXoZupU73s7jqhLx+tBiHViOf26n5UegEA6HUWNN9HgddYsbp8NprypYx/2s1M+K4qB3n0xqL13Kkksa6EMpqOF2CdorA6saKPswiUl3L2L48kPwaY3RTKmtOUqsgdPn9dL/1l58uHAKg8ceTDDeGp6tpfxonlmXoTLykRKef+VNxpwwnBUxq0lOcuGr8rHx/jB5W/tGZ/V2Nzv+FdTNMI3NPgY/msO81Jls+kOE0oRydCsnbyCOY86qZGzu8yTc25skLQ5XkUr2xSoNyVuZ+fvVHKQdRbOr2c7WalpB1zMiNG3xkaQmY8Wm+N6KgNWXSITkgxLZkrGRxs+DpDVno1qNNiEcCqMlaoSCQTzs3FmzXeDdrIAIhA4Y1BcKccQ5lbw9712GrBtB6L5qZp+6lkEjS0g/OYmpF82hX1I5QS3UgdqkiBAQAt2FgBVk3Tqa17Sxhb4vpjIzvICB/XPRIgFmPbWO4o8qMbVoYnJrFGpq9jLo/GJCh2zlizcW0f/9ITTRREKOm163xlGlrWLjCU4yc9LwoROXo2FYKxSL6jnl97/i3dRXUB5MI92ZEY0u2M4V8kcY9LsBfD34fRqu0EhxpRHyBLD0isPhJjYSj26aBIJ+gg4fkfgWsr3FmJo1E1eIWAcfQyauogjx//QSv7CAtZULafrCIPOIeLyBBjbfYlC0qYKIGmpdFWm/XdETIBAI6ww/YSgrLviEFcs2kj4xn4RIvCUPcJtuBvxPLi8/O56SLwfRHGni4P+U8MEbn1Pi6MO6j9ZTaAwg4AiBX2fQOaVUHbWEtRO3EHgzkZQMF/7aAAl6ChHC+FuClP29FzUVK4hpiqMp6Kf6yjAZCVn4w0FyB6Xi+UcTH909n77LytFMZ+uKT8cFT3v2OND+XQRCBywWDpv0Pj6Z9X+cR9aE/qyp/IahC4+h/qhVTHpkPiVLKkgiGV219r/a/3F04JFSRAgIgQOAgJ2FxTTI9Gbh/E8zk+fPZPjxWYQNH98+2ULJpHJ7a8ESEZGwSWFxPjVXzGHDVj/46qi45mfUZNRQeU8BYxe/zfDDCqh/UMHxdQKRrQplr+SyImYmMesyyU8r5KNnP2HoV4fS6Gxpd6JuDcIxuDnkgaG8vuBVjjAPw1ngojG/Gr+7jrkPrydtZiG++kaOvmg0E1/5gPRIQXSrwPqSKSYGGpGGFn55w2gerX2cUUeXstnYQt03XqreDRK7OZkiswTVjKCZno4LBFveGDQ2tjB8XD9WZXyFd42Bp96Jotsp8Yj1pBDp18y882sYtGIop1x9Iv9y3IvzkUxSI2nomrWzYPlKqDgaFSrGJfPS/e8TszGemA1JHPXsML548EuKlg3Cp+gUHJRN/aVz+fTCFRTNzqD0/Tw+/vsS+gf74UhwUHxHKtMDn1L7XJCSxQPx6DE9/msuAqEjHyFTIeBrovSxTFaWzKVqRRP93IUsuKWR3OoCYlUXhi0yxTu2IziljBDoLgTsFQRMyrRyqu+dxyeXL6EgL4+0HBee34ZYcnojxRnFRBQdggbDHx7A9IK3cGyOZcltdQyeX0nfm7KYrnyG8VISgx7LYo1/Bd/+zssJh/+MjacuYv19QQ56KI+t7hoW/62B/hsHEdKCu81Sahg6eihM8rA49Cs3ozTrVE31E1mgoXgVQrUqSf5k3EYcSqxC/r0Kn56/nCK1ZJufhD3Lt1YQ4nQSHtWZfdZKxjxRzMR/LKFXTS4pjix0LUxI89pbJ7Gm5dtgqaH2J0lW3eHmMJUXFbPy5Gksua+WnCl9CIYs5wwDn99H0R+K8I5eRt0tSaRoCQx5upwXz36FEc0HEfFE0DUVxdp+wUDNMPHcsoXVfw6THEonOT4V7T+bWHhhHaWN5YSaAoy+eRDv9HmZyFmZJG9Jo//EBMbfMIuC5YUMua8301d/RspzhURiDOKMeMkCa20WHXLQIe1bs7v8mvewH/Y7H4LkE100n7+YiO5jxWUmBatKcasusLyJ7R+FCIQ9RCy3CYEDkkDbx7N8WDlLjpnC+mvCZCfm0+Cr4eA7SpnzzWxiJmTiMmNJCLhIeDvEN6tns+VOByXNfXAmuyi5MZFPrplP3oZ8ej+awhzza7znx3Hs2Ucxr2QqSTcXMfS1LD4Lf0rL+clkmNmYqm47Gu7qskRLOBRkxL0l/PuT10kcn0aKmkSGMwUHblTTQUSJEDKg/6gCFp40g7oLDLJT8sESM63fsqDfT9kJfZl3xCQi12Yy8EkXUy6upiRYiKpr+J1+Drt2IG8+/THZ1QU4TEfrdspuzGn5ApgKjlyTwrvi+bRqCq4r88kL5xB26Ciqir/Zz5Bncnnl3x8w7OsjaUyoZeD1valzbaJmQhPGxx5c7liU1lONPk8LBY+62DpOJybkoeKX/Zjh/JiNfzEpcvRmY91Gjn/2MMavH0f2rYMI1keofCeNN678ijHFh+I9u4oFV1ZT3jKAsCPQ6kW6vTtFx46iHpAv8W4aLQKhExaNU2NIfTTEpM+mU/D8AGIdCdEXqdOuu514qBQVAkKgSxKwPfwVBb0hQvnNeUxeNZmBYw+lwVOLGlFpSm0m/dFGFp9ZT99wGel6Buor1Xx4+RJS1mYQq7tJ/bWbyLEhArfA0BMLafxNC1+9P5vSO0bQ68/ZLCyeSq/rB1A+LoOnp79F2UtlOGwHut1NRgw7gVnfYX3YdP2XTD93E0Orh4Gm4kDD2G6G31TbzMk3HsGLS58nbUoJrkjUadI+4WD5IDT4KXs6n7dfmUz/cWUUTvIw5eHFJM5LwpGkMuq6AXy27hNi7y60E9dZcRTaOwNgZcH2NjYz7J4S5lV8ytI/+6j0DQRFs50NVd1DXlkaW/4+i/lnNFHmHkREDbKuahXxx7ipuDCbGeOX03diJSHL78E0UAMKxtAmYn6mEFR11F4m65asI+vxIlzOGJbVreDoCZV88fg3ZMwqJybFIP76EHPPXMPZj57O0289S/acIhKMZHS/F78ZJtYTg2qq9umI6PmTaA6LnnSJQOiMtXXYqm/G4/IQb6RHlbb9Y+u5TiydwSdlhUC3ImCthjtA79NMzhVOvr5iAwWNpbZrn3WFgiFK78hm3sbZ+B5PpNCfRsGT6dQlVBEb8KApDua/vJz+B5Xh61WLb7MXXXFSU7eZ3AfKcBWC+/YGvrpkE4f/bhhbh1Sx6cstpI0rxHC1HYbcOVFfg5cBz2QzL/A1zdcmkks+BuHWxMnRlQdL4NQ0bmHYuF58fvVS+laVEbIc/loFgjXUxwc9JF2q8MWdC+jtLibjyATcp3vt5E4B3c837y7DNTGTLC0V09Si2xPtTJh0RaPfsDy2XDyHz29bw5BFQ+wtWl0xCUcipJbHkvonByvy5rLhjhApc/OJj0sANYjphazfJ7O+chHK1QXExLvRTIWIHsZnhqiPq8OZpjPiqv58OPYLhkwdTFAx8Kb7yL3fYNkZXvKNPHqfnMTcQfMwr0zkZ+NG8fiNz5OzsQ+KFTHyVxl4xjiYdftKcuvyUbSe+31XRo0cJVsMHf1qWVsNevQks6WUxSGxo+CknBDobgSsEc0kNycT44Yqpr+3gNy3SnC7Eu3DjNZlJVXyOSL0vsPJ0g+WEf9+H4IxzQTTA3ZAIjtNeU0cTp+HsBGIeu4nJRFStpLe0ouIz0fCpQ4cAyOYa1XCpfXMv76Bss2WD0Ioen5/J5duGBQcks3mU5ew6JYqBlZbM3ArrkH0sk/+KxAIhBjxy1I+P/gD/Ne5yXYW2nEB2tYPbKGgR/A6Gogj1Z4L6aEQLUl1BF1+0J3ENyQRr1kO2kZr7om24Eq7trfl/Fjw61583jCJ1EmFJLoSbYdFa1HE72sh7w+ZfJs0n7AP+h+RQaRJo/krhbj6WGKt1M8jQ3wxfh7lH46yQ1cbgRA5xyeTdHyQOucWQqqGr2ALs0+vpdw/EEdYQ0uHmiM24RiXRbqeyJjrKnh6xliyJ/fm0LsGMqNlJp6GOJKKY6kKrGHFaw1kLi4gJZJiO2u2kev4W7y9bQ7cIVYZc9SYA7f1HbeWlBQCQkAI7HMCQd1PnVFLmpaJR/HYgXjaFqKtM/jWYG0khKj3VJNWl4dqqKh2QB89ekzRtPMzoiqafdwwGqwnOoxrDhNfc4SYQ038pVtZPamRflv6W6Xt2b99xn8Xk1slQ2Fj7GoKlpegu/TWgEetw1xr8COH5iTnQYMJ/5nKiFlHEnaE210Mjbpk2kcctmO5w9J76z9ZmVV3ehnQ4m3CGevGpbjsvkYTW2EHKbIiUFo+G6qhsaJpBX3+kIYywEckNozRotirKIlf5ZGoJdvCqtcJmdQesZRFb25AnZZA9ohkImfV4bisN/Gmyz6uiKqiR0wcKrgUJzHFHlZsXE+aL41Iko/kX0B9fANbv23G/MhDP0cJPi3YuoW8z1+bA6ZCe4vBaA0zecC0WhoqBISAEOgiBBRTxVCsbYXonN4eQKOxd7AiEVsB1FSsJEj+1pmyNShag3v0HqukvedvBfZpnd1v65phzcxVSzbYtRvqd2P4dxEYW+d42wdqsz2rreBBujWl/27Zv+3PioJLddI8Yj2NswxyInlYQZ+i0mTnV5sksISJYZ0u3LaVYLXu+9pid7NO68hnVGB8t6bR9kRrq8FiZrGIrmY4UFQTbyRIxAjjdniwAifa3VNMcvtnE7loDR//ZQUDtXICG30ccncFLza+RdEz/YlVYu1+qdYN1n6QxVyxbOGwXQoUgiiqCzuCjaHjUhz20UldsY5tRlu1TedYwZi2Gyt3HZZ5x9XlAzftvPggdJGPjDRDCAiB7kNgZwPkd3PuaGDi74bi7QfKnTjDtY2+e+Du1OZsuDOy9lHDSAS3w7XdMnrXsIG9ndE6rtrdNltDIm9rnkKwKcTgm/L5YPH7lLw1Aq87QmKKk7ybPYy9YDLDnMOjgste02kTJN+HaP2tHo13bTtlRiNA2GsZXQPET9wKEQg/sQHk8UJACAiBn47AgXZ8r3WANyG0yUf/NzL44O4Z9Fs3iJaWZob+uS+zU77CfDyBBDVlt6c99kBv/XRm+omeLALhJwIvjxUCQkAICIE9I2BEwqjpCsk3BZh/6VZ6RwrRcJP1OEy6ay4V6wbauRnadarYs8f3mLu6vUDYfs/I3k+SmAU95uWWjgoBIdA9CYTDAdReGsnXellxkZeUhmSGPDyA92e/Q/brVuyDOBEH+8D03VMgWD4w1u6T7SBkRe2ynVi7RpzDDoYi3Qe2lSqEgBAQAt2SgKFH3TbzHzeZ9NeFHP/nw/i2YC51N2rkmr0s99Bu2e8fu1PdVCAo6LqBYQYJJgUJGSESfElomssWDT/lZR0Ssrye25LBW8ei5BICQkAICIFOEDA1fGuaGPpqLpv1GoKajwU3baasZQARrc0pUb6tnSC606LdRiBEzwVbYTpdeEPNpFbEkHK1i4CrmoDRxNxLWiiuH4imtJ9DfW+h7nh/tG0mmumgSW9m64ZN6CHI6pVNTHysfZQHU7dXO9picuiahjNiLX3s2yhe0QM41lkp6+hPmzf1vu6x1CcEhIAQ2L8EDMMgplCjcdgGNo31U+rsj98RwmFNwOTaJwS6jUCI0tDZurmBERf1o37UBj5/bilxCxMZ/I8CFi1dTtG4YQSd/n0CrrOVNDU30Xt0NkknOIlk+gm6grTUtLD2Zh/Zeg5hKzyrJRAMxU54Ykc+2/5cc2cfuJvyhqnQ3NCAN+glOysnerBHfDP2IWGpSggIgR+DQMRyVgxrqB5rUTZ6RHHfTql+jF503Wd0E4Fgxx8jFAxSenIuNUetYt59aylbX0ZQh8SLVZa2LOHgfx3HpqSNdrQzO3DGj3QF68MMOrWINSdV4OQnAAAXVElEQVQsYOVrG1A3ekjUUyn4vzSm3jabId7hhJUQET1CZv90qp3rcSyKB03bp+20VjKCoTCZhcl4TgoQTg6w6JpqsuNzW1O8ivL+kV4JeYwQEAJCoMsT6BYCwQ4Gopu4kgwSnvMz9cZFHDHjF9TH1hLwhUj9h5PF9UsY+eQYquKrMazl9W1Zz9u3UdhSqaqCplpbAZ3P3hhw+xnxSAmvvvcOhW+WEWfG234I6+vWkZmZicPQ7LgpEW+Y3tfmsipxHi3/0MiIycLcR1sMlu9DMBgifXA8cX8NUhOzicbmFmLP7YcSEw3OssvQqO0jkhJCQAgIASHQzQh0C4Fg2cQa/FIPTaThujksv7qJY6efzKakKkJbA/S7P50piz+n3xuVhFVLTuiY1rGGdi4rLak/4OWgP4zgmy8/J2lTL3zOgO1P0JnLHKCTc6PGJ89/TdG7lcSaHvtEhe2Ha0SXxMKajtkQotejiUyZ8gWDPxxNWPXvEx8EK1hr0NtE2aElOP9Wz2sPfsYf/vhzXv5wEoOnDENTVDucqETc7oxVpawQEAJCoHsT6CYCQcE6FxvTNxbz4SUsuLqen00/hY1JG/GFGil/JosPbp1Fv41WohOHPThbOwyqPdD/MJ5WWyIUw4TGpnoGPl7CZ699wpjJv2Z10qrtgnO393KYdj5x1ygF98WNfH7xSvrVlOE0rVjslsuEk9SBbtYEVhO3MgVtpZPe78fz0TNfUj53KKYSsmOod06O/LBNVm76xIIYHNc2MP2W+ZSsGYhZGKBuk5dMsu0bxAehPVvKvwsBISAEehaBbiIQrCQaOqFQC9ljg3x1zyqOmn4yqz1rKT+uhHmHT8N7tZNeMRkErMQpVtINy5nFjo8QnctHr6iTyzaBANQ31FHx73w+e34ax049mTVJa9rNd/7dK2TYGckcQ8IETm9kxclb6F1YgJmso6UaNK8wGXpiBfUjV7Hy2iZ61eWQ94bGB9fPo19tPxRTs1cr9uawjtWXxqYGDn24Px9M+YSMT/rgIi56gsHKX2IvG+w6K1zP+jlIb4WAEBACQqCNQDcRCNYyfQR/pIGsx1KY/eg8xsz+OXPMBRz31Cief/E1+s6pwGO4qFGaMQ2VNCU+el7W8nyNgKo7UJ0GemugBOt/rOOA9Y21lL+Qw0cPf8bPZ53ExoSNHZ5tW3LDcpwccX4/pmZ8TN6SPvQd0Y8N2avY6q9j7gUbKDYKCQ6pw704hsyS/rjPXc+cS7eQ787HDBpEDAOPMwZDi+Zp70zoUEtaRCImI35bypTyDwlcGUdefAG6Zucusy/TMDDDCopLsVF07rLypFkZ0gy0NqHRuQqktBAQAkJACHRRAt1EILTO/yNBMl9wMfmqmRw+82hS73IyO24GgdvSyVCzaFFqGfxQNlvMKuY+VUXhwlICepCEkhD+4iD1nwRINzPQ1BiCoQCKU8GlO8h6zsFHt87k8CVH0BDj7fAxGmulon5jHaXjU9kUvxLjKwf1H/hpXmQQh4cYLZmQ209yMBXNdJFzWhbrc2fBldmY8VB0WSZbU9ay5uU6Utfm4MLTqdfIjnKwVaf0lTTe+M+nDJ45jJAW2SZwzIiJJ0kjckwja9+rJS9c+L36t+Wc3+GpbRnirC2YZrMRQwuRZuTYzp9RCbO3myKd6qYUFgJCQAgIgf1AoNsIBNNUcXhN0ic2svKrRvp5+rCleCNzLqmitLmSiNfH7885jhdKnyExI46Gz5tIfbyE5DFpJJ8WoNFswRlnsOSOTeR9W0H8GQ62VFfjmBZD2jMGky6az4jaEQQdVg73jky1TcJBg4Mqyplz/lQW3lJNem0mKWoGsbgxdCfD7yjmoxnvo41PJ0mPZ/B1xbz+1dukT8il+H8KqBmzAvdiN3pJhJVnNVKcXoLeyciL7q0O8t8wefeOb8hZ3Rt8Ch6Xh1hHDJFgmFPOOo4ph7/F/Fs3k7+xBH/Eh8vKuW467dUFwxPAWaIQjgvRuCRAWnM6hqZaiwaE/QGG3lXCsrrFmHenEfZYKzI75kLfD2+tVCkEhIAQEAL7nUC3EQi6aeBwOQm9sAQlEo+22UtCdgpzz6mlv7eMuritHPPgoXyTNpG62WE2PhpiYGM/ih5OYvxT08n4uhcVr2cy56EFnGSewfSzJ5IQjiGwBhzDdeb9bzVl5kA7L7mVY7wjl7/Fz3H3Hc5zHzxLn8kVEBOJBvNQHMTqLpJf0pl4zgwO9h9C0PBz6MNlPH3/OPKrchjxSCXzY2dQWlPOrOXzUR5NIt2RZcdw6MylNTjIvl+lNnsrnupYnE0xbJ6/icYpOglmGkdeX8lLr46l97xBbKhfy4lPHcHEf39MzpoiiCiU3ZXKEmUJitdESTWpvgLSzWz0sMlBJ/Xni5GT2HBrgLJABRHVihhptU5WEDpjIykrBISAEOiKBHYqEHbMgLh9w7uit7th6IRDOpmHJVF1+nxW/TGMy3Rw9APD+Gj+VMrfqqQ5u4XyJ9KZNnEmyn+S6eMvoOLBLCYunE76Y7n0Gp2KdmuAmTcs5+YTLuLid2+lmHwqrslnUcs3rD0hTHFmP2JcCR3yQVCsZCIpEbKeMvn6b2vJreqLw1qCt+IamBqZSjLhJ9Yx++Ja+vhL2NSyloPfKuSbv2xmSH45ay+Zw/pbmsEw8WxII0tNA0XrfJwwAzaHqggkNpHa10N8eiLFRxSwxljBsptr+eMDJ/Le/eMpXzyK6sLNpD4d5OvrVpO3pJhf3DeaF6aNRXklkcxQGkXj3Ey5fwGliyqJ1IfpNy6FD+6aQcXyoQS1CBE9jFtztEY064qvu7RJCAiBfU3gQBsv9nX/f+r69if/7rGCYGpEWkKUX1TEBN6i9MFKtBgncb09+K9dw+a/6iR4khnyTBbrv2qkaZqXpplh+o6NZdoFKxiZP5Lkv8PG9JVUfxjmmOLDePNvk8huyGLEPcVMq5jM6LoxfPril6TOL0JrbwXBVAjUN1N6QSGf9JlEnxv6obrjQY3O/iPhCCW981l/ySzW/0Mjz+jFZn0ThWNdhP6Yw+hfDuKN8mdw35OLJ5RI4oBYNoWrSNyQjENxdvx9NE1MRQdcKIaKbgbRQ2HishLh7i18c+JaznvgT3y+8lOqHw/xp7/8kil/eJ0tZ5sclH8E666cQdVZCrnhYoLNQXq/rvD+w7Mo+Lwfw84t57PsySTeVohqGqhxBgW/yWHO2wvIMvI7tgvT8Z5ISSEgBISAEPiRCRywAmF71WQo4Nzi4JiHB3PHS09QsbISJw62eLcwcmw+s69YTubGPJSRGuHB1Wyd10LCkmySn9VRlqho2QZzXljNCUf/irmp0+ml9WbjqXU4s5xknBdD3ZiVVL0cIGZ8Dmlmuh1DYbeXaaIrJkMezOeZO15nxKaRKIqGaeVaUBQammqpOK+U+Ukfk3X/MMIeEzM5jP7bRhruC/OrK8fw7IoXKJyUT+9f5RM+rp7Jj82j/NshOM3vBMLuVnNsB8MwmEEVTVGwYkcqWBEhIww9v4JJ8R/QfI+T0ozepFxmEMxqgbQQc8auIfPlgYw+fhDvnPRfYi8uIYMsnAkmCf9q5IsrNjJw7QD6PpnJq1PfZfC0wcQe48JzpMKSmcsIPO8hT8+z+y+XEBAC3Z/A/pzBdn96e9/D/cl/m0CwPNOjUYTbG/123aFd3blfhoodwv45Yx2MuKeAR65+k4rGctw4afL7OfbySua6Z+BYnknwVY2II4jpMPGpPlzHBPE5t7LhsyC9G4s59sgxzD/tfVS3i5jlWSTlOFlWu5gFT9VQtLGEVDOFgBpEtcIO7u7SIW90Ok1/XcX831ZT6OqHoVr5H8DQFPwBH71+ls6c+hkM/mo0jZ5mOyV1WAliBnRGnT2YxYNm018rZUl4Hgvu30JpbX+cuC0rbXvy9rb6AeOITlp2Kv7yRnwtPlxOD/HZcRQMT2Wh8jXL7wzQp6UQ0wxTE6nGm++j/0NZLDhrPcO2HEa/43sx/hfP47migPiGZIb+qYLpqRNQ/ptFkp5G0dXJNAzchOaPYf2aNSx7vpaCzb1JUTIw1cg2P42Ovk27e8n34Pzl3v/qpAYh0FMItH1L9+Lb31NQ7Y9+tn371D3kv1/G19aOKsccdYzlddfxYDy7ak1HR4KdEN7t4LCT8juKmIhi4MiLkHaqxsqbG0l1p2CaClYEQTU7SOTcOlZ/vpGyj4bhj4mmVLbCHBMM2SmWNYfDFkaa7qLpqE0sXb2auBwn2jqNtOpcko00FM2KRRztZDRN8g+vtnbpIYVBJ+fzYcZrJP63mEQ1Cx3dPvtg9dUSGEFdx9D8xOKxYwlYcQQMK+SxoeNVW/AeWsXmqq1kr80jPZCDU3FaPoN24CSb1y5yQrS1QQ2r5JSlsO5PszGJ2LEfgjVNLPuyiewleeT5ehPGj6/ZR/6YYpL+J8Qqz2yqLnPTp6WIpP4ZfFY2gYIJJSSY6YQ1g7DeTIyaCIaC6Wyh3tlEJOwmMRCL22GlU7P/yc5bEY0jYV0dfH07WGx//EClTiGwLwi0RWjdF3Xtizp29V3dm0ngvmiX1LFzAq0heDqNx/rm7q9LOeqIo3/wad5+lrq/Hrwv67UyM4bUEGE1RHzETcRy5rMGW2vAMgx8WhMaDjzEbxukrQHW7nhrSmX7/L5iEjZ17DQNho6qONFwYppGVFBsi7W4+9ZbAZZ0NUxQbSYukmLP+u2YBFbY5B3ERduPte3vrRgClmILYYVZNnFZxw1NLRrssDODqC0krFONXhyWOLGiMuoaTs0SQ270iI5fbaLs6izq1Grq8xpZ/v5myl8bRshjsdPRFR8eJQFMK7WV9XCtrSdWhKXWCJTW/yoYrRytNkZ11A/f2u8HeupM0KeddLztr/b5j2MnFW6bYW1n9+2aZFtsD9X/rt+k7duxQ/93xNFhBm0Ft68gmguk07/5zpivUz/2HTsTVZo/YPz9LnTqCR0rvOf8O/Mz7VhbpFRPINDhn/EOMPbn+6aMGjmqdZzc0+Z1DdMp9oCloNsf6taPSutAZQ/OVljl1g+hHVC5NcfB9gO2da/TtKSA5dynYsUJ1NB2GfdglysftnOgimofSdRsgWE1aZsYaBMbuxxU2sI9W7EQox/wzlrH3s5oi71ojdq6ajss6hhoTg+GEeSY60YyrvHfaO9lUH5hHpPPXUSls4KgZj3TEhV668Bvrbq0DSNRHvZpTdMqZ/EyMO0VltYgSR3M/LQ9v30/wHaN93J/tGJfzQyF/55ZZ6f8Wz87B+J7vLfvQWdXgPeMutz1UxA4YJ0Udwdr22zcntVag/T3fQZ2Nvm0/s5aqrHGUmtw/G5ItgbE/anRfiSz2+tQ1raGSctWH8OuKGZh/gwaL0jgkCv6MiNzJmU3jaQ2phlTMTBVi8GufS2i4Q6i0sWKnxhNfCXXjgT2tQPRrqJbtj23M8/b1cCwq1WuA9G6neHRXv+2/67srKy9CtP6MzgQhUJ7/Zd/73kEuqVA6IgZd79Cut/XLzvSxH1cprXHukFpUTEbL17K5xctpbgpnwEvZfPBbXMo31iJruqtKx2dC8i0bYCyhYO9XPKD9n9v0XYXWy37uNPdsrq9nfF1Syg/YqfaEwo/YlPkUUJgvxLosQJhv1LtwpWbITjptF/yjOs+zOfSOfH8oxmvvIHxeAJZao5EQtzHttvZYLJtv38PF11kdtoxI+1yhaRtmv8j8W/LXbK7Vu/TZXo7OWtnNyU7xlRK9SwCIhB6lr0xwhFOOvtXPBF4mNgvelFwWwvzLmyif30FQYeV5XEPv5o9jKN0VwgIASHQ3QmIQOjuFt6hf1ZExdGHDWfp/03DpXiYeN9M+s+vIEaL2QNXyB4GT7orBISAEOhBBEQg9CBj2101rPQOBs0jq6jz1pKxpIgYPGiK5YwplxAQAkJACAiBKAERCD3tTTCtaAQGRkRH1TQUte1IpexZ9rRXQforBISAENgdAREI8n60EthvkW+EsBAQAkJACByABEQgHIBGkyYLASEgBISAENjfBEQg7G/CUr8QEAJCQAgIgQOQgAiEA9Bo0mQhIASEgBAQAvubgAiE/U1Y6hcCQkAICAEhcAASEIFwABpNmiwEhIAQEAJCYH8TEIGwvwlL/UJACAgBISAEDkACIhAOQKNJk4WAEBACQkAI7G8CIhD2N2GpXwgIASEgBITAAUhABMIBaDRpshAQAkJACAiB/U1ABML+Jiz1CwEhIASEgBA4AAmIQDgAjSZNFgJCQAgIASGwvwn0OIFgmlbOAbmEgBAQAkJACAiB3RFQjj7iaHvEVBTJ5ievihAQAkJACAgBIRAloBx/7PEmPUkbyAKCvPtCQAgIASEgBNol0OO2GNolIgWEgBAQAkJACAgBRCDISyAEhIAQEAJCQAj8gIAIBHkphIAQEAJCQAgIAREI8g4IASEgBISAEBAC7ROQFYT2GUkJISAEhIAQEAI9joAIhB5ncumwEBACQkAICIH2CYhAaJ+RlBACQkAICAEh0OMIiEDocSaXDgsBISAEhIAQaJ+ACIT2GUkJISAEhIAQEAI9joAIhB5ncumwEBACQkAICIH2CYhAaJ+RlBACQkAICAEh0OMIiEDocSaXDgsBISAEhIAQaJ+ACIT2GUkJISAEhIAQEAI9joAIhB5ncumwEBACQkAICIH2CYhAaJ+RlBACQkAICAEh0OMIiEDocSaXDgsBISAEhIAQaJ+ACIT2GUkJISAEhIAQEAI9joAIhB5ncumwEBACQkAICIH2CexUIJim2f6dOymhKMoe3Sc3CQEhIASEgBAQAl2LQKdXEHYlHkQcdC3DSmuEgBAQAkJACOwNgU4LhL15mNwrBISAEBACQkAIHBgEdi4QZKfgwLCetFIICAEhIASEwH4ioBz3s59vczjYU9+DbW3ble+C+CbsJ/NJtUJACAgBISAE9g8BZdTIUXvmkbh/2iO1CgEhIASEgBAQAl2AgPggdAEjSBOEgBAQAkJACHQ1AiIQuppFpD1CQAgIASEgBLoAAREIXcAI0gQhIASEgBAQAl2NgAiErmYRaY8QEAJCQAgIgS5AQARCFzCCNEEICAEhIASEQFcjIAKhq1lE2iMEhIAQEAJCoAsQEIHQBYwgTRACQkAICAEh0NUIiEDoahaR9ggBISAEhIAQ6AIERCB0ASNIE4SAEBACQkAIdDUCIhC6mkWkPUJACAgBISAEugABEQhdwAjSBCEgBISAEBACXY2ACISuZhFpjxAQAkJACAiBLkBABEIXMII0QQgIASEgBIRAVyMgAqGrWUTaIwSEgBAQAkKgCxAQgdAFjCBNEAJCQAgIASHQ1QiIQOhqFpH2CAEhIASEgBDoAgREIHQBI0gThIAQEAJCQAh0NQIiELqaRaQ9QkAICAEhIAS6AAERCF3ACNIEISAEhIAQEAJdjYAIhK5mEWmPEBACQkAICIEuQEA55OBDzB3boaDssmmm+YPidllF2fU9u+unSWt9O6t2d1Va5ffskV0AuzRBCAgBISAEhEDXJqD84rhfmD8caHc18u5cHHzXRRmxu7a5pXVCQAgIASEgBDpGQLYYOsZJSgkBISAEhIAQ6FEE9qlA2NfbDz3KEtJZISAEhIAQEAJdiMA+FQhdqF/SFCEgBISAEBACQmAvCIhA2At4cqsQEAJCQAgIge5KQARCd7Ws9EsICAEhIASEwF4QEIGwF/DkViEgBISAEBAC3ZWACITualnplxAQAkJACAiBvSAgAmEv4MmtQkAICAEhIAS6KwERCN3VstIvISAEhIAQEAJ7QUAEwl7Ak1uFgBAQAkJACHRXAiIQuqtlpV9CQAgIASEgBPaCgAiEvYAntwoBISAEhIAQ6K4ERCB0V8tKv4SAEBACQkAI7AUBEQh7AU9uFQJCQAgIASHQXQmIQOiulpV+CQEhIASEgBDYCwIiEPYCntwqBISAEBACQqC7EhCB0F0tK/0SAkJACAgBIbAXBP4ft6ZoVTA6/PIAAAAASUVORK5CYII=;" vertex="1" parent="1">
                    <mxGeometry x="-85.87" y="480" width="520" height="280" as="geometry"/>
                </mxCell>
            </root>
        </mxGraphModel>
    </diagram>
</mxfile>